STARTFONT 2.1
COMMENT
COMMENT Converted from OpenType font "notosans.ttf" by "otf2bdf 3.0".
COMMENT
FONT -FreeType-Noto Sans-Medium-R-Normal--39-280-100-100-P-193-ISO10646-1
SIZE 28 100 100
FONTBOUNDINGBOX 133 67 -24 -15
STARTPROPERTIES 19
FOUNDRY "FreeType"
FAMILY_NAME "Noto Sans"
WEIGHT_NAME "Medium"
SLANT "R"
SETWIDTH_NAME "Normal"
ADD_STYLE_NAME ""
PIXEL_SIZE 39
POINT_SIZE 280
RESOLUTION_X 100
RESOLUTION_Y 100
SPACING "P"
AVERAGE_WIDTH 193
CHARSET_REGISTRY "ISO10646"
CHARSET_ENCODING "1"
FONT_ASCENT 41
FONT_DESCENT 11
COPYRIGHT "Copyright 2015-2021 Google LLC. All Rights Reserved."
_OTF_FONTFILE "notosans.ttf"
_OTF_PSNAME "NotoSans-Regular"
ENDPROPERTIES
CHARS 3053
STARTCHAR 0000
ENCODING 0
SWIDTH 0 0
DWIDTH 0 0
BBX 0 0 0 0
BITMAP
ENDCHAR
STARTCHAR 000D
ENCODING 13
SWIDTH 257 0
DWIDTH 10 0
BBX 0 0 0 0
BITMAP
ENDCHAR
STARTCHAR 0020
ENCODING 32
SWIDTH 257 0
DWIDTH 10 0
BBX 0 0 0 0
BITMAP
ENDCHAR
STARTCHAR 0021
ENCODING 33
SWIDTH 257 0
DWIDTH 10 0
BBX 5 29 3 -1
BITMAP
F0
F0
F0
F0
F0
F0
F0
70
70
70
70
70
70
70
70
70
70
60
60
60
00
00
00
60
F0
F8
F8
F0
20
ENDCHAR
STARTCHAR 0022
ENCODING 34
SWIDTH 385 0
DWIDTH 15 0
BBX 10 10 3 18
BITMAP
E1C0
E1C0
E1C0
E1C0
E1C0
E1C0
E1C0
E1C0
E1C0
E1C0
ENDCHAR
STARTCHAR 0023
ENCODING 35
SWIDTH 642 0
DWIDTH 25 0
BBX 23 28 1 0
BITMAP
006070
00E070
00E060
00E0E0
00E0E0
00C0E0
01C0E0
01C0C0
7FFFFE
7FFFFE
7FFFFE
0181C0
038180
038380
038380
030380
030380
FFFFFC
FFFFFC
FFFFFC
070700
060700
0E0600
0E0E00
0E0E00
0E0E00
0C0E00
1C0C00
ENDCHAR
STARTCHAR 0024
ENCODING 36
SWIDTH 565 0
DWIDTH 22 0
BBX 18 32 2 -2
BITMAP
00C000
00C000
00C000
00C000
07FE00
1FFF80
3FFF80
78C300
70C000
F0C000
F0C000
70C000
78C000
7EC000
3FC000
1FF800
07FE00
00FF80
00CF80
00C3C0
00C1C0
00C1C0
00C1C0
00C3C0
E0CF80
FFFF00
FFFE00
1FF800
00C000
00C000
00C000
00C000
ENDCHAR
STARTCHAR 0025
ENCODING 37
SWIDTH 822 0
DWIDTH 32 0
BBX 28 28 2 0
BITMAP
1F000E00
3F800E00
7BC01C00
70E01C00
E0E03800
E0E07000
E0E07000
E060E000
E060E000
E061C000
E0E1C000
E0E38F80
E0E39FC0
70E73DE0
79CE3870
3FCE7070
1F1C7070
001C7070
00387030
00387030
00707030
00707070
00E07070
01C07070
01C03070
038038E0
03801FE0
07000FC0
ENDCHAR
STARTCHAR 0026
ENCODING 38
SWIDTH 720 0
DWIDTH 28 0
BBX 26 28 2 0
BITMAP
03F80000
0FFE0000
0FFF0000
1E0F0000
1C070000
1C078000
1C078000
1C070000
1E0F0000
0F1E0000
0F3C0000
07F80000
03F00000
07E00000
1FF00780
3E7C0700
7C3E0700
781F0F00
F00F8E00
F007DE00
F003FC00
F001FC00
F000F800
F801FC00
7C07FE00
3FFF9F00
1FFF0F80
0FFC07C0
ENDCHAR
STARTCHAR 0027
ENCODING 39
SWIDTH 205 0
DWIDTH 8 0
BBX 3 10 3 18
BITMAP
E0
E0
E0
E0
E0
E0
E0
E0
E0
E0
ENDCHAR
STARTCHAR 0028
ENCODING 40
SWIDTH 282 0
DWIDTH 11 0
BBX 8 34 2 -6
BITMAP
07
0F
0E
1C
3C
38
38
78
70
70
F0
F0
E0
E0
E0
E0
E0
E0
E0
E0
E0
E0
E0
F0
F0
70
70
78
38
3C
1C
1E
0E
07
ENDCHAR
STARTCHAR 0029
ENCODING 41
SWIDTH 282 0
DWIDTH 11 0
BBX 9 34 1 -6
BITMAP
F000
7000
3800
3C00
1C00
1E00
0E00
0E00
0F00
0700
0700
0780
0780
0780
0380
0380
0380
0380
0380
0380
0780
0780
0780
0700
0700
0F00
0F00
0E00
1E00
1C00
3C00
3800
7800
7000
ENDCHAR
STARTCHAR 002A
ENCODING 42
SWIDTH 540 0
DWIDTH 21 0
BBX 18 18 2 12
BITMAP
01E000
01C000
01C000
01C000
01C000
01C000
E1C180
FDDF80
FFFFC0
7FFF00
03E000
037000
077800
0F3800
1E3C00
1E1E00
1C1E00
040800
ENDCHAR
STARTCHAR 002B
ENCODING 43
SWIDTH 565 0
DWIDTH 22 0
BBX 18 19 2 4
BITMAP
00C000
00C000
00C000
00C000
00C000
00C000
00C000
00C000
FFFFC0
FFFFC0
FFFFC0
00C000
00C000
00C000
00C000
00C000
00C000
00C000
00C000
ENDCHAR
STARTCHAR 002C
ENCODING 44
SWIDTH 257 0
DWIDTH 10 0
BBX 5 10 2 -5
BITMAP
38
78
78
78
70
70
F0
E0
E0
C0
ENDCHAR
STARTCHAR 002D
ENCODING 45
SWIDTH 308 0
DWIDTH 12 0
BBX 9 3 2 9
BITMAP
FF80
FF80
FF80
ENDCHAR
STARTCHAR 002E
ENCODING 46
SWIDTH 257 0
DWIDTH 10 0
BBX 5 5 3 -1
BITMAP
60
F0
F8
F8
F0
ENDCHAR
STARTCHAR 002F
ENCODING 47
SWIDTH 360 0
DWIDTH 14 0
BBX 13 28 1 0
BITMAP
0038
0078
0070
0070
00F0
00E0
01E0
01C0
01C0
03C0
0380
0380
0780
0700
0F00
0E00
0E00
1E00
1C00
1C00
3C00
3800
7800
7000
7000
F000
E000
E000
ENDCHAR
STARTCHAR 0030
ENCODING 48
SWIDTH 565 0
DWIDTH 22 0
BBX 18 28 2 0
BITMAP
07F800
0FFC00
1FFE00
3C0F00
780780
780780
700380
7003C0
F003C0
F001C0
E001C0
E001C0
E001C0
E001C0
E001C0
E001C0
E001C0
E001C0
F001C0
F003C0
7003C0
700380
780380
380780
3C0F00
1FFF00
0FFE00
07F800
ENDCHAR
STARTCHAR 0031
ENCODING 49
SWIDTH 565 0
DWIDTH 22 0
BBX 10 28 4 0
BITMAP
01C0
07C0
0FC0
1FC0
7DC0
FBC0
F3C0
43C0
03C0
03C0
03C0
03C0
03C0
03C0
03C0
03C0
03C0
03C0
03C0
03C0
03C0
03C0
03C0
03C0
03C0
03C0
03C0
03C0
ENDCHAR
STARTCHAR 0032
ENCODING 50
SWIDTH 565 0
DWIDTH 22 0
BBX 18 28 2 0
BITMAP
07F800
1FFC00
7FFF00
F80F00
600780
000780
000380
000380
000380
000780
000780
000700
000F00
001E00
003C00
007800
00F000
01E000
03C000
07C000
0F8000
1E0000
3C0000
780000
700000
FFFFC0
FFFFC0
FFFFC0
ENDCHAR
STARTCHAR 0033
ENCODING 51
SWIDTH 565 0
DWIDTH 22 0
BBX 18 28 2 0
BITMAP
0FF800
3FFE00
FFFF00
F80F00
600780
000780
000380
000380
000780
000780
000F00
001E00
0FFC00
0FE000
0FFE00
003F00
000780
0003C0
0003C0
0003C0
0003C0
0003C0
0003C0
000780
C00F80
FEFF00
FFFE00
7FF800
ENDCHAR
STARTCHAR 0034
ENCODING 52
SWIDTH 565 0
DWIDTH 22 0
BBX 20 28 1 0
BITMAP
000700
000F00
001F00
003F00
003F00
007700
00F700
00E700
01C700
03C700
038700
070700
0E0700
1E0700
1C0700
380700
780700
700700
E00700
FFFFF0
FFFFF0
FFFFF0
000700
000700
000700
000700
000700
000700
ENDCHAR
STARTCHAR 0035
ENCODING 53
SWIDTH 565 0
DWIDTH 22 0
BBX 18 28 2 0
BITMAP
3FFF00
3FFF00
3FFF00
380000
380000
380000
380000
380000
780000
780000
780000
7FF800
7FFE00
7FFF00
001F80
000780
0003C0
0003C0
0003C0
0001C0
0003C0
0003C0
0003C0
000780
C00F80
FFFF00
FFFE00
3FF800
ENDCHAR
STARTCHAR 0036
ENCODING 54
SWIDTH 565 0
DWIDTH 22 0
BBX 18 28 2 0
BITMAP
00FF00
03FF00
07FF00
0F8000
1E0000
3C0000
380000
780000
700000
700000
700000
F3FC00
F7FF00
FF1F80
FC0780
F803C0
F001C0
F001C0
F001C0
F001C0
7001C0
7001C0
7803C0
3803C0
3C0780
1FBF00
0FFE00
03FC00
ENDCHAR
STARTCHAR 0037
ENCODING 55
SWIDTH 565 0
DWIDTH 22 0
BBX 18 28 2 0
BITMAP
FFFFC0
FFFFC0
FFFFC0
0001C0
0003C0
000380
000780
000700
000F00
000E00
001E00
001C00
003C00
003C00
003800
007800
007000
00F000
00E000
01E000
01C000
03C000
03C000
078000
078000
0F0000
0F0000
0E0000
ENDCHAR
STARTCHAR 0038
ENCODING 56
SWIDTH 565 0
DWIDTH 22 0
BBX 18 28 2 0
BITMAP
07F800
1FFE00
3FFF00
7C0F80
780780
700380
700380
700380
780380
780780
3C0F00
1F3E00
0FFC00
03F800
0FFC00
3E3F00
7C0F80
780780
F003C0
E001C0
E001C0
E001C0
E001C0
F003C0
780780
7F3F80
3FFF00
0FFC00
ENDCHAR
STARTCHAR 0039
ENCODING 57
SWIDTH 565 0
DWIDTH 22 0
BBX 18 28 2 0
BITMAP
07F000
1FFC00
3FFE00
7C0F00
780780
F00380
F00380
E003C0
E001C0
E001C0
E001C0
F003C0
F003C0
7807C0
7C1DC0
3FFDC0
1FF1C0
0383C0
0003C0
000380
000380
000780
000700
000F00
003E00
33FC00
3FF800
3FE000
ENDCHAR
STARTCHAR 003A
ENCODING 58
SWIDTH 257 0
DWIDTH 10 0
BBX 5 21 3 -1
BITMAP
F0
F8
F8
F0
70
00
00
00
00
00
00
00
00
00
00
00
60
F0
F8
F8
F0
ENDCHAR
STARTCHAR 003B
ENCODING 59
SWIDTH 257 0
DWIDTH 10 0
BBX 7 26 1 -5
BITMAP
3C
3C
3E
3C
18
00
00
00
00
00
00
00
00
00
00
00
3C
3C
3C
38
78
78
70
70
60
E0
ENDCHAR
STARTCHAR 003C
ENCODING 60
SWIDTH 565 0
DWIDTH 22 0
BBX 18 18 2 6
BITMAP
0000C0
0003C0
000FC0
003F00
00FC00
03F000
0FC000
3E0000
F80000
F00000
FC0000
3F8000
07E000
01FC00
007F00
001FC0
0003C0
0000C0
ENDCHAR
STARTCHAR 003D
ENCODING 61
SWIDTH 565 0
DWIDTH 22 0
BBX 18 11 2 8
BITMAP
FFFFC0
FFFFC0
FFFFC0
000000
000000
000000
000000
000000
FFFFC0
FFFFC0
FFFFC0
ENDCHAR
STARTCHAR 003E
ENCODING 62
SWIDTH 565 0
DWIDTH 22 0
BBX 18 18 2 6
BITMAP
C00000
F00000
FC0000
3F0000
0FC000
03F000
007C00
001F00
0007C0
0003C0
000FC0
007F00
01FC00
07E000
3F8000
FE0000
F00000
C00000
ENDCHAR
STARTCHAR 003F
ENCODING 63
SWIDTH 411 0
DWIDTH 16 0
BBX 15 28 1 -1
BITMAP
1FE0
FFF8
FFFC
E03C
001E
001E
000E
000E
001E
001C
003C
0078
00F0
01E0
03C0
0780
0700
0600
0E00
0E00
0000
0000
0000
0600
0F00
0F00
0F00
0F00
ENDCHAR
STARTCHAR 0040
ENCODING 64
SWIDTH 874 0
DWIDTH 34 0
BBX 31 31 2 -3
BITMAP
0003E000
003FFE00
00FFFF80
03F007C0
07C001E0
0F0000F0
1E000078
1C000038
3807FC1C
381FFC1C
703E1C0C
70781C0C
70701C0E
60F01C0E
E0E01C0E
E0E01C0E
E0E01C0E
E0E01C0C
E0E03C1C
E0F03C1C
60707C38
707FEFF0
703FC7F0
700703C0
38000000
3C000000
1E000000
0F000200
07E01E00
03FFFE00
007FF800
ENDCHAR
STARTCHAR 0041
ENCODING 65
SWIDTH 617 0
DWIDTH 24 0
BBX 25 28 0 0
BITMAP
001C0000
003E0000
003E0000
003E0000
00770000
00770000
00F70000
00E38000
00E38000
01E3C000
01C1C000
03C1C000
0381E000
0380E000
0780F000
0700F000
0FFFF000
0FFFF800
0FFFF800
1E003C00
1C003C00
1C001C00
3C001E00
38001E00
78000E00
78000F00
70000700
F0000780
ENDCHAR
STARTCHAR 0042
ENCODING 66
SWIDTH 642 0
DWIDTH 25 0
BBX 19 28 4 0
BITMAP
FFE000
FFFE00
FFFF80
E01F80
E007C0
E003C0
E001C0
E001C0
E001C0
E003C0
E00380
E00F80
FFFE00
FFF800
FFFF00
E00FC0
E003C0
E001E0
E001E0
E001E0
E001E0
E001E0
E001E0
E003C0
E00FC0
FFFF80
FFFF00
FFF800
ENDCHAR
STARTCHAR 0043
ENCODING 67
SWIDTH 617 0
DWIDTH 24 0
BBX 21 28 2 0
BITMAP
007FE0
01FFF8
07FFF8
0FC070
1F0000
1E0000
3C0000
3C0000
780000
780000
700000
700000
F00000
F00000
F00000
F00000
F00000
700000
780000
780000
780000
3C0000
3E0000
1F0000
0F8010
0FFFF0
03FFF0
00FFF0
ENDCHAR
STARTCHAR 0044
ENCODING 68
SWIDTH 720 0
DWIDTH 28 0
BBX 22 28 4 0
BITMAP
FFF000
FFFE00
FFFF80
E01FC0
E003E0
E001F0
E000F0
E00078
E00078
E0003C
E0003C
E0003C
E0003C
E0003C
E0003C
E0003C
E0003C
E0003C
E0003C
E00078
E00078
E000F0
E001F0
E003E0
E01FC0
FFFF80
FFFE00
FFF000
ENDCHAR
STARTCHAR 0045
ENCODING 69
SWIDTH 540 0
DWIDTH 21 0
BBX 15 28 4 0
BITMAP
FFFE
FFFE
FFFE
E000
E000
E000
E000
E000
E000
E000
E000
E000
FFFE
FFFE
FFFE
E000
E000
E000
E000
E000
E000
E000
E000
E000
E000
FFFE
FFFE
FFFE
ENDCHAR
STARTCHAR 0046
ENCODING 70
SWIDTH 514 0
DWIDTH 20 0
BBX 15 28 4 0
BITMAP
FFFE
FFFE
FFFE
E000
E000
E000
E000
E000
E000
E000
E000
E000
E000
FFFE
FFFE
FFFE
E000
E000
E000
E000
E000
E000
E000
E000
E000
E000
E000
E000
ENDCHAR
STARTCHAR 0047
ENCODING 71
SWIDTH 720 0
DWIDTH 28 0
BBX 23 28 2 0
BITMAP
003FF0
01FFFE
03FFFE
0FE01C
1F8000
1E0000
3C0000
3C0000
780000
780000
700000
700000
F00000
F003FE
F003FE
F003FE
F0000E
70000E
78000E
78000E
78000E
3C000E
3E000E
1F000E
0FC00E
07FFFE
03FFFE
00FFF8
ENDCHAR
STARTCHAR 0048
ENCODING 72
SWIDTH 720 0
DWIDTH 28 0
BBX 21 28 4 0
BITMAP
E00078
E00078
E00078
E00078
E00078
E00078
E00078
E00078
E00078
E00078
E00078
E00078
FFFFF8
FFFFF8
FFFFF8
E00078
E00078
E00078
E00078
E00078
E00078
E00078
E00078
E00078
E00078
E00078
E00078
E00078
ENDCHAR
STARTCHAR 0049
ENCODING 73
SWIDTH 334 0
DWIDTH 13 0
BBX 10 28 2 0
BITMAP
FFC0
FFC0
7F80
1C00
1C00
1C00
1C00
1C00
1C00
1C00
1C00
1C00
1C00
1C00
1C00
1C00
1C00
1C00
1C00
1C00
1C00
1C00
1C00
1C00
1C00
3F00
FFC0
FFC0
ENDCHAR
STARTCHAR 004A
ENCODING 74
SWIDTH 257 0
DWIDTH 10 0
BBX 10 35 -3 -7
BITMAP
01C0
01C0
01C0
01C0
01C0
01C0
01C0
01C0
01C0
01C0
01C0
01C0
01C0
01C0
01C0
01C0
01C0
01C0
01C0
01C0
01C0
01C0
01C0
01C0
01C0
01C0
01C0
01C0
01C0
03C0
03C0
0780
FF80
FF00
FE00
ENDCHAR
STARTCHAR 004B
ENCODING 75
SWIDTH 617 0
DWIDTH 24 0
BBX 20 28 4 0
BITMAP
E001E0
E003E0
E003C0
E00780
E00F00
E01E00
E03C00
E07800
E0F000
E1E000
E3C000
E78000
E78000
EFC000
FFC000
F9E000
F1F000
E0F000
E07800
E03C00
E03E00
E01E00
E00F00
E00780
E007C0
E003C0
E001E0
E000F0
ENDCHAR
STARTCHAR 004C
ENCODING 76
SWIDTH 514 0
DWIDTH 20 0
BBX 15 28 4 0
BITMAP
E000
E000
E000
E000
E000
E000
E000
E000
E000
E000
E000
E000
E000
E000
E000
E000
E000
E000
E000
E000
E000
E000
E000
E000
E000
FFFE
FFFE
FFFE
ENDCHAR
STARTCHAR 004D
ENCODING 77
SWIDTH 900 0
DWIDTH 35 0
BBX 28 28 4 0
BITMAP
F80003F0
F80003F0
FC0007F0
FC0007F0
FE0007F0
EE000EF0
EE000EF0
EF000EF0
E7001CF0
E7001CF0
E7803CF0
E38038F0
E3C038F0
E1C070F0
E1C070F0
E1E070F0
E0E0E0F0
E0E0E0F0
E0F1E0F0
E071C0F0
E079C0F0
E03B80F0
E03B80F0
E03F80F0
E01F00F0
E01F00F0
E01E00F0
E00E00F0
ENDCHAR
STARTCHAR 004E
ENCODING 78
SWIDTH 745 0
DWIDTH 29 0
BBX 22 28 4 0
BITMAP
F0001C
F8001C
F8001C
FC001C
FE001C
FE001C
EF001C
EF801C
E7801C
E3C01C
E3C01C
E1E01C
E0F01C
E0F01C
E0781C
E03C1C
E03C1C
E01E1C
E00F1C
E00F1C
E0079C
E003DC
E003DC
E001FC
E001FC
E000FC
E0007C
E0007C
ENDCHAR
STARTCHAR 004F
ENCODING 79
SWIDTH 771 0
DWIDTH 30 0
BBX 26 28 2 0
BITMAP
00FFC000
03FFF000
07FFFC00
0FC07E00
1F001E00
3E000F00
3C000780
78000780
78000780
780003C0
700003C0
F00003C0
F00003C0
F00003C0
F00003C0
F00003C0
F00003C0
700003C0
780003C0
78000380
78000780
3C000780
3C000F00
1E001E00
0F807E00
07FFFC00
03FFF000
00FFE000
ENDCHAR
STARTCHAR 0050
ENCODING 80
SWIDTH 591 0
DWIDTH 23 0
BBX 18 28 4 0
BITMAP
FFC000
FFFC00
FFFE00
E07F00
E00F80
E00780
E00380
E003C0
E003C0
E00380
E00380
E00780
E00F80
E01F00
FFFE00
FFFC00
FFF000
E00000
E00000
E00000
E00000
E00000
E00000
E00000
E00000
E00000
E00000
E00000
ENDCHAR
STARTCHAR 0051
ENCODING 81
SWIDTH 771 0
DWIDTH 30 0
BBX 26 35 2 -7
BITMAP
00FFC000
03FFF000
07FFFC00
0FC07E00
1F001E00
3E000F00
3C000780
78000780
78000780
780003C0
700003C0
F00003C0
F00003C0
F00003C0
F00003C0
F00003C0
F00003C0
700003C0
780003C0
78000380
78000780
3C000780
3C000F00
1E001F00
0F807E00
07FFFC00
03FFF000
00FFC000
0003E000
0001F000
0000F800
00007C00
00003E00
00001F00
00001F00
ENDCHAR
STARTCHAR 0052
ENCODING 82
SWIDTH 617 0
DWIDTH 24 0
BBX 19 28 4 0
BITMAP
FFC000
FFFC00
FFFE00
E03F00
E00F80
E00780
E00380
E003C0
E003C0
E00380
E00380
E00780
E00F00
E0FE00
FFFC00
FFF000
FFF800
E07800
E03C00
E01C00
E01E00
E00F00
E00F00
E00780
E00780
E003C0
E001E0
E001E0
ENDCHAR
STARTCHAR 0053
ENCODING 83
SWIDTH 540 0
DWIDTH 21 0
BBX 18 28 2 0
BITMAP
07FC00
1FFF80
3FFF00
7C0700
780000
F00000
F00000
F00000
F00000
780000
7C0000
3E0000
1FC000
0FF000
03FC00
00FE00
001F00
000F80
000780
000380
0003C0
000380
000380
000780
C00F00
FFFF00
FFFE00
7FF800
ENDCHAR
STARTCHAR 0054
ENCODING 84
SWIDTH 540 0
DWIDTH 21 0
BBX 21 28 0 0
BITMAP
FFFFF8
FFFFF8
FFFFF8
007800
007800
007800
007800
007800
007800
007800
007800
007800
007800
007800
007800
007800
007800
007800
007800
007800
007800
007800
007800
007800
007800
007800
007800
007800
ENDCHAR
STARTCHAR 0055
ENCODING 85
SWIDTH 720 0
DWIDTH 28 0
BBX 22 28 3 0
BITMAP
F0003C
F0003C
F0003C
F0003C
F0003C
F0003C
F0003C
F0003C
F0003C
F0003C
F0003C
F0003C
F0003C
F0003C
F0003C
F0003C
F0003C
F0003C
F0003C
70003C
70003C
780038
780078
3C0078
3E01F0
1FFFE0
0FFFC0
03FF00
ENDCHAR
STARTCHAR 0056
ENCODING 86
SWIDTH 591 0
DWIDTH 23 0
BBX 23 28 0 0
BITMAP
F0000E
F0001E
70001E
78003C
38003C
3C0038
3C0078
1C0078
1E0070
1E00F0
0E00F0
0F00E0
0F01E0
0701E0
0781C0
0783C0
0383C0
03C380
01C780
01C700
01E700
00EF00
00EE00
00FE00
007E00
007C00
007C00
003C00
ENDCHAR
STARTCHAR 0057
ENCODING 87
SWIDTH 925 0
DWIDTH 36 0
BBX 35 28 1 0
BITMAP
E001E001E0
E001E001C0
F003E003C0
F003F003C0
7003F003C0
7003F00380
7807F80780
7807380780
3807380700
380F3C0700
3C0E1C0F00
3C0E1C0F00
1C0E1C0E00
1C1E1E0E00
1E1C0E1E00
0E1C0E1E00
0E3C0F1C00
0F38071C00
0F38073C00
0738073C00
077807B800
077003B800
07F003B800
03F003F000
03E001F000
03E001F000
03E001F000
01E000E000
ENDCHAR
STARTCHAR 0058
ENCODING 88
SWIDTH 565 0
DWIDTH 22 0
BBX 22 28 0 0
BITMAP
78003C
380078
3C0078
1E00F0
1E00E0
0F01E0
0783C0
078380
03C780
01CF00
01EE00
00FE00
007C00
007800
007C00
00FE00
01EE00
01CF00
03C780
038780
0783C0
0F01E0
0E01E0
1E00F0
3C0070
380078
78003C
F0003C
ENDCHAR
STARTCHAR 0059
ENCODING 89
SWIDTH 565 0
DWIDTH 22 0
BBX 22 28 0 0
BITMAP
F0003C
700038
780078
3C00F0
3C00F0
1E01E0
1E01E0
0F03C0
0F03C0
078780
038700
03CF00
01CE00
01FE00
00FC00
00FC00
007800
007800
007800
007800
007800
007800
007800
007800
007800
007800
007800
007800
ENDCHAR
STARTCHAR 005A
ENCODING 90
SWIDTH 565 0
DWIDTH 22 0
BBX 20 28 1 0
BITMAP
7FFFE0
7FFFE0
7FFFE0
0001E0
0003C0
0003C0
000780
000F00
000F00
001E00
003C00
003C00
007800
00F000
00F000
01E000
03C000
03C000
078000
0F0000
0F0000
1E0000
3C0000
3C0000
780000
FFFFF0
FFFFF0
FFFFF0
ENDCHAR
STARTCHAR 005B
ENCODING 91
SWIDTH 308 0
DWIDTH 12 0
BBX 9 34 3 -6
BITMAP
FF80
FF80
FF80
E000
E000
E000
E000
E000
E000
E000
E000
E000
E000
E000
E000
E000
E000
E000
E000
E000
E000
E000
E000
E000
E000
E000
E000
E000
E000
E000
E000
FF80
FF80
FF80
ENDCHAR
STARTCHAR 005C
ENCODING 92
SWIDTH 360 0
DWIDTH 14 0
BBX 14 28 0 0
BITMAP
F000
7000
7800
3800
3800
3C00
1C00
1C00
1E00
0E00
0F00
0700
0700
0780
0380
0380
03C0
01C0
01E0
00E0
00E0
00F0
0070
0070
0078
0038
003C
001C
ENDCHAR
STARTCHAR 005D
ENCODING 93
SWIDTH 308 0
DWIDTH 12 0
BBX 9 34 1 -6
BITMAP
FF80
FF80
FF80
0780
0780
0780
0780
0780
0780
0780
0780
0780
0780
0780
0780
0780
0780
0780
0780
0780
0780
0780
0780
0780
0780
0780
0780
0780
0780
0780
0780
FF80
FF80
FF80
ENDCHAR
STARTCHAR 005E
ENCODING 94
SWIDTH 565 0
DWIDTH 22 0
BBX 19 18 2 10
BITMAP
01C000
01C000
01E000
03E000
037000
073800
063800
0E1C00
0E1C00
1C0E00
1C0E00
380700
380700
700380
700380
E001C0
E001C0
E000E0
ENDCHAR
STARTCHAR 005F
ENCODING 95
SWIDTH 437 0
DWIDTH 17 0
BBX 17 3 0 -6
BITMAP
FFFF80
FFFF80
FFFF80
ENDCHAR
STARTCHAR 0060
ENCODING 96
SWIDTH 257 0
DWIDTH 10 0
BBX 7 6 2 24
BITMAP
F0
F0
78
3C
1C
0E
ENDCHAR
STARTCHAR 0061
ENCODING 97
SWIDTH 540 0
DWIDTH 21 0
BBX 17 21 2 0
BITMAP
07F800
3FFE00
3FFF00
180F00
000700
000780
000780
000780
001F80
0FFF80
3FFF80
7C0780
F00780
F00780
E00780
E00780
E00F80
F01F80
FCFB80
7FF380
1FE380
ENDCHAR
STARTCHAR 0062
ENCODING 98
SWIDTH 591 0
DWIDTH 23 0
BBX 19 30 3 0
BITMAP
F00000
F00000
F00000
F00000
F00000
F00000
F00000
F00000
F00000
F1FC00
F7FE00
FFFF00
FC0780
F803C0
F803C0
F001C0
F001E0
F001E0
F001E0
F001E0
F001E0
F001E0
F001E0
F001C0
F003C0
F803C0
FC0780
EFBF80
E7FF00
E3FC00
ENDCHAR
STARTCHAR 0063
ENCODING 99
SWIDTH 462 0
DWIDTH 18 0
BBX 15 21 2 0
BITMAP
03FC
0FFE
1FFE
3E00
7800
7800
7000
F000
F000
F000
F000
F000
F000
F000
7000
7800
7800
3C02
1FFE
0FFE
07FC
ENDCHAR
STARTCHAR 0064
ENCODING 100
SWIDTH 591 0
DWIDTH 23 0
BBX 19 30 2 0
BITMAP
0001E0
0001E0
0001E0
0001E0
0001E0
0001E0
0001E0
0001E0
0001E0
07F1E0
0FFDE0
3FFFE0
3C07E0
7803E0
7803E0
7001E0
F001E0
F001E0
F001E0
F001E0
F001E0
F001E0
F001E0
F001E0
7801E0
7803E0
3C07E0
3FBFE0
1FFCE0
07F8E0
ENDCHAR
STARTCHAR 0065
ENCODING 101
SWIDTH 540 0
DWIDTH 21 0
BBX 18 21 2 0
BITMAP
03F800
0FFE00
1FFF00
3C0F80
780780
780380
7003C0
F003C0
F003C0
FFFFC0
FFFFC0
F00000
F00000
F00000
700000
780000
780000
3E0080
1FFF80
0FFF80
03FF00
ENDCHAR
STARTCHAR 0066
ENCODING 102
SWIDTH 334 0
DWIDTH 13 0
BBX 14 30 1 0
BITMAP
00F0
03FC
07FC
0F00
0E00
1E00
1E00
1E00
1E00
3FF0
FFF0
FFF0
1E00
1E00
1E00
1E00
1E00
1E00
1E00
1E00
1E00
1E00
1E00
1E00
1E00
1E00
1E00
1E00
1E00
1E00
ENDCHAR
STARTCHAR 0067
ENCODING 103
SWIDTH 591 0
DWIDTH 23 0
BBX 19 30 2 -9
BITMAP
07F0E0
0FFCE0
1FFFE0
3C07E0
7803E0
7803E0
7001E0
F001E0
F001E0
F001E0
F001E0
F001E0
F001E0
F001E0
7001E0
7001E0
7803E0
3C07E0
3F3FE0
1FFDE0
07F9E0
0001E0
0001E0
0001C0
0001C0
0003C0
200780
3FFF80
3FFF00
1FFC00
ENDCHAR
STARTCHAR 0068
ENCODING 104
SWIDTH 617 0
DWIDTH 24 0
BBX 18 30 3 0
BITMAP
F00000
F00000
F00000
F00000
F00000
F00000
F00000
F00000
F00000
F1FC00
F7FF00
FFFF80
FC0780
F803C0
F803C0
F003C0
F003C0
F003C0
F003C0
F003C0
F003C0
F003C0
F003C0
F003C0
F003C0
F003C0
F003C0
F003C0
F003C0
F003C0
ENDCHAR
STARTCHAR 0069
ENCODING 105
SWIDTH 257 0
DWIDTH 10 0
BBX 4 29 3 0
BITMAP
60
F0
F0
F0
60
00
00
00
F0
F0
F0
F0
F0
F0
F0
F0
F0
F0
F0
F0
F0
F0
F0
F0
F0
F0
F0
F0
F0
ENDCHAR
STARTCHAR 006A
ENCODING 106
SWIDTH 257 0
DWIDTH 10 0
BBX 9 38 -2 -9
BITMAP
0300
0780
0780
0780
0300
0000
0000
0000
0780
0780
0780
0780
0780
0780
0780
0780
0780
0780
0780
0780
0780
0780
0780
0780
0780
0780
0780
0780
0780
0780
0780
0780
0780
0780
0700
FF00
FE00
FC00
ENDCHAR
STARTCHAR 006B
ENCODING 107
SWIDTH 514 0
DWIDTH 20 0
BBX 17 30 3 0
BITMAP
F00000
F00000
F00000
F00000
F00000
F00000
F00000
F00000
F00000
F00F80
F00F00
F01E00
F03C00
F07800
F0F000
F1E000
F3C000
F78000
FF8000
FF8000
FFC000
F9E000
F0F000
F0F800
F07800
F03C00
F01E00
F01F00
F00F00
F00780
ENDCHAR
STARTCHAR 006C
ENCODING 108
SWIDTH 257 0
DWIDTH 10 0
BBX 4 30 3 0
BITMAP
F0
F0
F0
F0
F0
F0
F0
F0
F0
F0
F0
F0
F0
F0
F0
F0
F0
F0
F0
F0
F0
F0
F0
F0
F0
F0
F0
F0
F0
F0
ENDCHAR
STARTCHAR 006D
ENCODING 109
SWIDTH 925 0
DWIDTH 36 0
BBX 30 21 3 0
BITMAP
E1FC0FE0
E7FE3FF0
EFFF7FF8
FC0FE07C
F807C03C
F007C01C
F007801C
F003801C
F003801C
F003801C
F003801C
F003801C
F003801C
F003801C
F003801C
F003801C
F003801C
F003801C
F003801C
F003801C
F003801C
ENDCHAR
STARTCHAR 006E
ENCODING 110
SWIDTH 617 0
DWIDTH 24 0
BBX 18 21 3 0
BITMAP
E1FC00
E7FF00
EFFF80
FC0780
F803C0
F803C0
F003C0
F003C0
F003C0
F003C0
F003C0
F003C0
F003C0
F003C0
F003C0
F003C0
F003C0
F003C0
F003C0
F003C0
F003C0
ENDCHAR
STARTCHAR 006F
ENCODING 111
SWIDTH 591 0
DWIDTH 23 0
BBX 19 21 2 0
BITMAP
03FC00
0FFF00
1FFF80
3C0780
7803C0
7801E0
7001E0
F000E0
F000E0
F000E0
F000E0
F000E0
F000E0
F000E0
7001E0
7801E0
7803C0
3C07C0
1FBF80
0FFF00
07FC00
ENDCHAR
STARTCHAR 0070
ENCODING 112
SWIDTH 591 0
DWIDTH 23 0
BBX 19 30 3 -9
BITMAP
E1FC00
E7FE00
FFFF00
FC0780
F803C0
F803C0
F001C0
F001E0
F001E0
F001E0
F001E0
F001E0
F001E0
F001E0
F001C0
F803C0
F803C0
FC0780
FFBF80
F7FF00
F3FC00
F00000
F00000
F00000
F00000
F00000
F00000
F00000
F00000
F00000
ENDCHAR
STARTCHAR 0071
ENCODING 113
SWIDTH 591 0
DWIDTH 23 0
BBX 19 30 2 -9
BITMAP
07F0E0
0FFCE0
1FFFE0
3C07E0
7803E0
7803E0
7001E0
F001E0
F001E0
F001E0
F001E0
F001E0
F001E0
F001E0
F001E0
7801E0
7803E0
3C07E0
3FBFE0
1FFDE0
07F9E0
0001E0
0001E0
0001E0
0001E0
0001E0
0001E0
0001E0
0001E0
0001E0
ENDCHAR
STARTCHAR 0072
ENCODING 114
SWIDTH 411 0
DWIDTH 16 0
BBX 12 21 3 0
BITMAP
E1F0
E3F0
E7F0
EE00
FC00
F800
F000
F000
F000
F000
F000
F000
F000
F000
F000
F000
F000
F000
F000
F000
F000
ENDCHAR
STARTCHAR 0073
ENCODING 115
SWIDTH 462 0
DWIDTH 18 0
BBX 15 21 2 0
BITMAP
0FF8
3FFC
7FFC
F008
E000
E000
F000
F800
7E00
3FC0
0FF0
03F8
007C
003E
001E
000E
001E
801C
F8FC
FFF8
7FE0
ENDCHAR
STARTCHAR 0074
ENCODING 116
SWIDTH 360 0
DWIDTH 14 0
BBX 12 26 1 0
BITMAP
0C00
0C00
1C00
1C00
1C00
7FF0
FFF0
FFF0
1C00
1C00
1C00
1C00
1C00
1C00
1C00
1C00
1C00
1C00
1C00
1C00
1C00
1C00
1E00
1FB0
0FF0
07F0
ENDCHAR
STARTCHAR 0075
ENCODING 117
SWIDTH 617 0
DWIDTH 24 0
BBX 18 21 3 0
BITMAP
F003C0
F003C0
F003C0
F003C0
F003C0
F003C0
F003C0
F003C0
F003C0
F003C0
F003C0
F003C0
F003C0
F003C0
F003C0
F003C0
F007C0
780FC0
7FFFC0
3FF9C0
1FF1C0
ENDCHAR
STARTCHAR 0076
ENCODING 118
SWIDTH 488 0
DWIDTH 19 0
BBX 20 21 0 0
BITMAP
F000F0
7000E0
7801E0
7801E0
3801C0
3C03C0
3C0380
1C0780
1E0780
0E0700
0E0F00
0F0E00
070E00
071E00
079C00
039C00
03BC00
01F800
01F800
01F000
00F000
ENDCHAR
STARTCHAR 0077
ENCODING 119
SWIDTH 771 0
DWIDTH 30 0
BBX 29 21 1 0
BITMAP
E00F0038
E00F8078
F00F8070
F01F8070
701FC0F0
701DC0F0
783DC0E0
7839C0E0
3838E1E0
3878E1E0
3C70E1C0
1C70F1C0
1C7073C0
1CE07380
1EE07B80
0EE03B80
0EC03F80
0FC03F00
0FC01F00
07C01F00
07801E00
ENDCHAR
STARTCHAR 0078
ENCODING 120
SWIDTH 514 0
DWIDTH 20 0
BBX 19 21 1 0
BITMAP
F003C0
7803C0
3C0780
3C0F00
1E0E00
0F1E00
073C00
07B800
03F800
01F000
01E000
03F000
03F800
07BC00
0F1C00
0E1E00
1E0F00
3C0700
780780
7803C0
F001E0
ENDCHAR
STARTCHAR 0079
ENCODING 121
SWIDTH 488 0
DWIDTH 19 0
BBX 20 30 0 -9
BITMAP
F000F0
7000E0
7801E0
7801E0
3801C0
3C03C0
1C0380
1C0780
1E0780
0E0700
0F0F00
070F00
070E00
079E00
039C00
039C00
01FC00
01F800
01F800
00F800
00F000
00F000
00E000
01E000
01E000
03C000
03C000
DF8000
FF0000
FE0000
ENDCHAR
STARTCHAR 007A
ENCODING 122
SWIDTH 462 0
DWIDTH 18 0
BBX 15 21 2 0
BITMAP
FFFC
FFFC
FFFC
003C
0038
0078
00F0
01E0
01C0
03C0
0780
0700
0F00
1E00
3C00
3800
7800
F000
FFFE
FFFE
FFFE
ENDCHAR
STARTCHAR 007B
ENCODING 123
SWIDTH 360 0
DWIDTH 14 0
BBX 13 34 1 -6
BITMAP
0038
01F8
03F8
07C0
0780
0700
0700
0700
0700
0700
0700
0700
0700
0700
0F00
3E00
FC00
F800
FE00
0F00
0F00
0700
0700
0700
0700
0700
0700
0700
0700
0780
0780
03F8
01F8
0078
ENDCHAR
STARTCHAR 007C
ENCODING 124
SWIDTH 540 0
DWIDTH 21 0
BBX 3 39 9 -9
BITMAP
E0
E0
E0
E0
E0
E0
E0
E0
E0
E0
E0
E0
E0
E0
E0
E0
E0
E0
E0
E0
E0
E0
E0
E0
E0
E0
E0
E0
E0
E0
E0
E0
E0
E0
E0
E0
E0
E0
E0
ENDCHAR
STARTCHAR 007D
ENCODING 125
SWIDTH 360 0
DWIDTH 14 0
BBX 13 34 1 -6
BITMAP
C000
F800
FE00
1E00
0F00
0F00
0700
0700
0700
0700
0700
0700
0700
0700
0780
03E0
01F8
00F8
03F8
0780
0700
0700
0700
0700
0700
0700
0700
0700
0F00
0F00
1E00
FE00
FC00
F000
ENDCHAR
STARTCHAR 007E
ENCODING 126
SWIDTH 565 0
DWIDTH 22 0
BBX 18 5 2 11
BITMAP
3F8040
FFE0C0
FFFFC0
C0FF80
001F00
ENDCHAR
STARTCHAR 00A0
ENCODING 160
SWIDTH 257 0
DWIDTH 10 0
BBX 0 0 0 0
BITMAP
ENDCHAR
STARTCHAR 00A1
ENCODING 161
SWIDTH 257 0
DWIDTH 10 0
BBX 5 28 3 -7
BITMAP
F0
F8
F8
F0
70
00
00
00
60
60
60
60
70
70
70
70
70
70
70
F0
F0
F0
F0
F0
F0
F0
F0
F0
ENDCHAR
STARTCHAR 00A2
ENCODING 162
SWIDTH 565 0
DWIDTH 22 0
BBX 15 28 4 0
BITMAP
01C0
01C0
01C0
07F8
1FFE
3FFC
7C04
7800
F000
F000
E000
E000
E000
E000
E000
E000
E000
E000
F000
F000
7802
3F3E
3FFE
0FFC
01E0
01C0
01C0
01C0
ENDCHAR
STARTCHAR 00A3
ENCODING 163
SWIDTH 565 0
DWIDTH 22 0
BBX 20 28 1 0
BITMAP
00FF00
01FFE0
03FFC0
0780C0
0F0000
0F0000
0F0000
0F0000
0F0000
0F0000
0F0000
0F0000
0F0000
FFFE00
FFFE00
FFFE00
0F0000
0F0000
0F0000
0F0000
0E0000
0E0000
0E0000
1C0000
380000
FFFFF0
FFFFF0
FFFFF0
ENDCHAR
STARTCHAR 00A4
ENCODING 164
SWIDTH 565 0
DWIDTH 22 0
BBX 18 17 2 5
BITMAP
600180
F3FBC0
7FFF80
3E1F00
1C0700
380700
300380
300380
700380
300380
380300
380700
1C0E00
3FFF00
7FFF80
71E3C0
200180
ENDCHAR
STARTCHAR 00A5
ENCODING 165
SWIDTH 565 0
DWIDTH 22 0
BBX 20 28 1 0
BITMAP
E00070
F000F0
7000E0
7801E0
3801C0
3C03C0
1C0380
1E0780
0E0700
0F0F00
070E00
039E00
039C00
01FC00
01F800
1FFFC0
1FFFC0
00F000
00F000
00F000
1FFFC0
1FFFC0
1FFFC0
00F000
00F000
00F000
00F000
00F000
ENDCHAR
STARTCHAR 00A6
ENCODING 166
SWIDTH 540 0
DWIDTH 21 0
BBX 3 39 9 -9
BITMAP
E0
E0
E0
E0
E0
E0
E0
E0
E0
E0
E0
E0
E0
E0
E0
00
00
00
00
00
00
00
00
00
00
E0
E0
E0
E0
E0
E0
E0
E0
E0
E0
E0
E0
E0
E0
ENDCHAR
STARTCHAR 00A7
ENCODING 167
SWIDTH 488 0
DWIDTH 19 0
BBX 15 30 2 0
BITMAP
03F0
1FFE
3FFE
780C
7000
7000
7000
7C00
3F00
1FE0
3FF0
38FC
703E
700E
700E
700E
780E
7C0E
3F1C
0FF8
03F8
00FC
003E
000E
000E
000E
C01E
FCFC
FFF8
3FE0
ENDCHAR
STARTCHAR 00A8
ENCODING 168
SWIDTH 565 0
DWIDTH 22 0
BBX 11 3 6 25
BITMAP
E1E0
E1E0
E1E0
ENDCHAR
STARTCHAR 00A9
ENCODING 169
SWIDTH 822 0
DWIDTH 32 0
BBX 28 28 2 0
BITMAP
003FE000
01FFF800
03C03E00
0F000F00
1C000380
180201C0
301FE0C0
707FE0E0
60786060
60E00070
E0E00030
C1C00030
C1C00030
C1C00030
C1C00030
C1C00030
C1C00030
E0E00030
E0E00070
60F00070
707FE060
303FE0E0
380F81C0
1C000380
0F000700
07C01E00
01FFFC00
007FF000
ENDCHAR
STARTCHAR 00AA
ENCODING 170
SWIDTH 334 0
DWIDTH 13 0
BBX 11 13 1 15
BITMAP
3F80
7FC0
20E0
00E0
0060
0FE0
3FE0
7060
E0E0
E0E0
E1E0
7F60
3E60
ENDCHAR
STARTCHAR 00AB
ENCODING 171
SWIDTH 488 0
DWIDTH 19 0
BBX 16 16 2 2
BITMAP
0706
070F
0E1E
1E1C
3C38
7878
F0F0
E1E0
F0E0
7870
3878
3C3C
1E1E
0F0F
0707
0200
ENDCHAR
STARTCHAR 00AC
ENCODING 172
SWIDTH 565 0
DWIDTH 22 0
BBX 18 10 2 5
BITMAP
FFFFC0
FFFFC0
FFFFC0
0001C0
0001C0
0001C0
0001C0
0001C0
0001C0
0001C0
ENDCHAR
STARTCHAR 00AD
ENCODING 173
SWIDTH 308 0
DWIDTH 12 0
BBX 9 3 2 9
BITMAP
FF80
FF80
FF80
ENDCHAR
STARTCHAR 00AE
ENCODING 174
SWIDTH 822 0
DWIDTH 32 0
BBX 28 28 2 0
BITMAP
003FE000
01FFF800
03C03E00
0F000F00
1C000380
180001C0
307FC0C0
707FE0E0
6070F060
60707070
E0707030
C0707030
C070F030
C07FE030
C07FC030
C07F8030
C071C030
E071C030
E070E070
6070F070
70707060
307078E0
387039C0
1C000380
0F000700
07C01E00
01FFFC00
007FF000
ENDCHAR
STARTCHAR 00AF
ENCODING 175
SWIDTH 488 0
DWIDTH 19 0
BBX 20 2 0 30
BITMAP
FFFFF0
FFFFF0
ENDCHAR
STARTCHAR 00B0
ENCODING 176
SWIDTH 411 0
DWIDTH 16 0
BBX 12 12 2 16
BITMAP
1F80
3FE0
70F0
6070
E030
E030
E030
E030
7070
7FE0
3FC0
0700
ENDCHAR
STARTCHAR 00B1
ENCODING 177
SWIDTH 565 0
DWIDTH 22 0
BBX 18 23 2 0
BITMAP
00C000
00C000
00C000
00C000
00C000
00C000
00C000
00C000
FFFFC0
FFFFC0
FFFFC0
00C000
00C000
00C000
00C000
00C000
00C000
00C000
00C000
000000
FFFFC0
FFFFC0
FFFFC0
ENDCHAR
STARTCHAR 00B2
ENCODING 178
SWIDTH 334 0
DWIDTH 13 0
BBX 11 17 1 16
BITMAP
3F80
7FC0
71E0
40E0
00E0
00E0
00E0
01C0
0380
0700
0E00
1C00
3800
7000
FFE0
FFE0
FFE0
ENDCHAR
STARTCHAR 00B3
ENCODING 179
SWIDTH 334 0
DWIDTH 13 0
BBX 11 17 1 16
BITMAP
3F80
FFC0
E1E0
00E0
00E0
00E0
01C0
3F80
3F80
03E0
00E0
0060
0060
00E0
C1E0
FFC0
7F00
ENDCHAR
STARTCHAR 00B4
ENCODING 180
SWIDTH 257 0
DWIDTH 10 0
BBX 7 6 2 24
BITMAP
1E
1E
3C
78
70
E0
ENDCHAR
STARTCHAR 00B5
ENCODING 181
SWIDTH 617 0
DWIDTH 24 0
BBX 18 30 3 -9
BITMAP
F003C0
F003C0
F003C0
F003C0
F003C0
F003C0
F003C0
F003C0
F003C0
F003C0
F003C0
F003C0
F003C0
F003C0
F003C0
F003C0
F007C0
F80FC0
FF7DC0
FFF9C0
F7F1C0
F00000
F00000
F00000
F00000
F00000
F00000
F00000
F00000
F00000
ENDCHAR
STARTCHAR 00B6
ENCODING 182
SWIDTH 642 0
DWIDTH 25 0
BBX 19 35 2 -5
BITMAP
01FFE0
0FFFE0
1FFFE0
3FF860
7FF860
7FF860
FFF860
FFF860
FFF860
FFF860
FFF860
FFF860
FFF860
FFF860
7FF860
7FF860
7FF860
3FF860
1FF860
03D860
001860
001860
001860
001860
001860
001860
001860
001860
001860
001860
001860
001860
001860
001860
001860
ENDCHAR
STARTCHAR 00B7
ENCODING 183
SWIDTH 257 0
DWIDTH 10 0
BBX 5 5 3 11
BITMAP
F0
F8
F8
F0
70
ENDCHAR
STARTCHAR 00B8
ENCODING 184
SWIDTH 205 0
DWIDTH 8 0
BBX 7 9 1 -9
BITMAP
38
30
78
3E
0E
0E
0E
FE
F8
ENDCHAR
STARTCHAR 00B9
ENCODING 185
SWIDTH 334 0
DWIDTH 13 0
BBX 7 17 2 16
BITMAP
0E
1E
7E
F6
C6
06
06
06
06
06
06
06
06
06
06
06
06
ENDCHAR
STARTCHAR 00BA
ENCODING 186
SWIDTH 360 0
DWIDTH 14 0
BBX 12 13 1 15
BITMAP
1F80
3FE0
70E0
6070
E030
E030
E030
E030
E030
6070
70E0
3FE0
1F80
ENDCHAR
STARTCHAR 00BB
ENCODING 187
SWIDTH 488 0
DWIDTH 19 0
BBX 16 16 2 2
BITMAP
60C0
E0E0
70F0
7878
3C3C
1E1E
0F0E
078F
0F0F
0E1E
1C3C
3C38
7870
F0F0
E1E0
4040
ENDCHAR
STARTCHAR 00BC
ENCODING 188
SWIDTH 720 0
DWIDTH 28 0
BBX 27 28 2 0
BITMAP
0E000E00
1E001C00
7E003800
F6003800
CE007000
0E007000
0E00E000
0E01C000
0E01C000
0E038000
0E038000
0E070700
0E0E0700
0E0E0F00
0E1C1F00
0E183F00
0E383700
00707700
0070E700
00E0C700
01C18700
01C38700
0383FFE0
0383FFE0
07000700
0E000700
0E000700
1C000700
ENDCHAR
STARTCHAR 00BD
ENCODING 189
SWIDTH 745 0
DWIDTH 29 0
BBX 27 28 1 0
BITMAP
07000C00
1F001C00
3F003800
F7003800
E7007000
4700E000
0700E000
0701C000
0701C000
07038000
07070000
07071F80
070E7FC0
070E79E0
071C00E0
07380060
073800E0
007000E0
006000E0
00E001C0
01C00380
01C00700
03800E00
07001C00
07003800
0E007000
0E00FFE0
1C00FFE0
ENDCHAR
STARTCHAR 00BE
ENCODING 190
SWIDTH 771 0
DWIDTH 30 0
BBX 29 28 1 0
BITMAP
3F800380
FFC00380
E1E00700
00E00700
00E00E00
00E01C00
01C01C00
3F803800
3F803000
03C07000
00E0E000
0060E0E0
0061C1E0
00E383E0
C1E383E0
FFC706E0
FF870EE0
000E1CE0
001C18E0
001C38E0
003870E0
003860E0
0070FFF8
00E0FFF8
00E000E0
01C000E0
018000E0
038000E0
ENDCHAR
STARTCHAR 00BF
ENCODING 191
SWIDTH 411 0
DWIDTH 16 0
BBX 15 28 1 -7
BITMAP
01E0
01E0
03E0
01E0
01C0
0000
0000
0000
00C0
00C0
01C0
01C0
03C0
0780
0F00
1E00
3C00
7800
7000
F000
E000
E000
E000
F000
F004
7FFE
3FFE
1FF8
ENDCHAR
STARTCHAR 00C0
ENCODING 192
SWIDTH 617 0
DWIDTH 24 0
BBX 25 37 0 0
BITMAP
01F00000
00F00000
00780000
00380000
001C0000
000E0000
00060000
00000000
00000000
001C0000
003E0000
003E0000
003E0000
00770000
00770000
00F70000
00E38000
00E38000
01E3C000
01C1C000
03C1C000
0381E000
0380E000
0780F000
0700F000
0FFFF000
0FFFF800
0FFFF800
1E003C00
1C003C00
1C001C00
3C001E00
38001E00
78000E00
78000F00
70000700
F0000780
ENDCHAR
STARTCHAR 00C1
ENCODING 193
SWIDTH 617 0
DWIDTH 24 0
BBX 25 37 0 0
BITMAP
0003C000
0007C000
00078000
000F0000
001E0000
001C0000
00380000
00000000
00000000
001C0000
003E0000
003E0000
003E0000
00770000
00770000
00F70000
00E38000
00E38000
01E3C000
01C1C000
03C1C000
0381E000
0380E000
0780F000
0700F000
0FFFF000
0FFFF800
0FFFF800
1E003C00
1C003C00
1C001C00
3C001E00
38001E00
78000E00
78000F00
70000700
F0000780
ENDCHAR
STARTCHAR 00C2
ENCODING 194
SWIDTH 617 0
DWIDTH 24 0
BBX 25 37 0 0
BITMAP
003C0000
003E0000
007F0000
00F78000
01E38000
03C1C000
0300E000
00000000
00000000
001C0000
003E0000
003E0000
003E0000
00770000
00770000
00F70000
00E38000
00E38000
01E3C000
01C1C000
03C1C000
0381E000
0380E000
0780F000
0700F000
0FFFF000
0FFFF800
0FFFF800
1E003C00
1C003C00
1C001C00
3C001E00
38001E00
78000E00
78000F00
70000700
F0000780
ENDCHAR
STARTCHAR 00C3
ENCODING 195
SWIDTH 617 0
DWIDTH 24 0
BBX 25 36 0 0
BITMAP
00003000
01F06000
03FCE000
033FE000
070FC000
06000000
00000000
00000000
001C0000
003E0000
003E0000
003E0000
00770000
00770000
00F70000
00E38000
00E38000
01E3C000
01C1C000
03C1C000
0381E000
0380E000
0780F000
0700F000
0FFFF000
0FFFF800
0FFFF800
1E003C00
1C003C00
1C001C00
3C001E00
38001E00
78000E00
78000F00
70000700
F0000780
ENDCHAR
STARTCHAR 00C4
ENCODING 196
SWIDTH 617 0
DWIDTH 24 0
BBX 25 35 0 0
BITMAP
01C3C000
01E3C000
01C3C000
00000000
00000000
00000000
00000000
001C0000
003E0000
003E0000
003E0000
00770000
00770000
00F70000
00E38000
00E38000
01E3C000
01C1C000
03C1C000
0381E000
0380E000
0780F000
0700F000
0FFFF000
0FFFF800
0FFFF800
1E003C00
1C003C00
1C001C00
3C001E00
38001E00
78000E00
78000F00
70000700
F0000780
ENDCHAR
STARTCHAR 00C5
ENCODING 197
SWIDTH 617 0
DWIDTH 24 0
BBX 25 34 0 0
BITMAP
003E0000
007F0000
00E30000
00C38000
00C38000
00E30000
007F0000
003E0000
003E0000
003E0000
00770000
00770000
00F70000
00E38000
00E38000
01E3C000
01C1C000
03C1C000
0381E000
0380E000
0780F000
0700F000
0FFFF000
0FFFF800
0FFFF800
1E003C00
1C003C00
1C001C00
3C001E00
38001E00
78000E00
78000F00
70000700
F0000780
ENDCHAR
STARTCHAR 00C6
ENCODING 198
SWIDTH 874 0
DWIDTH 34 0
BBX 32 28 0 0
BITMAP
0007FFFF
0007FFFF
000FFFFF
000E7800
001E7800
001C7800
003C7800
00387800
00787800
00707800
00F07800
00E07800
01E07FFE
01C07FFE
03C07FFE
03807800
07FFF800
07FFF800
0FFFF800
0F007800
0E007800
1E007800
1C007800
3C007800
38007800
78007FFF
70007FFF
F0007FFF
ENDCHAR
STARTCHAR 00C7
ENCODING 199
SWIDTH 617 0
DWIDTH 24 0
BBX 21 37 2 -9
BITMAP
007FE0
01FFF8
07FFF8
0FC070
1F0000
1E0000
3C0000
3C0000
780000
780000
700000
700000
F00000
F00000
F00000
F00000
F00000
700000
780000
780000
780000
3C0000
3E0000
1F0000
0F8010
0FFFF0
03FFF0
00FFF0
000C00
001800
001C00
001F00
000700
000300
000700
007F00
007E00
ENDCHAR
STARTCHAR 00C8
ENCODING 200
SWIDTH 540 0
DWIDTH 21 0
BBX 15 37 4 0
BITMAP
1E00
1F00
0F00
0780
0380
01C0
00E0
0000
0000
FFFE
FFFE
FFFE
E000
E000
E000
E000
E000
E000
E000
E000
E000
FFFE
FFFE
FFFE
E000
E000
E000
E000
E000
E000
E000
E000
E000
E000
FFFE
FFFE
FFFE
ENDCHAR
STARTCHAR 00C9
ENCODING 201
SWIDTH 540 0
DWIDTH 21 0
BBX 15 37 4 0
BITMAP
007C
0078
00F0
00E0
01C0
0380
0300
0000
0000
FFFE
FFFE
FFFE
E000
E000
E000
E000
E000
E000
E000
E000
E000
FFFE
FFFE
FFFE
E000
E000
E000
E000
E000
E000
E000
E000
E000
E000
FFFE
FFFE
FFFE
ENDCHAR
STARTCHAR 00CA
ENCODING 202
SWIDTH 540 0
DWIDTH 21 0
BBX 15 37 4 0
BITMAP
03C0
07C0
0FE0
0EF0
1C78
381C
700C
0000
0000
FFFE
FFFE
FFFE
E000
E000
E000
E000
E000
E000
E000
E000
E000
FFFE
FFFE
FFFE
E000
E000
E000
E000
E000
E000
E000
E000
E000
E000
FFFE
FFFE
FFFE
ENDCHAR
STARTCHAR 00CB
ENCODING 203
SWIDTH 540 0
DWIDTH 21 0
BBX 15 35 4 0
BITMAP
1C38
3C38
1C38
0010
0000
0000
0000
FFFE
FFFE
FFFE
E000
E000
E000
E000
E000
E000
E000
E000
E000
FFFE
FFFE
FFFE
E000
E000
E000
E000
E000
E000
E000
E000
E000
E000
FFFE
FFFE
FFFE
ENDCHAR
STARTCHAR 00CC
ENCODING 204
SWIDTH 334 0
DWIDTH 13 0
BBX 10 37 2 0
BITMAP
F000
F000
7800
3C00
1C00
0E00
0600
0000
0000
FFC0
FFC0
7F80
1C00
1C00
1C00
1C00
1C00
1C00
1C00
1C00
1C00
1C00
1C00
1C00
1C00
1C00
1C00
1C00
1C00
1C00
1C00
1C00
1C00
1C00
3F00
FFC0
FFC0
ENDCHAR
STARTCHAR 00CD
ENCODING 205
SWIDTH 334 0
DWIDTH 13 0
BBX 10 37 2 0
BITMAP
03C0
03C0
0780
0F00
0E00
1C00
1800
0000
0000
FFC0
FFC0
7F80
1C00
1C00
1C00
1C00
1C00
1C00
1C00
1C00
1C00
1C00
1C00
1C00
1C00
1C00
1C00
1C00
1C00
1C00
1C00
1C00
1C00
1C00
3F00
FFC0
FFC0
ENDCHAR
STARTCHAR 00CE
ENCODING 206
SWIDTH 334 0
DWIDTH 13 0
BBX 13 37 0 0
BITMAP
0700
0F80
1FC0
3DE0
78F0
7078
C018
0000
0000
3FF0
3FF0
1FE0
0700
0700
0700
0700
0700
0700
0700
0700
0700
0700
0700
0700
0700
0700
0700
0700
0700
0700
0700
0700
0700
0700
0FC0
3FF0
3FF0
ENDCHAR
STARTCHAR 00CF
ENCODING 207
SWIDTH 334 0
DWIDTH 13 0
BBX 11 35 1 0
BITMAP
F0E0
F1E0
F0E0
0000
0000
0000
0000
7FE0
7FE0
3FC0
0E00
0E00
0E00
0E00
0E00
0E00
0E00
0E00
0E00
0E00
0E00
0E00
0E00
0E00
0E00
0E00
0E00
0E00
0E00
0E00
0E00
0E00
1F80
7FE0
7FE0
ENDCHAR
STARTCHAR 00D0
ENCODING 208
SWIDTH 720 0
DWIDTH 28 0
BBX 25 28 1 0
BITMAP
1FFE0000
1FFFC000
1FFFF000
1E03F800
1E007C00
1E003E00
1E001E00
1E000F00
1E000F00
1E000780
1E000780
1E000780
1E000780
FFF80780
FFF80780
FFF80780
1E000780
1E000780
1E000780
1E000F00
1E000F00
1E001E00
1E003E00
1E007C00
1E03F800
1FFFF000
1FFFC000
1FFE0000
ENDCHAR
STARTCHAR 00D1
ENCODING 209
SWIDTH 745 0
DWIDTH 29 0
BBX 22 36 4 0
BITMAP
0000C0
07E0C0
07F9C0
0E7F80
0C1F00
0C0000
000000
000000
F0001C
F8001C
F8001C
FC001C
FE001C
FE001C
EF001C
EF801C
E7801C
E3C01C
E3C01C
E1E01C
E0F01C
E0F01C
E0781C
E03C1C
E03C1C
E01E1C
E00F1C
E00F1C
E0079C
E003DC
E003DC
E001FC
E001FC
E000FC
E0007C
E0007C
ENDCHAR
STARTCHAR 00D2
ENCODING 210
SWIDTH 771 0
DWIDTH 30 0
BBX 26 37 2 0
BITMAP
00F00000
00780000
00380000
003C0000
001E0000
000F0000
00030000
00000000
00000000
00FFC000
03FFF000
07FFFC00
0FC07E00
1F001E00
3E000F00
3C000780
78000780
78000780
780003C0
700003C0
F00003C0
F00003C0
F00003C0
F00003C0
F00003C0
F00003C0
700003C0
780003C0
78000380
78000780
3C000780
3C000F00
1E001E00
0F807E00
07FFFC00
03FFF000
00FFE000
ENDCHAR
STARTCHAR 00D3
ENCODING 211
SWIDTH 771 0
DWIDTH 30 0
BBX 26 37 2 0
BITMAP
0001E000
0003C000
0003C000
00078000
000F0000
000E0000
00180000
00000000
00000000
00FFC000
03FFF000
07FFFC00
0FC07E00
1F001E00
3E000F00
3C000780
78000780
78000780
780003C0
700003C0
F00003C0
F00003C0
F00003C0
F00003C0
F00003C0
F00003C0
700003C0
780003C0
78000380
78000780
3C000780
3C000F00
1E001E00
0F807E00
07FFFC00
03FFF000
00FFE000
ENDCHAR
STARTCHAR 00D4
ENCODING 212
SWIDTH 771 0
DWIDTH 30 0
BBX 26 37 2 0
BITMAP
001E0000
001F0000
003F8000
007B8000
00F1C000
01C0E000
01807000
00000000
00000000
00FFC000
03FFF000
07FFFC00
0FC07E00
1F001E00
3E000F00
3C000780
78000780
78000780
780003C0
700003C0
F00003C0
F00003C0
F00003C0
F00003C0
F00003C0
F00003C0
700003C0
780003C0
78000380
78000780
3C000780
3C000F00
1E001E00
0F807E00
07FFFC00
03FFF000
00FFE000
ENDCHAR
STARTCHAR 00D5
ENCODING 213
SWIDTH 771 0
DWIDTH 30 0
BBX 26 36 2 0
BITMAP
00003000
00F83000
01FE7000
019FE000
0307E000
03000000
00000000
00000000
00FFC000
03FFF000
07FFFC00
0FC07E00
1F001E00
3E000F00
3C000780
78000780
78000780
780003C0
700003C0
F00003C0
F00003C0
F00003C0
F00003C0
F00003C0
F00003C0
700003C0
780003C0
78000380
78000780
3C000780
3C000F00
1E001E00
0F807E00
07FFFC00
03FFF000
00FFE000
ENDCHAR
STARTCHAR 00D6
ENCODING 214
SWIDTH 771 0
DWIDTH 30 0
BBX 26 35 2 0
BITMAP
00E1C000
00E1E000
00E1E000
00000000
00000000
00000000
00000000
00FFC000
03FFF000
07FFFC00
0FC07E00
1F001E00
3E000F00
3C000780
78000780
78000780
780003C0
700003C0
F00003C0
F00003C0
F00003C0
F00003C0
F00003C0
F00003C0
700003C0
780003C0
78000380
78000780
3C000780
3C000F00
1E001E00
0F807E00
07FFFC00
03FFF000
00FFE000
ENDCHAR
STARTCHAR 00D7
ENCODING 215
SWIDTH 565 0
DWIDTH 22 0
BBX 17 17 3 5
BITMAP
400300
E00780
F00F00
781E00
3C3C00
1E7800
0FF000
07E000
03C000
07E000
0FF000
1E7800
3C3C00
781E00
F00F00
E00700
400200
ENDCHAR
STARTCHAR 00D8
ENCODING 216
SWIDTH 771 0
DWIDTH 30 0
BBX 26 30 2 -1
BITMAP
00000200
00FFC700
03FFFF00
07FFFE00
0FC07C00
1F003E00
3E007F00
3C007F00
7800E780
7801E780
7801C3C0
700383C0
F00783C0
F00F03C0
F00E03C0
F01C03C0
F03C03C0
F03803C0
707003C0
78F003C0
79E00380
79C00780
3FC00780
3F800F00
1F001E00
0F807E00
1FFFFC00
1FFFF000
38FFE000
18000000
ENDCHAR
STARTCHAR 00D9
ENCODING 217
SWIDTH 720 0
DWIDTH 28 0
BBX 22 37 3 0
BITMAP
03C000
01E000
00F000
00F000
007800
003C00
000C00
000000
000000
F0003C
F0003C
F0003C
F0003C
F0003C
F0003C
F0003C
F0003C
F0003C
F0003C
F0003C
F0003C
F0003C
F0003C
F0003C
F0003C
F0003C
F0003C
F0003C
70003C
70003C
780038
780078
3C0078
3E01F0
1FFFE0
0FFFC0
03FF00
ENDCHAR
STARTCHAR 00DA
ENCODING 218
SWIDTH 720 0
DWIDTH 28 0
BBX 22 37 3 0
BITMAP
000780
000F00
000F00
001E00
003C00
003800
006000
000000
000000
F0003C
F0003C
F0003C
F0003C
F0003C
F0003C
F0003C
F0003C
F0003C
F0003C
F0003C
F0003C
F0003C
F0003C
F0003C
F0003C
F0003C
F0003C
F0003C
70003C
70003C
780038
780078
3C0078
3E01F0
1FFFE0
0FFFC0
03FF00
ENDCHAR
STARTCHAR 00DB
ENCODING 219
SWIDTH 720 0
DWIDTH 28 0
BBX 22 37 3 0
BITMAP
007800
007C00
00FE00
01EE00
03C700
070380
0601C0
000000
000000
F0003C
F0003C
F0003C
F0003C
F0003C
F0003C
F0003C
F0003C
F0003C
F0003C
F0003C
F0003C
F0003C
F0003C
F0003C
F0003C
F0003C
F0003C
F0003C
70003C
70003C
780038
780078
3C0078
3E01F0
1FFFE0
0FFFC0
03FF00
ENDCHAR
STARTCHAR 00DC
ENCODING 220
SWIDTH 720 0
DWIDTH 28 0
BBX 22 35 3 0
BITMAP
038700
038780
038780
000000
000000
000000
000000
F0003C
F0003C
F0003C
F0003C
F0003C
F0003C
F0003C
F0003C
F0003C
F0003C
F0003C
F0003C
F0003C
F0003C
F0003C
F0003C
F0003C
F0003C
F0003C
70003C
70003C
780038
780078
3C0078
3E01F0
1FFFE0
0FFFC0
03FF00
ENDCHAR
STARTCHAR 00DD
ENCODING 221
SWIDTH 565 0
DWIDTH 22 0
BBX 22 37 0 0
BITMAP
000780
000F00
001E00
001C00
003800
007000
006000
000000
000000
F0003C
700038
780078
3C00F0
3C00F0
1E01E0
1E01E0
0F03C0
0F03C0
078780
038700
03CF00
01CE00
01FE00
00FC00
00FC00
007800
007800
007800
007800
007800
007800
007800
007800
007800
007800
007800
007800
ENDCHAR
STARTCHAR 00DE
ENCODING 222
SWIDTH 591 0
DWIDTH 23 0
BBX 18 28 4 0
BITMAP
E00000
E00000
E00000
E00000
E00000
FFE000
FFFC00
FFFE00
E03F00
E00F80
E00780
E00380
E003C0
E003C0
E00380
E00380
E00780
E00F80
E03F00
FFFE00
FFFC00
FFE000
E00000
E00000
E00000
E00000
E00000
E00000
ENDCHAR
STARTCHAR 00DF
ENCODING 223
SWIDTH 617 0
DWIDTH 24 0
BBX 20 30 3 0
BITMAP
03E000
1FFE00
3FFF00
7C0F80
780780
F00380
F00380
F00380
F00780
F00F00
F01E00
F07C00
F07800
F07000
F07000
F07800
F07C00
F03E00
F01F80
F007C0
F003E0
F001E0
F000F0
F000F0
F000F0
F000F0
F100E0
F1E7E0
F1FFC0
F0FF80
ENDCHAR
STARTCHAR 00E0
ENCODING 224
SWIDTH 540 0
DWIDTH 21 0
BBX 17 30 2 0
BITMAP
0F0000
078000
078000
03C000
01E000
00E000
000000
000000
000000
07F800
3FFE00
3FFF00
180F00
000700
000780
000780
000780
001F80
0FFF80
3FFF80
7C0780
F00780
F00780
E00780
E00780
E00F80
F01F80
FCFB80
7FF380
1FE380
ENDCHAR
STARTCHAR 00E1
ENCODING 225
SWIDTH 540 0
DWIDTH 21 0
BBX 17 30 2 0
BITMAP
003E00
003C00
007800
007000
00E000
01C000
000000
000000
000000
07F800
3FFE00
3FFF00
180F00
000700
000780
000780
000780
001F80
0FFF80
3FFF80
7C0780
F00780
F00780
E00780
E00780
E00F80
F01F80
FCFB80
7FF380
1FE380
ENDCHAR
STARTCHAR 00E2
ENCODING 226
SWIDTH 540 0
DWIDTH 21 0
BBX 17 30 2 0
BITMAP
01E000
03E000
07F000
077800
0E3C00
1C0E00
000000
000000
000000
07F800
3FFE00
3FFF00
180F00
000700
000780
000780
000780
001F80
0FFF80
3FFF80
7C0780
F00780
F00780
E00780
E00780
E00F80
F01F80
FCFB80
7FF380
1FE380
ENDCHAR
STARTCHAR 00E3
ENCODING 227
SWIDTH 540 0
DWIDTH 21 0
BBX 17 29 2 0
BITMAP
000300
1F8300
1FE700
39FE00
307C00
000000
000000
000000
07F800
3FFE00
3FFF00
180F00
000700
000780
000780
000780
001F80
0FFF80
3FFF80
7C0780
F00780
F00780
E00780
E00780
E00F80
F01F80
FCFB80
7FF380
1FE380
ENDCHAR
STARTCHAR 00E4
ENCODING 228
SWIDTH 540 0
DWIDTH 21 0
BBX 17 28 2 0
BITMAP
0E1C00
1E1C00
0E1C00
000000
000000
000000
000000
07F800
3FFE00
3FFF00
180F00
000700
000780
000780
000780
001F80
0FFF80
3FFF80
7C0780
F00780
F00780
E00780
E00780
E00F80
F01F80
FCFB80
7FF380
1FE380
ENDCHAR
STARTCHAR 00E5
ENCODING 229
SWIDTH 540 0
DWIDTH 21 0
BBX 17 32 2 0
BITMAP
01E000
03F000
073800
061800
061800
061800
07F800
03F000
000000
000000
000000
07F800
3FFE00
3FFF00
180F00
000700
000780
000780
000780
001F80
0FFF80
3FFF80
7C0780
F00780
F00780
E00780
E00780
E00F80
F01F80
FCFB80
7FF380
1FE380
ENDCHAR
STARTCHAR 00E6
ENCODING 230
SWIDTH 848 0
DWIDTH 33 0
BBX 30 21 2 0
BITMAP
0FF03F80
3FFCFFE0
3FFEFFF0
301FC0F0
000FC078
00078038
00078038
0007003C
001F003C
0FFFFFFC
3FFFFFFC
7C070000
F0070000
F0070000
E00F8000
E00F8000
E00FC000
F01DE008
FCF9FFF8
7FF0FFF8
1FE03FF0
ENDCHAR
STARTCHAR 00E7
ENCODING 231
SWIDTH 462 0
DWIDTH 18 0
BBX 15 30 2 -9
BITMAP
03FC
0FFE
1FFE
3E00
7800
7800
7000
F000
F000
F000
F000
F000
F000
F000
7000
7800
7800
3C02
1FFE
0FFE
07FE
00C0
01C0
01E0
01F0
0038
0038
0038
07F0
07E0
ENDCHAR
STARTCHAR 00E8
ENCODING 232
SWIDTH 540 0
DWIDTH 21 0
BBX 18 30 2 0
BITMAP
0F0000
078000
038000
03C000
01E000
00E000
000000
000000
000000
03F800
0FFE00
1FFF00
3C0F80
780780
780380
7003C0
F003C0
F003C0
FFFFC0
FFFFC0
F00000
F00000
F00000
700000
780000
780000
3E0080
1FFF80
0FFF80
03FF00
ENDCHAR
STARTCHAR 00E9
ENCODING 233
SWIDTH 540 0
DWIDTH 21 0
BBX 18 30 2 0
BITMAP
001E00
003C00
007800
007000
00E000
01C000
000000
000000
000000
03F800
0FFE00
1FFF00
3C0F80
780780
780380
7003C0
F003C0
F003C0
FFFFC0
FFFFC0
F00000
F00000
F00000
700000
780000
780000
3E0080
1FFF80
0FFF80
03FF00
ENDCHAR
STARTCHAR 00EA
ENCODING 234
SWIDTH 540 0
DWIDTH 21 0
BBX 18 30 2 0
BITMAP
01E000
03F000
03F000
073800
0E1C00
1C0E00
000000
000000
000000
03F800
0FFE00
1FFF00
3C0F80
780780
780380
7003C0
F003C0
F003C0
FFFFC0
FFFFC0
F00000
F00000
F00000
700000
780000
780000
3E0080
1FFF80
0FFF80
03FF00
ENDCHAR
STARTCHAR 00EB
ENCODING 235
SWIDTH 540 0
DWIDTH 21 0
BBX 18 28 2 0
BITMAP
0E1C00
0E1E00
0E1C00
000000
000000
000000
000000
03F800
0FFE00
1FFF00
3C0F80
780780
780380
7003C0
F003C0
F003C0
FFFFC0
FFFFC0
F00000
F00000
F00000
700000
780000
780000
3E0080
1FFF80
0FFF80
03FF00
ENDCHAR
STARTCHAR 00EC
ENCODING 236
SWIDTH 257 0
DWIDTH 10 0
BBX 7 30 0 0
BITMAP
F0
78
78
3C
1E
0E
00
00
00
1E
1E
1E
1E
1E
1E
1E
1E
1E
1E
1E
1E
1E
1E
1E
1E
1E
1E
1E
1E
1E
ENDCHAR
STARTCHAR 00ED
ENCODING 237
SWIDTH 257 0
DWIDTH 10 0
BBX 8 30 3 0
BITMAP
1F
1E
3C
38
70
E0
00
00
00
F0
F0
F0
F0
F0
F0
F0
F0
F0
F0
F0
F0
F0
F0
F0
F0
F0
F0
F0
F0
F0
ENDCHAR
STARTCHAR 00EE
ENCODING 238
SWIDTH 257 0
DWIDTH 10 0
BBX 12 30 -1 0
BITMAP
0F00
1F80
1F80
3BC0
70E0
E070
0000
0000
0000
0F00
0F00
0F00
0F00
0F00
0F00
0F00
0F00
0F00
0F00
0F00
0F00
0F00
0F00
0F00
0F00
0F00
0F00
0F00
0F00
0F00
ENDCHAR
STARTCHAR 00EF
ENCODING 239
SWIDTH 257 0
DWIDTH 10 0
BBX 10 28 0 0
BITMAP
E1C0
E1C0
E1C0
0000
0000
0000
0000
1E00
1E00
1E00
1E00
1E00
1E00
1E00
1E00
1E00
1E00
1E00
1E00
1E00
1E00
1E00
1E00
1E00
1E00
1E00
1E00
1E00
ENDCHAR
STARTCHAR 00F0
ENCODING 240
SWIDTH 591 0
DWIDTH 23 0
BBX 19 30 2 0
BITMAP
020000
038380
07EF80
01FF00
00FC00
01FC00
07DE00
0F8F00
060700
000780
0003C0
0001C0
07FDC0
1FFFE0
3F9FE0
7C03E0
7801E0
7001E0
F000E0
F000E0
F000E0
F000E0
F000E0
F000E0
7001E0
7801C0
3C03C0
3FBF80
0FFF00
07FC00
ENDCHAR
STARTCHAR 00F1
ENCODING 241
SWIDTH 617 0
DWIDTH 24 0
BBX 18 29 3 0
BITMAP
020300
0F8300
1FE700
39FE00
307C00
000000
000000
000000
E1FC00
E7FF00
EFFF80
FC0780
F803C0
F803C0
F003C0
F003C0
F003C0
F003C0
F003C0
F003C0
F003C0
F003C0
F003C0
F003C0
F003C0
F003C0
F003C0
F003C0
F003C0
ENDCHAR
STARTCHAR 00F2
ENCODING 242
SWIDTH 591 0
DWIDTH 23 0
BBX 19 30 2 0
BITMAP
078000
07C000
03C000
01E000
00E000
007000
000000
000000
000000
03FC00
0FFF00
1FFF80
3C0780
7803C0
7801E0
7001E0
F000E0
F000E0
F000E0
F000E0
F000E0
F000E0
F000E0
7001E0
7801E0
7803C0
3C07C0
1FBF80
0FFF00
07FC00
ENDCHAR
STARTCHAR 00F3
ENCODING 243
SWIDTH 591 0
DWIDTH 23 0
BBX 19 30 2 0
BITMAP
001F00
001E00
003C00
007800
007000
00E000
000000
000000
000000
03FC00
0FFF00
1FFF80
3C0780
7803C0
7801E0
7001E0
F000E0
F000E0
F000E0
F000E0
F000E0
F000E0
F000E0
7001E0
7801E0
7803C0
3C07C0
1FBF80
0FFF00
07FC00
ENDCHAR
STARTCHAR 00F4
ENCODING 244
SWIDTH 591 0
DWIDTH 23 0
BBX 19 30 2 0
BITMAP
00F000
01F000
03F800
07BC00
071E00
0E0700
000000
000000
000000
03FC00
0FFF00
1FFF80
3C0780
7803C0
7801E0
7001E0
F000E0
F000E0
F000E0
F000E0
F000E0
F000E0
F000E0
7001E0
7801E0
7803C0
3C07C0
1FBF80
0FFF00
07FC00
ENDCHAR
STARTCHAR 00F5
ENCODING 245
SWIDTH 591 0
DWIDTH 23 0
BBX 19 29 2 0
BITMAP
010180
0FC180
1FF300
1CFF00
183E00
000000
000000
000000
03FC00
0FFF00
1FFF80
3C0780
7803C0
7801E0
7001E0
F000E0
F000E0
F000E0
F000E0
F000E0
F000E0
F000E0
7001E0
7801E0
7803C0
3C07C0
1FBF80
0FFF00
07FC00
ENDCHAR
STARTCHAR 00F6
ENCODING 246
SWIDTH 591 0
DWIDTH 23 0
BBX 19 28 2 0
BITMAP
070E00
0F0E00
070E00
000000
000000
000000
000000
03FC00
0FFF00
1FFF80
3C0780
7803C0
7801E0
7001E0
F000E0
F000E0
F000E0
F000E0
F000E0
F000E0
F000E0
7001E0
7801E0
7803C0
3C07C0
1FBF80
0FFF00
07FC00
ENDCHAR
STARTCHAR 00F7
ENCODING 247
SWIDTH 565 0
DWIDTH 22 0
BBX 18 18 2 5
BITMAP
00C000
01E000
01E000
01E000
00E000
000000
000000
000000
FFFFC0
FFFFC0
FFFFC0
000000
000000
000000
01E000
01E000
01E000
01E000
ENDCHAR
STARTCHAR 00F8
ENCODING 248
SWIDTH 591 0
DWIDTH 23 0
BBX 19 23 2 -1
BITMAP
000080
03FDE0
0FFFC0
1FFF80
3C0780
7807C0
780FC0
701DE0
F03CE0
F038E0
F070E0
F0F0E0
F1E0E0
F1C0E0
F380E0
7781E0
7F01E0
7E03C0
3E07C0
1FBF80
3FFF00
77FC00
300000
ENDCHAR
STARTCHAR 00F9
ENCODING 249
SWIDTH 617 0
DWIDTH 24 0
BBX 18 30 3 0
BITMAP
0F0000
078000
078000
03C000
01E000
00E000
000000
000000
000000
F003C0
F003C0
F003C0
F003C0
F003C0
F003C0
F003C0
F003C0
F003C0
F003C0
F003C0
F003C0
F003C0
F003C0
F003C0
F003C0
F007C0
780FC0
7FFFC0
3FF9C0
1FF1C0
ENDCHAR
STARTCHAR 00FA
ENCODING 250
SWIDTH 617 0
DWIDTH 24 0
BBX 18 30 3 0
BITMAP
003E00
003C00
007800
007000
00E000
01C000
000000
000000
000000
F003C0
F003C0
F003C0
F003C0
F003C0
F003C0
F003C0
F003C0
F003C0
F003C0
F003C0
F003C0
F003C0
F003C0
F003C0
F003C0
F007C0
780FC0
7FFFC0
3FF9C0
1FF1C0
ENDCHAR
STARTCHAR 00FB
ENCODING 251
SWIDTH 617 0
DWIDTH 24 0
BBX 18 30 3 0
BITMAP
01E000
03F000
03F000
077800
0E1C00
1C0E00
000000
000000
000000
F003C0
F003C0
F003C0
F003C0
F003C0
F003C0
F003C0
F003C0
F003C0
F003C0
F003C0
F003C0
F003C0
F003C0
F003C0
F003C0
F007C0
780FC0
7FFFC0
3FF9C0
1FF1C0
ENDCHAR
STARTCHAR 00FC
ENCODING 252
SWIDTH 617 0
DWIDTH 24 0
BBX 18 28 3 0
BITMAP
0E1C00
0E1C00
0E1C00
000000
000000
000000
000000
F003C0
F003C0
F003C0
F003C0
F003C0
F003C0
F003C0
F003C0
F003C0
F003C0
F003C0
F003C0
F003C0
F003C0
F003C0
F003C0
F007C0
780FC0
7FFFC0
3FF9C0
1FF1C0
ENDCHAR
STARTCHAR 00FD
ENCODING 253
SWIDTH 488 0
DWIDTH 19 0
BBX 20 39 0 -9
BITMAP
001F00
001E00
003C00
003800
007000
00E000
000000
000000
000000
F000F0
7000E0
7801E0
7801E0
3801C0
3C03C0
1C0380
1C0780
1E0780
0E0700
0F0F00
070F00
070E00
079E00
039C00
039C00
01FC00
01F800
01F800
00F800
00F000
00F000
00E000
01E000
01E000
03C000
03C000
DF8000
FF0000
FE0000
ENDCHAR
STARTCHAR 00FE
ENCODING 254
SWIDTH 591 0
DWIDTH 23 0
BBX 19 39 3 -9
BITMAP
F00000
F00000
F00000
F00000
F00000
F00000
F00000
F00000
F00000
F1FC00
F7FE00
FFFF00
FC0780
F803C0
F803C0
F001C0
F001E0
F001E0
F001E0
F001E0
F001E0
F001E0
F001E0
F001C0
F803C0
F803C0
FC0780
FFBF80
F7FF00
F3FC00
F00000
F00000
F00000
F00000
F00000
F00000
F00000
F00000
F00000
ENDCHAR
STARTCHAR 00FF
ENCODING 255
SWIDTH 488 0
DWIDTH 19 0
BBX 20 37 0 -9
BITMAP
070E00
0F0E00
070E00
000000
000000
000000
000000
F000F0
7000E0
7801E0
7801E0
3801C0
3C03C0
1C0380
1C0780
1E0780
0E0700
0F0F00
070F00
070E00
079E00
039C00
039C00
01FC00
01F800
01F800
00F800
00F000
00F000
00E000
01E000
01E000
03C000
03C000
DF8000
FF0000
FE0000
ENDCHAR
STARTCHAR 0100
ENCODING 256
SWIDTH 617 0
DWIDTH 24 0
BBX 25 33 0 0
BITMAP
01FFC000
01FFC000
01FFC000
00000000
00000000
001C0000
003E0000
003E0000
003E0000
00770000
00770000
00F70000
00E38000
00E38000
01E3C000
01C1C000
03C1C000
0381E000
0380E000
0780F000
0700F000
0FFFF000
0FFFF800
0FFFF800
1E003C00
1C003C00
1C001C00
3C001E00
38001E00
78000E00
78000F00
70000700
F0000780
ENDCHAR
STARTCHAR 0101
ENCODING 257
SWIDTH 540 0
DWIDTH 21 0
BBX 17 26 2 0
BITMAP
1FFE00
1FFE00
000000
000000
000000
07F800
3FFE00
3FFF00
180F00
000700
000780
000780
000780
001F80
0FFF80
3FFF80
7C0780
F00780
F00780
E00780
E00780
E00F80
F01F80
FCFB80
7FF380
1FE380
ENDCHAR
STARTCHAR 0102
ENCODING 258
SWIDTH 617 0
DWIDTH 24 0
BBX 25 36 0 0
BITMAP
0300C000
0380C000
01E3C000
01FF8000
00FF0000
00100000
00000000
00000000
001C0000
003E0000
003E0000
003E0000
00770000
00770000
00F70000
00E38000
00E38000
01E3C000
01C1C000
03C1C000
0381E000
0380E000
0780F000
0700F000
0FFFF000
0FFFF800
0FFFF800
1E003C00
1C003C00
1C001C00
3C001E00
38001E00
78000E00
78000F00
70000700
F0000780
ENDCHAR
STARTCHAR 0103
ENCODING 259
SWIDTH 540 0
DWIDTH 21 0
BBX 17 29 2 0
BITMAP
180600
180E00
1F3C00
0FFC00
07F800
000000
000000
000000
07F800
3FFE00
3FFF00
180F00
000700
000780
000780
000780
001F80
0FFF80
3FFF80
7C0780
F00780
F00780
E00780
E00780
E00F80
F01F80
FCFB80
7FF380
1FE380
ENDCHAR
STARTCHAR 0104
ENCODING 260
SWIDTH 617 0
DWIDTH 24 0
BBX 25 37 0 -9
BITMAP
001C0000
003E0000
003E0000
003E0000
00770000
00770000
00F70000
00E38000
00E38000
01E3C000
01C1C000
03C1C000
0381E000
0380E000
0780F000
0700F000
0FFFF000
0FFFF800
0FFFF800
1E003C00
1C003C00
1C001C00
3C001E00
38001E00
78000E00
78000F00
70000700
F0000780
00000600
00000C00
00001C00
00001800
00003800
00003800
00001F80
00001F80
00000300
ENDCHAR
STARTCHAR 0105
ENCODING 261
SWIDTH 540 0
DWIDTH 21 0
BBX 18 30 2 -9
BITMAP
07F800
3FFE00
3FFF00
180F00
000700
000780
000780
000780
001F80
0FFF80
3FFF80
7C0780
F00780
F00780
E00780
E00780
E00F80
F01F80
FCFB80
7FF380
1FE380
000300
000600
000E00
001C00
001C00
001C00
001FC0
000FC0
000100
ENDCHAR
STARTCHAR 0106
ENCODING 262
SWIDTH 617 0
DWIDTH 24 0
BBX 21 37 2 0
BITMAP
0003E0
0003C0
000780
000F00
000E00
001C00
001800
000000
000000
007FE0
01FFF8
07FFF8
0FC070
1F0000
1E0000
3C0000
3C0000
780000
780000
700000
700000
F00000
F00000
F00000
F00000
F00000
700000
780000
780000
780000
3C0000
3E0000
1F0000
0F8010
0FFFF0
03FFF0
00FFF0
ENDCHAR
STARTCHAR 0107
ENCODING 263
SWIDTH 462 0
DWIDTH 18 0
BBX 15 30 2 0
BITMAP
001E
003C
0078
0070
00E0
01C0
0000
0000
0000
03FC
0FFE
1FFE
3E00
7800
7800
7000
F000
F000
F000
F000
F000
F000
F000
7000
7800
7800
3C02
1FFE
0FFE
07FC
ENDCHAR
STARTCHAR 0108
ENCODING 264
SWIDTH 617 0
DWIDTH 24 0
BBX 21 37 2 0
BITMAP
001E00
003E00
007F00
007780
00E3C0
01C1E0
038060
000000
000000
007FE0
01FFF8
07FFF8
0FC070
1F0000
1E0000
3C0000
3C0000
780000
780000
700000
700000
F00000
F00000
F00000
F00000
F00000
700000
780000
780000
780000
3C0000
3E0000
1F0000
0F8010
0FFFF0
03FFF0
00FFF0
ENDCHAR
STARTCHAR 0109
ENCODING 265
SWIDTH 462 0
DWIDTH 18 0
BBX 15 30 2 0
BITMAP
01E0
03F0
03F0
0738
0E1C
1C0E
0000
0000
0000
03FC
0FFE
1FFE
3E00
7800
7800
7000
F000
F000
F000
F000
F000
F000
F000
7000
7800
7800
3C02
1FFE
0FFE
07FC
ENDCHAR
STARTCHAR 010A
ENCODING 266
SWIDTH 617 0
DWIDTH 24 0
BBX 21 36 2 0
BITMAP
000800
001E00
001E00
001E00
000C00
000000
000000
000000
007FE0
01FFF8
07FFF8
0FC070
1F0000
1E0000
3C0000
3C0000
780000
780000
700000
700000
F00000
F00000
F00000
F00000
F00000
700000
780000
780000
780000
3C0000
3E0000
1F0000
0F8010
0FFFF0
03FFF0
00FFF0
ENDCHAR
STARTCHAR 010B
ENCODING 267
SWIDTH 462 0
DWIDTH 18 0
BBX 15 29 2 0
BITMAP
00C0
01E0
01E0
01E0
00C0
0000
0000
0000
03FC
0FFE
1FFE
3E00
7800
7800
7000
F000
F000
F000
F000
F000
F000
F000
7000
7800
7800
3C02
1FFE
0FFE
07FC
ENDCHAR
STARTCHAR 010C
ENCODING 268
SWIDTH 617 0
DWIDTH 24 0
BBX 21 37 2 0
BITMAP
038060
01C1E0
00E3C0
007780
003F00
003E00
001E00
000000
000000
007FE0
01FFF8
07FFF8
0FC070
1F0000
1E0000
3C0000
3C0000
780000
780000
700000
700000
F00000
F00000
F00000
F00000
F00000
700000
780000
780000
780000
3C0000
3E0000
1F0000
0F8010
0FFFF0
03FFF0
00FFF0
ENDCHAR
STARTCHAR 010D
ENCODING 269
SWIDTH 462 0
DWIDTH 18 0
BBX 16 30 2 0
BITMAP
3807
1E1E
0F3C
07F8
03F0
01E0
0000
0000
0000
03FC
0FFE
1FFE
3E00
7800
7800
7000
F000
F000
F000
F000
F000
F000
F000
7000
7800
7800
3C02
1FFE
0FFE
07FC
ENDCHAR
STARTCHAR 010E
ENCODING 270
SWIDTH 720 0
DWIDTH 28 0
BBX 22 37 4 0
BITMAP
1C0380
0E0700
079E00
03FC00
01F800
00F000
00F000
000000
000000
FFF000
FFFE00
FFFF80
E01FC0
E003E0
E001F0
E000F0
E00078
E00078
E0003C
E0003C
E0003C
E0003C
E0003C
E0003C
E0003C
E0003C
E0003C
E0003C
E00078
E00078
E000F0
E001F0
E003E0
E01FC0
FFFF80
FFFE00
FFF000
ENDCHAR
STARTCHAR 010F
ENCODING 271
SWIDTH 591 0
DWIDTH 23 0
BBX 25 30 2 0
BITMAP
0001E780
0001E780
0001E700
0001E700
0001E600
0001EE00
0001EC00
0001E000
0001E000
07F1E000
0FFDE000
3FFFE000
3C07E000
7803E000
7803E000
7001E000
F001E000
F001E000
F001E000
F001E000
F001E000
F001E000
F001E000
F001E000
7801E000
7803E000
3C07E000
3FBFE000
1FFCE000
07F8E000
ENDCHAR
STARTCHAR 0110
ENCODING 272
SWIDTH 720 0
DWIDTH 28 0
BBX 25 28 1 0
BITMAP
1FFE0000
1FFFC000
1FFFF000
1E03F800
1E007C00
1E003E00
1E001E00
1E000F00
1E000F00
1E000780
1E000780
1E000780
1E000780
FFF80780
FFF80780
FFF80780
1E000780
1E000780
1E000780
1E000F00
1E000F00
1E001E00
1E003E00
1E007C00
1E03F800
1FFFF000
1FFFC000
1FFE0000
ENDCHAR
STARTCHAR 0111
ENCODING 273
SWIDTH 617 0
DWIDTH 24 0
BBX 22 30 2 0
BITMAP
0001E0
0001E0
0001E0
0001E0
01FFFC
01FFFC
0001E0
0001E0
0001E0
07F1E0
0FFDE0
1FFFE0
3C07E0
7803E0
7803E0
7001E0
F001E0
F001E0
F001E0
F001E0
F001E0
F001E0
F001E0
F001E0
7801E0
7803E0
3C07E0
3FBFE0
1FFCE0
07F8E0
ENDCHAR
STARTCHAR 0112
ENCODING 274
SWIDTH 540 0
DWIDTH 21 0
BBX 15 33 4 0
BITMAP
3FFC
3FFC
3FFC
0000
0000
FFFE
FFFE
FFFE
E000
E000
E000
E000
E000
E000
E000
E000
E000
FFFE
FFFE
FFFE
E000
E000
E000
E000
E000
E000
E000
E000
E000
E000
FFFE
FFFE
FFFE
ENDCHAR
STARTCHAR 0113
ENCODING 275
SWIDTH 540 0
DWIDTH 21 0
BBX 18 26 2 0
BITMAP
1FFE00
1FFE00
000000
000000
000000
03F800
0FFE00
1FFF00
3C0F80
780780
780380
7003C0
F003C0
F003C0
FFFFC0
FFFFC0
F00000
F00000
F00000
700000
780000
780000
3E0080
1FFF80
0FFF80
03FF00
ENDCHAR
STARTCHAR 0114
ENCODING 276
SWIDTH 540 0
DWIDTH 21 0
BBX 15 36 4 0
BITMAP
300C
301C
3C78
1FF8
0FF0
0000
0000
0000
FFFE
FFFE
FFFE
E000
E000
E000
E000
E000
E000
E000
E000
E000
FFFE
FFFE
FFFE
E000
E000
E000
E000
E000
E000
E000
E000
E000
E000
FFFE
FFFE
FFFE
ENDCHAR
STARTCHAR 0115
ENCODING 277
SWIDTH 540 0
DWIDTH 21 0
BBX 18 29 2 0
BITMAP
180600
180600
0F3C00
0FFC00
07F800
000000
000000
000000
03F800
0FFE00
1FFF00
3C0F80
780780
780380
7003C0
F003C0
F003C0
FFFFC0
FFFFC0
F00000
F00000
F00000
700000
780000
780000
3E0080
1FFF80
0FFF80
03FF00
ENDCHAR
STARTCHAR 0116
ENCODING 278
SWIDTH 540 0
DWIDTH 21 0
BBX 15 36 4 0
BITMAP
0100
03C0
03C0
03C0
0180
0000
0000
0000
FFFE
FFFE
FFFE
E000
E000
E000
E000
E000
E000
E000
E000
E000
FFFE
FFFE
FFFE
E000
E000
E000
E000
E000
E000
E000
E000
E000
E000
FFFE
FFFE
FFFE
ENDCHAR
STARTCHAR 0117
ENCODING 279
SWIDTH 540 0
DWIDTH 21 0
BBX 18 29 2 0
BITMAP
00C000
01E000
01E000
01E000
00C000
000000
000000
000000
03F800
0FFE00
1FFF00
3C0F80
780780
780380
7003C0
F003C0
F003C0
FFFFC0
FFFFC0
F00000
F00000
F00000
700000
780000
780000
3E0080
1FFF80
0FFF80
03FF00
ENDCHAR
STARTCHAR 0118
ENCODING 280
SWIDTH 540 0
DWIDTH 21 0
BBX 15 37 4 -9
BITMAP
FFFE
FFFE
FFFE
E000
E000
E000
E000
E000
E000
E000
E000
E000
FFFE
FFFE
FFFE
E000
E000
E000
E000
E000
E000
E000
E000
E000
E000
FFFE
FFFE
FFFE
001C
0038
0070
0070
0060
0070
007E
003E
000C
ENDCHAR
STARTCHAR 0119
ENCODING 281
SWIDTH 540 0
DWIDTH 21 0
BBX 18 30 2 -9
BITMAP
03F800
0FFE00
1FFF00
3C0F80
780780
780380
7003C0
F003C0
F003C0
FFFFC0
FFFFC0
F00000
F00000
F00000
700000
780000
780000
3E0080
1FFF80
0FFF80
03FF00
000600
000C00
001C00
001800
003800
003800
001F80
001F80
000200
ENDCHAR
STARTCHAR 011A
ENCODING 282
SWIDTH 540 0
DWIDTH 21 0
BBX 15 37 4 0
BITMAP
700C
383C
1C78
0EF0
07E0
07C0
03C0
0000
0000
FFFE
FFFE
FFFE
E000
E000
E000
E000
E000
E000
E000
E000
E000
FFFE
FFFE
FFFE
E000
E000
E000
E000
E000
E000
E000
E000
E000
E000
FFFE
FFFE
FFFE
ENDCHAR
STARTCHAR 011B
ENCODING 283
SWIDTH 540 0
DWIDTH 21 0
BBX 18 30 2 0
BITMAP
180700
1E0E00
0F3C00
07F800
03F000
01E000
000000
000000
000000
03F800
0FFE00
1FFF00
3C0F80
780780
780380
7003C0
F003C0
F003C0
FFFFC0
FFFFC0
F00000
F00000
F00000
700000
780000
780000
3E0080
1FFF80
0FFF80
03FF00
ENDCHAR
STARTCHAR 011C
ENCODING 284
SWIDTH 720 0
DWIDTH 28 0
BBX 23 37 2 0
BITMAP
000F00
001F00
003F80
003BC0
0071E0
00E0F0
01C030
000000
000000
003FF0
01FFFE
03FFFE
0FE01C
1F8000
1E0000
3C0000
3C0000
780000
780000
700000
700000
F00000
F003FE
F003FE
F003FE
F0000E
70000E
78000E
78000E
78000E
3C000E
3E000E
1F000E
0FC00E
07FFFE
03FFFE
00FFF8
ENDCHAR
STARTCHAR 011D
ENCODING 285
SWIDTH 591 0
DWIDTH 23 0
BBX 19 39 2 -9
BITMAP
00E000
01F000
03F800
07BC00
0F1E00
1E0F00
000000
000000
000000
07F0E0
0FFCE0
1FFFE0
3C07E0
7803E0
7803E0
7001E0
F001E0
F001E0
F001E0
F001E0
F001E0
F001E0
F001E0
7001E0
7001E0
7803E0
3C07E0
3F3FE0
1FFDE0
07F9E0
0001E0
0001E0
0001C0
0001C0
0003C0
200780
3FFF80
3FFF00
1FFC00
ENDCHAR
STARTCHAR 011E
ENCODING 286
SWIDTH 720 0
DWIDTH 28 0
BBX 23 36 2 0
BITMAP
00C030
00C070
00F1E0
007FE0
003F80
000000
000000
000000
003FF0
01FFFE
03FFFE
0FE01C
1F8000
1E0000
3C0000
3C0000
780000
780000
700000
700000
F00000
F003FE
F003FE
F003FE
F0000E
70000E
78000E
78000E
78000E
3C000E
3E000E
1F000E
0FC00E
07FFFE
03FFFE
00FFF8
ENDCHAR
STARTCHAR 011F
ENCODING 287
SWIDTH 591 0
DWIDTH 23 0
BBX 19 38 2 -9
BITMAP
1C0700
0C0600
0F3E00
07FC00
03F800
000000
000000
000000
07F0E0
0FFCE0
1FFFE0
3C07E0
7803E0
7803E0
7001E0
F001E0
F001E0
F001E0
F001E0
F001E0
F001E0
F001E0
7001E0
7001E0
7803E0
3C07E0
3F3FE0
1FFDE0
07F9E0
0001E0
0001E0
0001C0
0001C0
0003C0
200780
3FFF80
3FFF00
1FFC00
ENDCHAR
STARTCHAR 0120
ENCODING 288
SWIDTH 720 0
DWIDTH 28 0
BBX 23 36 2 0
BITMAP
000400
000F00
000F00
000F00
000600
000000
000000
000000
003FF0
01FFFE
03FFFE
0FE01C
1F8000
1E0000
3C0000
3C0000
780000
780000
700000
700000
F00000
F003FE
F003FE
F003FE
F0000E
70000E
78000E
78000E
78000E
3C000E
3E000E
1F000E
0FC00E
07FFFE
03FFFE
00FFF8
ENDCHAR
STARTCHAR 0121
ENCODING 289
SWIDTH 591 0
DWIDTH 23 0
BBX 19 38 2 -9
BITMAP
004000
00E000
00F000
00E000
004000
000000
000000
000000
07F0E0
0FFCE0
1FFFE0
3C07E0
7803E0
7803E0
7001E0
F001E0
F001E0
F001E0
F001E0
F001E0
F001E0
F001E0
7001E0
7001E0
7803E0
3C07E0
3F3FE0
1FFDE0
07F9E0
0001E0
0001E0
0001C0
0001C0
0003C0
200780
3FFF80
3FFF00
1FFC00
ENDCHAR
STARTCHAR 0122
ENCODING 290
SWIDTH 720 0
DWIDTH 28 0
BBX 23 37 2 -9
BITMAP
003FF0
01FFFE
03FFFE
0FE01C
1F8000
1E0000
3C0000
3C0000
780000
780000
700000
700000
F00000
F003FE
F003FE
F003FE
F0000E
70000E
78000E
78000E
78000E
3C000E
3E000E
1F000E
0FC00E
07FFFE
03FFFE
00FFFC
000000
000000
000700
000700
000E00
000E00
000C00
001C00
001800
ENDCHAR
STARTCHAR 0123
ENCODING 291
SWIDTH 591 0
DWIDTH 23 0
BBX 19 39 2 -9
BITMAP
003000
007000
006000
00E000
00E000
01E000
000000
000000
000000
07F0E0
0FFCE0
1FFFE0
3C07E0
7803E0
7803E0
7001E0
F001E0
F001E0
F001E0
F001E0
F001E0
F001E0
F001E0
7001E0
7001E0
7803E0
3C07E0
3F3FE0
1FFDE0
07F9E0
0001E0
0001E0
0001C0
0001C0
0003C0
200780
3FFF80
3FFF00
1FFC00
ENDCHAR
STARTCHAR 0124
ENCODING 292
SWIDTH 720 0
DWIDTH 28 0
BBX 21 37 4 0
BITMAP
00F000
00F800
01FC00
03DE00
078E00
0F0700
0C0180
000000
000000
E00078
E00078
E00078
E00078
E00078
E00078
E00078
E00078
E00078
E00078
E00078
E00078
FFFFF8
FFFFF8
FFFFF8
E00078
E00078
E00078
E00078
E00078
E00078
E00078
E00078
E00078
E00078
E00078
E00078
E00078
ENDCHAR
STARTCHAR 0125
ENCODING 293
SWIDTH 617 0
DWIDTH 24 0
BBX 23 39 -2 0
BITMAP
078000
078000
0FC000
1FE000
3CF000
707800
E01C00
000000
000000
078000
078000
078000
078000
078000
078000
078000
078000
078000
078FE0
07BFF8
07FFFC
07E03C
07C01E
07C01E
07801E
07801E
07801E
07801E
07801E
07801E
07801E
07801E
07801E
07801E
07801E
07801E
07801E
07801E
07801E
ENDCHAR
STARTCHAR 0126
ENCODING 294
SWIDTH 720 0
DWIDTH 28 0
BBX 29 28 0 0
BITMAP
0E000780
0E000780
0E000780
0E000780
0E000780
FFFFFFF8
FFFFFFF8
FFFFFFF8
0E000780
0E000780
0E000780
0E000780
0FFFFF80
0FFFFF80
0FFFFF80
0E000780
0E000780
0E000780
0E000780
0E000780
0E000780
0E000780
0E000780
0E000780
0E000780
0E000780
0E000780
0E000780
ENDCHAR
STARTCHAR 0127
ENCODING 295
SWIDTH 617 0
DWIDTH 24 0
BBX 21 30 0 0
BITMAP
1E0000
1E0000
1E0000
1E0000
FFFE00
FFFE00
FFFE00
1E0000
1E0000
1E0000
1E7FC0
1EFFE0
1FF7F0
1F80F0
1F0078
1E0078
1E0078
1E0078
1E0078
1E0078
1E0078
1E0078
1E0078
1E0078
1E0078
1E0078
1E0078
1E0078
1E0078
1E0078
ENDCHAR
STARTCHAR 0128
ENCODING 296
SWIDTH 334 0
DWIDTH 13 0
BBX 15 36 -1 0
BITMAP
0006
3F0E
7FCC
73FC
60F8
C000
0000
0000
1FF8
1FF8
0FF0
0380
0380
0380
0380
0380
0380
0380
0380
0380
0380
0380
0380
0380
0380
0380
0380
0380
0380
0380
0380
0380
0380
07E0
1FF8
1FF8
ENDCHAR
STARTCHAR 0129
ENCODING 297
SWIDTH 257 0
DWIDTH 10 0
BBX 14 29 -2 0
BITMAP
080C
3E0C
7F9C
E7F8
C1F0
0000
0000
0000
0780
0780
0780
0780
0780
0780
0780
0780
0780
0780
0780
0780
0780
0780
0780
0780
0780
0780
0780
0780
0780
ENDCHAR
STARTCHAR 012A
ENCODING 298
SWIDTH 334 0
DWIDTH 13 0
BBX 11 33 1 0
BITMAP
FFE0
FFE0
FFE0
0000
0000
7FE0
7FE0
3FC0
0E00
0E00
0E00
0E00
0E00
0E00
0E00
0E00
0E00
0E00
0E00
0E00
0E00
0E00
0E00
0E00
0E00
0E00
0E00
0E00
0E00
0E00
1F80
7FE0
7FE0
ENDCHAR
STARTCHAR 012B
ENCODING 299
SWIDTH 257 0
DWIDTH 10 0
BBX 12 26 -1 0
BITMAP
FFF0
FFF0
0000
0000
0000
0F00
0F00
0F00
0F00
0F00
0F00
0F00
0F00
0F00
0F00
0F00
0F00
0F00
0F00
0F00
0F00
0F00
0F00
0F00
0F00
0F00
ENDCHAR
STARTCHAR 012C
ENCODING 300
SWIDTH 334 0
DWIDTH 13 0
BBX 12 36 1 0
BITMAP
C070
C060
F1E0
7FC0
3F80
0C00
0000
0000
7FE0
7FE0
3FC0
0E00
0E00
0E00
0E00
0E00
0E00
0E00
0E00
0E00
0E00
0E00
0E00
0E00
0E00
0E00
0E00
0E00
0E00
0E00
0E00
0E00
0E00
1F80
7FE0
7FE0
ENDCHAR
STARTCHAR 012D
ENCODING 301
SWIDTH 257 0
DWIDTH 10 0
BBX 12 29 -1 0
BITMAP
C030
C070
F9E0
7FE0
3FC0
0000
0000
0000
0F00
0F00
0F00
0F00
0F00
0F00
0F00
0F00
0F00
0F00
0F00
0F00
0F00
0F00
0F00
0F00
0F00
0F00
0F00
0F00
0F00
ENDCHAR
STARTCHAR 012E
ENCODING 302
SWIDTH 334 0
DWIDTH 13 0
BBX 10 37 2 -9
BITMAP
FFC0
FFC0
7F80
1C00
1C00
1C00
1C00
1C00
1C00
1C00
1C00
1C00
1C00
1C00
1C00
1C00
1C00
1C00
1C00
1C00
1C00
1C00
1C00
1C00
1C00
3F00
FFC0
FFC0
0700
0E00
0C00
1C00
1C00
1C00
1FC0
0FC0
0100
ENDCHAR
STARTCHAR 012F
ENCODING 303
SWIDTH 257 0
DWIDTH 10 0
BBX 6 38 1 -9
BITMAP
18
3C
3C
3C
18
00
00
00
3C
3C
3C
3C
3C
3C
3C
3C
3C
3C
3C
3C
3C
3C
3C
3C
3C
3C
3C
3C
3C
38
70
60
E0
E0
E0
FC
7C
08
ENDCHAR
STARTCHAR 0130
ENCODING 304
SWIDTH 334 0
DWIDTH 13 0
BBX 10 36 2 0
BITMAP
0800
1C00
1E00
1E00
0C00
0000
0000
0000
FFC0
FFC0
7F80
1C00
1C00
1C00
1C00
1C00
1C00
1C00
1C00
1C00
1C00
1C00
1C00
1C00
1C00
1C00
1C00
1C00
1C00
1C00
1C00
1C00
1C00
3F00
FFC0
FFC0
ENDCHAR
STARTCHAR 0131
ENCODING 305
SWIDTH 257 0
DWIDTH 10 0
BBX 4 21 3 0
BITMAP
F0
F0
F0
F0
F0
F0
F0
F0
F0
F0
F0
F0
F0
F0
F0
F0
F0
F0
F0
F0
F0
ENDCHAR
STARTCHAR 0132
ENCODING 306
SWIDTH 591 0
DWIDTH 23 0
BBX 18 35 2 -7
BITMAP
FFC1C0
FFC1C0
7F81C0
1C01C0
1C01C0
1C01C0
1C01C0
1C01C0
1C01C0
1C01C0
1C01C0
1C01C0
1C01C0
1C01C0
1C01C0
1C01C0
1C01C0
1C01C0
1C01C0
1C01C0
1C01C0
1C01C0
1C01C0
1C01C0
1C01C0
3F01C0
FFC1C0
FFC1C0
0001C0
0001C0
0003C0
0007C0
00FF80
00FF00
00FE00
ENDCHAR
STARTCHAR 0133
ENCODING 307
SWIDTH 514 0
DWIDTH 20 0
BBX 14 38 3 -9
BITMAP
6018
F03C
F03C
F03C
6018
0000
0000
0000
F03C
F03C
F03C
F03C
F03C
F03C
F03C
F03C
F03C
F03C
F03C
F03C
F03C
F03C
F03C
F03C
F03C
F03C
F03C
F03C
F03C
003C
003C
003C
003C
003C
0038
07F8
07F8
07E0
ENDCHAR
STARTCHAR 0134
ENCODING 308
SWIDTH 257 0
DWIDTH 10 0
BBX 15 44 -3 -7
BITMAP
03C0
03E0
07F0
0F70
1E38
3C1C
300E
0000
0000
01C0
01C0
01C0
01C0
01C0
01C0
01C0
01C0
01C0
01C0
01C0
01C0
01C0
01C0
01C0
01C0
01C0
01C0
01C0
01C0
01C0
01C0
01C0
01C0
01C0
01C0
01C0
01C0
01C0
03C0
03C0
0780
FF80
FF00
FE00
ENDCHAR
STARTCHAR 0135
ENCODING 309
SWIDTH 257 0
DWIDTH 10 0
BBX 13 39 -2 -9
BITMAP
0780
0FC0
0FC0
1DE0
3870
7038
0000
0000
0000
0780
0780
0780
0780
0780
0780
0780
0780
0780
0780
0780
0780
0780
0780
0780
0780
0780
0780
0780
0780
0780
0780
0780
0780
0780
0780
0700
FF00
FE00
FC00
ENDCHAR
STARTCHAR 0136
ENCODING 310
SWIDTH 617 0
DWIDTH 24 0
BBX 20 37 4 -9
BITMAP
E001E0
E003E0
E003C0
E00780
E00F00
E01E00
E03C00
E07800
E0F000
E1E000
E3C000
E78000
E78000
EFC000
FFC000
F9E000
F1F000
E0F000
E07800
E03C00
E03E00
E01E00
E00F00
E00780
E007C0
E003C0
E001E0
E000F0
000000
000000
00E000
00E000
00E000
01C000
01C000
018000
030000
ENDCHAR
STARTCHAR 0137
ENCODING 311
SWIDTH 514 0
DWIDTH 20 0
BBX 17 39 3 -9
BITMAP
F00000
F00000
F00000
F00000
F00000
F00000
F00000
F00000
F00000
F00F80
F00F00
F01E00
F03C00
F07800
F0F000
F1E000
F3C000
F78000
FF8000
FF8000
FFC000
F9E000
F0F000
F0F800
F07800
F03C00
F01E00
F01F00
F00F00
F00780
000000
000000
03C000
03C000
038000
038000
030000
070000
060000
ENDCHAR
STARTCHAR 0138
ENCODING 312
SWIDTH 514 0
DWIDTH 20 0
BBX 17 21 3 0
BITMAP
F00F80
F00F00
F01E00
F03C00
F07800
F0F000
F1E000
F3E000
F3C000
F78000
FFC000
FFC000
F9E000
F0F000
F07800
F07800
F03C00
F01E00
F01F00
F00F00
F00780
ENDCHAR
STARTCHAR 0139
ENCODING 313
SWIDTH 514 0
DWIDTH 20 0
BBX 16 37 3 0
BITMAP
0F00
1F00
1E00
3C00
7800
7000
E000
0000
0000
7000
7000
7000
7000
7000
7000
7000
7000
7000
7000
7000
7000
7000
7000
7000
7000
7000
7000
7000
7000
7000
7000
7000
7000
7000
7FFF
7FFF
7FFF
ENDCHAR
STARTCHAR 013A
ENCODING 314
SWIDTH 257 0
DWIDTH 10 0
BBX 8 39 3 0
BITMAP
0F
1E
3E
3C
78
70
E0
00
00
F0
F0
F0
F0
F0
F0
F0
F0
F0
F0
F0
F0
F0
F0
F0
F0
F0
F0
F0
F0
F0
F0
F0
F0
F0
F0
F0
F0
F0
F0
ENDCHAR
STARTCHAR 013B
ENCODING 315
SWIDTH 514 0
DWIDTH 20 0
BBX 15 37 4 -9
BITMAP
E000
E000
E000
E000
E000
E000
E000
E000
E000
E000
E000
E000
E000
E000
E000
E000
E000
E000
E000
E000
E000
E000
E000
E000
E000
FFFE
FFFE
FFFE
0000
0000
01C0
01C0
03C0
0380
0300
0700
0600
ENDCHAR
STARTCHAR 013C
ENCODING 316
SWIDTH 257 0
DWIDTH 10 0
BBX 5 39 3 -9
BITMAP
F0
F0
F0
F0
F0
F0
F0
F0
F0
F0
F0
F0
F0
F0
F0
F0
F0
F0
F0
F0
F0
F0
F0
F0
F0
F0
F0
F0
F0
F0
00
00
78
70
70
E0
E0
C0
80
ENDCHAR
STARTCHAR 013D
ENCODING 317
SWIDTH 514 0
DWIDTH 20 0
BBX 15 28 4 0
BITMAP
E00E
E00E
E00E
E01C
E01C
E018
E000
E000
E000
E000
E000
E000
E000
E000
E000
E000
E000
E000
E000
E000
E000
E000
E000
E000
E000
FFFE
FFFE
FFFE
ENDCHAR
STARTCHAR 013E
ENCODING 318
SWIDTH 257 0
DWIDTH 10 0
BBX 10 30 3 0
BITMAP
F1C0
F1C0
F3C0
F380
F380
F300
F600
F000
F000
F000
F000
F000
F000
F000
F000
F000
F000
F000
F000
F000
F000
F000
F000
F000
F000
F000
F000
F000
F000
F000
ENDCHAR
STARTCHAR 013F
ENCODING 319
SWIDTH 514 0
DWIDTH 20 0
BBX 15 28 4 0
BITMAP
E000
E000
E000
E000
E000
E000
E000
E000
E000
E000
E000
E000
E070
E078
E078
E070
E000
E000
E000
E000
E000
E000
E000
E000
E000
FFFE
FFFE
FFFE
ENDCHAR
STARTCHAR 0140
ENCODING 320
SWIDTH 257 0
DWIDTH 10 0
BBX 9 30 3 0
BITMAP
F000
F000
F000
F000
F000
F000
F000
F000
F000
F000
F000
F000
F000
F300
F780
F780
F780
F000
F000
F000
F000
F000
F000
F000
F000
F000
F000
F000
F000
F000
ENDCHAR
STARTCHAR 0141
ENCODING 321
SWIDTH 514 0
DWIDTH 20 0
BBX 18 28 1 0
BITMAP
1C0000
1C0000
1C0000
1C0000
1C0000
1C0000
1C0000
1C0000
1C0000
1C0000
1C1000
1C7000
1DF800
1FE000
1F8000
3F0000
7C0000
FC0000
FC0000
1C0000
1C0000
1C0000
1C0000
1C0000
1C0000
1FFFC0
1FFFC0
1FFFC0
ENDCHAR
STARTCHAR 0142
ENCODING 322
SWIDTH 257 0
DWIDTH 10 0
BBX 10 30 0 0
BITMAP
1C00
1C00
1C00
1C00
1C00
1C00
1C00
1C00
1C00
1C00
1C00
1C00
1C80
1FC0
1FC0
1F00
3E00
FC00
FC00
5C00
1C00
1C00
1C00
1C00
1C00
1C00
1C00
1C00
1C00
1C00
ENDCHAR
STARTCHAR 0143
ENCODING 323
SWIDTH 745 0
DWIDTH 29 0
BBX 22 37 4 0
BITMAP
000F80
000F00
001E00
003C00
003800
007000
006000
000000
000000
F0001C
F8001C
F8001C
FC001C
FE001C
FE001C
EF001C
EF801C
E7801C
E3C01C
E3C01C
E1E01C
E0F01C
E0F01C
E0781C
E03C1C
E03C1C
E01E1C
E00F1C
E00F1C
E0079C
E003DC
E003DC
E001FC
E001FC
E000FC
E0007C
E0007C
ENDCHAR
STARTCHAR 0144
ENCODING 324
SWIDTH 617 0
DWIDTH 24 0
BBX 18 30 3 0
BITMAP
003E00
003C00
007800
007000
00E000
01C000
000000
000000
000000
E1FC00
E7FF00
EFFF80
FC0780
F803C0
F803C0
F003C0
F003C0
F003C0
F003C0
F003C0
F003C0
F003C0
F003C0
F003C0
F003C0
F003C0
F003C0
F003C0
F003C0
F003C0
ENDCHAR
STARTCHAR 0145
ENCODING 325
SWIDTH 745 0
DWIDTH 29 0
BBX 22 37 4 -9
BITMAP
F0001C
F8001C
F8001C
FC001C
FE001C
FE001C
EF001C
EF801C
E7801C
E3C01C
E3C01C
E1E01C
E0F01C
E0F01C
E0781C
E03C1C
E03C1C
E01E1C
E00F1C
E00F1C
E0079C
E003DC
E003DC
E001FC
E001FC
E000FC
E0007C
E0007C
000000
000000
003800
003800
007800
007000
007000
006000
00C000
ENDCHAR
STARTCHAR 0146
ENCODING 326
SWIDTH 617 0
DWIDTH 24 0
BBX 18 30 3 -9
BITMAP
E1FC00
E7FF00
EFFF80
FC0780
F803C0
F803C0
F003C0
F003C0
F003C0
F003C0
F003C0
F003C0
F003C0
F003C0
F003C0
F003C0
F003C0
F003C0
F003C0
F003C0
F003C0
000000
000000
00F000
00E000
00E000
01C000
01C000
018000
010000
ENDCHAR
STARTCHAR 0147
ENCODING 327
SWIDTH 745 0
DWIDTH 29 0
BBX 22 37 4 0
BITMAP
0E0180
070780
038F00
01DE00
00FC00
00F800
007800
000000
000000
F0001C
F8001C
F8001C
FC001C
FE001C
FE001C
EF001C
EF801C
E7801C
E3C01C
E3C01C
E1E01C
E0F01C
E0F01C
E0781C
E03C1C
E03C1C
E01E1C
E00F1C
E00F1C
E0079C
E003DC
E003DC
E001FC
E001FC
E000FC
E0007C
E0007C
ENDCHAR
STARTCHAR 0148
ENCODING 328
SWIDTH 617 0
DWIDTH 24 0
BBX 18 30 3 0
BITMAP
380700
1C1E00
0F3C00
07F800
03F000
01E000
000000
000000
000000
E1FC00
E7FF00
EFFF80
FC0780
F803C0
F803C0
F003C0
F003C0
F003C0
F003C0
F003C0
F003C0
F003C0
F003C0
F003C0
F003C0
F003C0
F003C0
F003C0
F003C0
F003C0
ENDCHAR
STARTCHAR 0149
ENCODING 329
SWIDTH 668 0
DWIDTH 26 0
BBX 24 28 0 0
BITMAP
3C0000
3C0000
380000
780000
780000
700000
700000
738FF0
E39FFC
E3BFFC
03F01E
03E01E
03C00E
03C00F
03C00F
03C00F
03800F
03800F
03800F
03800F
03800F
03800F
03800F
03800F
03800F
03800F
03800F
03800F
ENDCHAR
STARTCHAR 014A
ENCODING 330
SWIDTH 745 0
DWIDTH 29 0
BBX 22 35 4 -7
BITMAP
F0001C
F8001C
F8001C
FC001C
FE001C
FE001C
EF001C
E7801C
E7801C
E3C01C
E1E01C
E1E01C
E0F01C
E0781C
E0781C
E03C1C
E01E1C
E01E1C
E00F1C
E0079C
E0079C
E003DC
E001FC
E001FC
E000FC
E0007C
E0007C
E0003C
00003C
00003C
000038
000078
000FF8
000FF0
000FE0
ENDCHAR
STARTCHAR 014B
ENCODING 331
SWIDTH 617 0
DWIDTH 24 0
BBX 18 30 3 -9
BITMAP
E1FC00
E7FF00
FFFF80
FC0780
F803C0
F803C0
F003C0
F003C0
F003C0
F003C0
F003C0
F003C0
F003C0
F003C0
F003C0
F003C0
F003C0
F003C0
F003C0
F003C0
F003C0
0003C0
0003C0
0003C0
0003C0
0003C0
0003C0
003F80
003F80
003F00
ENDCHAR
STARTCHAR 014C
ENCODING 332
SWIDTH 771 0
DWIDTH 30 0
BBX 26 33 2 0
BITMAP
01FFE000
01FFE000
01FFE000
00000000
00000000
00FFC000
03FFF000
07FFFC00
0FC07E00
1F001E00
3E000F00
3C000780
78000780
78000780
780003C0
700003C0
F00003C0
F00003C0
F00003C0
F00003C0
F00003C0
F00003C0
700003C0
780003C0
78000380
78000780
3C000780
3C000F00
1E001E00
0F807E00
07FFFC00
03FFF000
00FFE000
ENDCHAR
STARTCHAR 014D
ENCODING 333
SWIDTH 591 0
DWIDTH 23 0
BBX 19 26 2 0
BITMAP
0FFF00
0FFF00
000000
000000
000000
03FC00
0FFF00
1FFF80
3C0780
7803C0
7801E0
7001E0
F000E0
F000E0
F000E0
F000E0
F000E0
F000E0
F000E0
7001E0
7801E0
7803C0
3C07C0
1FBF80
0FFF00
07FC00
ENDCHAR
STARTCHAR 014E
ENCODING 334
SWIDTH 771 0
DWIDTH 30 0
BBX 26 36 2 0
BITMAP
01806000
01C06000
00F1E000
00FFC000
007F8000
00040000
00000000
00000000
00FFC000
03FFF000
07FFFC00
0FC07E00
1F001E00
3E000F00
3C000780
78000780
78000780
780003C0
700003C0
F00003C0
F00003C0
F00003C0
F00003C0
F00003C0
F00003C0
700003C0
780003C0
78000380
78000780
3C000780
3C000F00
1E001E00
0F807E00
07FFFC00
03FFF000
00FFE000
ENDCHAR
STARTCHAR 014F
ENCODING 335
SWIDTH 591 0
DWIDTH 23 0
BBX 19 29 2 0
BITMAP
0C0300
0C0700
0F9E00
07FC00
03F800
000000
000000
000000
03FC00
0FFF00
1FFF80
3C0780
7803C0
7801E0
7001E0
F000E0
F000E0
F000E0
F000E0
F000E0
F000E0
F000E0
7001E0
7801E0
7803C0
3C07C0
1FBF80
0FFF00
07FC00
ENDCHAR
STARTCHAR 0150
ENCODING 336
SWIDTH 771 0
DWIDTH 30 0
BBX 26 37 2 0
BITMAP
0078F000
0078F000
00F1E000
00E1C000
01C38000
01870000
03060000
00000000
00000000
00FFC000
03FFF000
07FFFC00
0FC07E00
1F001E00
3E000F00
3C000780
78000780
78000780
780003C0
700003C0
F00003C0
F00003C0
F00003C0
F00003C0
F00003C0
F00003C0
700003C0
780003C0
78000380
78000780
3C000780
3C000F00
1E001E00
0F807E00
07FFFC00
03FFF000
00FFE000
ENDCHAR
STARTCHAR 0151
ENCODING 337
SWIDTH 591 0
DWIDTH 23 0
BBX 19 30 2 0
BITMAP
03C780
038F00
078E00
0F1E00
0E1C00
1C3800
000000
000000
000000
03FC00
0FFF00
1FFF80
3C0780
7803C0
7801E0
7001E0
F000E0
F000E0
F000E0
F000E0
F000E0
F000E0
F000E0
7001E0
7801E0
7803C0
3C07C0
1FBF80
0FFF00
07FC00
ENDCHAR
STARTCHAR 0152
ENCODING 338
SWIDTH 925 0
DWIDTH 36 0
BBX 32 28 2 0
BITMAP
00FFFFFF
03FFFFFF
07FFFFFF
0FC07800
1F007800
3E007800
3C007800
78007800
78007800
78007800
70007800
F0007800
F0007FFE
F0007FFE
F0007FFE
F0007800
F0007800
70007800
78007800
78007800
78007800
3C007800
3C007800
1E007800
0F807800
07FFFFFF
03FFFFFF
00FFFFFF
ENDCHAR
STARTCHAR 0153
ENCODING 339
SWIDTH 925 0
DWIDTH 36 0
BBX 33 21 2 0
BITMAP
03F807F000
0FFE1FFC00
1FFF3FFE00
3C07F81E00
7803F00F00
7803F00700
7001E00700
F001E00780
F001E00780
F001FFFF80
F001FFFF80
F001E00000
F001E00000
F001E00000
7001E00000
7801F00000
7803F00000
3C07FC0100
1FBF3FFF00
0FFE1FFF00
07FC07FE00
ENDCHAR
STARTCHAR 0154
ENCODING 340
SWIDTH 617 0
DWIDTH 24 0
BBX 19 37 4 0
BITMAP
003C00
007800
00F000
00F000
01E000
038000
030000
000000
000000
FFC000
FFFC00
FFFE00
E03F00
E00F80
E00780
E00380
E003C0
E003C0
E00380
E00380
E00780
E00F00
E0FE00
FFFC00
FFF000
FFF800
E07800
E03C00
E01C00
E01E00
E00F00
E00F00
E00780
E00780
E003C0
E001E0
E001E0
ENDCHAR
STARTCHAR 0155
ENCODING 341
SWIDTH 411 0
DWIDTH 16 0
BBX 12 30 3 0
BITMAP
00F0
01E0
01E0
03C0
0780
0700
0000
0000
0000
E1F0
E3F0
E7F0
EE00
FC00
F800
F000
F000
F000
F000
F000
F000
F000
F000
F000
F000
F000
F000
F000
F000
F000
ENDCHAR
STARTCHAR 0156
ENCODING 342
SWIDTH 617 0
DWIDTH 24 0
BBX 19 37 4 -9
BITMAP
FFC000
FFFC00
FFFE00
E03F00
E00F80
E00780
E00380
E003C0
E003C0
E00380
E00380
E00780
E00F00
E0FE00
FFFC00
FFF000
FFF800
E07800
E03C00
E01C00
E01E00
E00F00
E00F00
E00780
E00780
E003C0
E001E0
E001E0
000000
000000
00E000
00E000
01E000
01C000
01C000
018000
030000
ENDCHAR
STARTCHAR 0157
ENCODING 343
SWIDTH 411 0
DWIDTH 16 0
BBX 13 30 2 -9
BITMAP
70F8
71F8
73F8
7700
7E00
7C00
7800
7800
7800
7800
7800
7800
7800
7800
7800
7800
7800
7800
7800
7800
7800
0000
0000
3800
3800
3800
7000
7000
6000
C000
ENDCHAR
STARTCHAR 0158
ENCODING 344
SWIDTH 617 0
DWIDTH 24 0
BBX 19 37 4 0
BITMAP
300E00
381C00
1E7800
0FF000
07E000
03C000
03C000
000000
000000
FFC000
FFFC00
FFFE00
E03F00
E00F80
E00780
E00380
E003C0
E003C0
E00380
E00380
E00780
E00F00
E0FE00
FFFC00
FFF000
FFF800
E07800
E03C00
E01C00
E01E00
E00F00
E00F00
E00780
E00780
E003C0
E001E0
E001E0
ENDCHAR
STARTCHAR 0159
ENCODING 345
SWIDTH 411 0
DWIDTH 16 0
BBX 13 30 3 0
BITMAP
E038
F070
78E0
3DC0
1F80
0F80
0000
0000
0000
E1F0
E3F0
E7F0
EE00
FC00
F800
F000
F000
F000
F000
F000
F000
F000
F000
F000
F000
F000
F000
F000
F000
F000
ENDCHAR
STARTCHAR 015A
ENCODING 346
SWIDTH 540 0
DWIDTH 21 0
BBX 18 37 2 0
BITMAP
001E00
003C00
007800
007800
00F000
01C000
018000
000000
000000
07FC00
1FFF80
3FFF00
7C0700
780000
F00000
F00000
F00000
F00000
780000
7C0000
3E0000
1FC000
0FF000
03FC00
00FE00
001F00
000F80
000780
000380
0003C0
000380
000380
000780
C00F00
FFFF00
FFFE00
7FF800
ENDCHAR
STARTCHAR 015B
ENCODING 347
SWIDTH 462 0
DWIDTH 18 0
BBX 15 30 2 0
BITMAP
0078
00F0
00F0
01E0
03C0
0380
0000
0000
0000
0FF8
3FFC
7FFC
F008
E000
E000
F000
F800
7E00
3FC0
0FF0
03F8
007C
003E
001E
000E
001E
801C
F8FC
FFF8
7FE0
ENDCHAR
STARTCHAR 015C
ENCODING 348
SWIDTH 540 0
DWIDTH 21 0
BBX 18 37 2 0
BITMAP
01E000
03F000
03F000
07F800
0E1C00
1C0E00
180700
000000
000000
07FC00
1FFF80
3FFF00
7C0700
780000
F00000
F00000
F00000
F00000
780000
7C0000
3E0000
1FC000
0FF000
03FC00
00FE00
001F00
000F80
000780
000380
0003C0
000380
000380
000780
C00F00
FFFF00
FFFE00
7FF800
ENDCHAR
STARTCHAR 015D
ENCODING 349
SWIDTH 462 0
DWIDTH 18 0
BBX 15 30 2 0
BITMAP
0780
07C0
0FE0
1EF0
3C70
7038
0000
0000
0000
0FF8
3FFC
7FFC
F008
E000
E000
F000
F800
7E00
3FC0
0FF0
03F8
007C
003E
001E
000E
001E
801C
F8FC
FFF8
7FE0
ENDCHAR
STARTCHAR 015E
ENCODING 350
SWIDTH 540 0
DWIDTH 21 0
BBX 18 37 2 -9
BITMAP
07FC00
1FFF80
3FFF00
7C0700
780000
F00000
F00000
F00000
F00000
780000
7C0000
3E0000
1FC000
0FF000
03FC00
00FE00
001F00
000F80
000780
000380
0003C0
000380
000380
000780
C00F00
FFFF00
FFFE00
7FF800
018000
038000
03C000
03E000
007000
007000
007000
0FE000
0FC000
ENDCHAR
STARTCHAR 015F
ENCODING 351
SWIDTH 462 0
DWIDTH 18 0
BBX 15 30 2 -9
BITMAP
0FF8
3FFC
7FFC
F008
E000
E000
F000
F800
7E00
3FC0
0FF0
03F8
007C
003E
001E
000E
001E
801C
F8FC
FFF8
7FE0
0380
0300
0780
03E0
00E0
00E0
00E0
1FE0
1F80
ENDCHAR
STARTCHAR 0160
ENCODING 352
SWIDTH 540 0
DWIDTH 21 0
BBX 18 37 2 0
BITMAP
180700
1C0E00
0F3C00
07F800
03F000
01E000
01E000
000000
000000
07FC00
1FFF80
3FFF00
7C0700
780000
F00000
F00000
F00000
F00000
780000
7C0000
3E0000
1FC000
0FF000
03FC00
00FE00
001F00
000F80
000780
000380
0003C0
000380
000380
000780
C00F00
FFFF00
FFFE00
7FF800
ENDCHAR
STARTCHAR 0161
ENCODING 353
SWIDTH 462 0
DWIDTH 18 0
BBX 15 30 2 0
BITMAP
701C
7838
3C70
1EE0
0FC0
07C0
0000
0000
0000
0FF8
3FFC
7FFC
F008
E000
E000
F000
F800
7E00
3FC0
0FF0
03F8
007C
003E
001E
000E
001E
801C
F8FC
FFF8
7FE0
ENDCHAR
STARTCHAR 0162
ENCODING 354
SWIDTH 540 0
DWIDTH 21 0
BBX 21 37 0 -9
BITMAP
FFFFF8
FFFFF8
FFFFF8
007800
007800
007800
007800
007800
007800
007800
007800
007800
007800
007800
007800
007800
007800
007800
007800
007800
007800
007800
007800
007800
007800
007800
007800
007800
003000
007000
007800
007C00
000E00
000E00
000E00
01FC00
01F800
ENDCHAR
STARTCHAR 0163
ENCODING 355
SWIDTH 360 0
DWIDTH 14 0
BBX 12 35 1 -9
BITMAP
0C00
0C00
1C00
1C00
1C00
7FF0
FFF0
FFF0
1C00
1C00
1C00
1C00
1C00
1C00
1C00
1C00
1C00
1C00
1C00
1C00
1C00
1C00
1E00
1FB0
0FF0
07F0
0380
0300
0780
03E0
00E0
00E0
00E0
0FE0
0F80
ENDCHAR
STARTCHAR 0164
ENCODING 356
SWIDTH 540 0
DWIDTH 21 0
BBX 21 37 0 0
BITMAP
0E0180
070780
038F00
01DE00
00FC00
00F800
007800
000000
000000
FFFFF8
FFFFF8
FFFFF8
007800
007800
007800
007800
007800
007800
007800
007800
007800
007800
007800
007800
007800
007800
007800
007800
007800
007800
007800
007800
007800
007800
007800
007800
007800
ENDCHAR
STARTCHAR 0165
ENCODING 357
SWIDTH 360 0
DWIDTH 14 0
BBX 17 30 1 0
BITMAP
000380
000380
000380
000700
0C0700
0C0600
1C0600
1C0000
1C0000
7FF000
FFF000
FFF000
1C0000
1C0000
1C0000
1C0000
1C0000
1C0000
1C0000
1C0000
1C0000
1C0000
1C0000
1C0000
1C0000
1C0000
1E0000
1FB000
0FF000
07F000
ENDCHAR
STARTCHAR 0166
ENCODING 358
SWIDTH 540 0
DWIDTH 21 0
BBX 21 28 0 0
BITMAP
FFFFF8
FFFFF8
FFFFF8
007800
007800
007800
007800
007800
007800
007800
007800
007800
1FFFC0
1FFFC0
1FFFC0
007800
007800
007800
007800
007800
007800
007800
007800
007800
007800
007800
007800
007800
ENDCHAR
STARTCHAR 0167
ENCODING 359
SWIDTH 360 0
DWIDTH 14 0
BBX 12 26 1 0
BITMAP
0C00
0C00
1C00
1C00
1C00
7FF0
FFF0
FFF0
1C00
1C00
1C00
1C00
1C00
FFF0
FFF0
1C00
1C00
1C00
1C00
1C00
1C00
1C00
1E00
1FB0
0FF0
07F0
ENDCHAR
STARTCHAR 0168
ENCODING 360
SWIDTH 720 0
DWIDTH 28 0
BBX 22 36 3 0
BITMAP
0000C0
03E0C0
07F9C0
067F80
0C1F80
0C0000
000000
000000
F0003C
F0003C
F0003C
F0003C
F0003C
F0003C
F0003C
F0003C
F0003C
F0003C
F0003C
F0003C
F0003C
F0003C
F0003C
F0003C
F0003C
F0003C
F0003C
70003C
70003C
780038
780078
3C0078
3E01F0
1FFFE0
0FFFC0
03FF00
ENDCHAR
STARTCHAR 0169
ENCODING 361
SWIDTH 617 0
DWIDTH 24 0
BBX 18 29 3 0
BITMAP
020300
0F8300
1FE700
39FE00
307C00
000000
000000
000000
F003C0
F003C0
F003C0
F003C0
F003C0
F003C0
F003C0
F003C0
F003C0
F003C0
F003C0
F003C0
F003C0
F003C0
F003C0
F003C0
F007C0
780FC0
7FFFC0
3FF9C0
1FF1C0
ENDCHAR
STARTCHAR 016A
ENCODING 362
SWIDTH 720 0
DWIDTH 28 0
BBX 22 33 3 0
BITMAP
07FF80
07FF80
07FF80
000000
000000
F0003C
F0003C
F0003C
F0003C
F0003C
F0003C
F0003C
F0003C
F0003C
F0003C
F0003C
F0003C
F0003C
F0003C
F0003C
F0003C
F0003C
F0003C
F0003C
70003C
70003C
780038
780078
3C0078
3E01F0
1FFFE0
0FFFC0
03FF00
ENDCHAR
STARTCHAR 016B
ENCODING 363
SWIDTH 617 0
DWIDTH 24 0
BBX 18 26 3 0
BITMAP
1FFE00
1FFE00
000000
000000
000000
F003C0
F003C0
F003C0
F003C0
F003C0
F003C0
F003C0
F003C0
F003C0
F003C0
F003C0
F003C0
F003C0
F003C0
F003C0
F003C0
F007C0
780FC0
7FFFC0
3FF9C0
1FF1C0
ENDCHAR
STARTCHAR 016C
ENCODING 364
SWIDTH 720 0
DWIDTH 28 0
BBX 22 36 3 0
BITMAP
060180
070180
03C780
03FF00
01FE00
001000
000000
000000
F0003C
F0003C
F0003C
F0003C
F0003C
F0003C
F0003C
F0003C
F0003C
F0003C
F0003C
F0003C
F0003C
F0003C
F0003C
F0003C
F0003C
F0003C
F0003C
70003C
70003C
780038
780078
3C0078
3E01F0
1FFFE0
0FFFC0
03FF00
ENDCHAR
STARTCHAR 016D
ENCODING 365
SWIDTH 617 0
DWIDTH 24 0
BBX 18 29 3 0
BITMAP
180600
180E00
1F3C00
0FFC00
07F800
000000
000000
000000
F003C0
F003C0
F003C0
F003C0
F003C0
F003C0
F003C0
F003C0
F003C0
F003C0
F003C0
F003C0
F003C0
F003C0
F003C0
F003C0
F007C0
780FC0
7FFFC0
3FF9C0
1FF1C0
ENDCHAR
STARTCHAR 016E
ENCODING 366
SWIDTH 720 0
DWIDTH 28 0
BBX 22 39 3 0
BITMAP
003000
00FC00
01CE00
018600
018700
018600
01EE00
00FC00
001000
000000
000000
F0003C
F0003C
F0003C
F0003C
F0003C
F0003C
F0003C
F0003C
F0003C
F0003C
F0003C
F0003C
F0003C
F0003C
F0003C
F0003C
F0003C
F0003C
F0003C
70003C
70003C
780038
780078
3C0078
3E01F0
1FFFE0
0FFFC0
03FF00
ENDCHAR
STARTCHAR 016F
ENCODING 367
SWIDTH 617 0
DWIDTH 24 0
BBX 18 32 3 0
BITMAP
01E000
03F000
073800
061800
061800
061800
07F800
03F000
000000
000000
000000
F003C0
F003C0
F003C0
F003C0
F003C0
F003C0
F003C0
F003C0
F003C0
F003C0
F003C0
F003C0
F003C0
F003C0
F003C0
F003C0
F007C0
780FC0
7FFFC0
3FF9C0
1FF1C0
ENDCHAR
STARTCHAR 0170
ENCODING 368
SWIDTH 720 0
DWIDTH 28 0
BBX 22 37 3 0
BITMAP
01E3C0
01E3C0
03C780
038700
070E00
061C00
0C1800
000000
000000
F0003C
F0003C
F0003C
F0003C
F0003C
F0003C
F0003C
F0003C
F0003C
F0003C
F0003C
F0003C
F0003C
F0003C
F0003C
F0003C
F0003C
F0003C
F0003C
70003C
70003C
780038
780078
3C0078
3E01F0
1FFFE0
0FFFC0
03FF00
ENDCHAR
STARTCHAR 0171
ENCODING 369
SWIDTH 617 0
DWIDTH 24 0
BBX 18 30 3 0
BITMAP
078F00
078E00
0F1E00
0E3C00
1C3800
387000
000000
000000
000000
F003C0
F003C0
F003C0
F003C0
F003C0
F003C0
F003C0
F003C0
F003C0
F003C0
F003C0
F003C0
F003C0
F003C0
F003C0
F003C0
F007C0
780FC0
7FFFC0
3FF9C0
1FF1C0
ENDCHAR
STARTCHAR 0172
ENCODING 370
SWIDTH 720 0
DWIDTH 28 0
BBX 22 37 3 -9
BITMAP
F0003C
F0003C
F0003C
F0003C
F0003C
F0003C
F0003C
F0003C
F0003C
F0003C
F0003C
F0003C
F0003C
F0003C
F0003C
F0003C
F0003C
F0003C
F0003C
70003C
70003C
780038
780078
3C0078
3E01F0
1FFFE0
0FFFC0
03FF80
000380
000700
000600
000E00
000E00
000E00
0007E0
0007E0
000080
ENDCHAR
STARTCHAR 0173
ENCODING 371
SWIDTH 617 0
DWIDTH 24 0
BBX 18 30 3 -9
BITMAP
F003C0
F003C0
F003C0
F003C0
F003C0
F003C0
F003C0
F003C0
F003C0
F003C0
F003C0
F003C0
F003C0
F003C0
F003C0
F003C0
F007C0
780FC0
7FFFC0
3FF9C0
1FF1C0
000380
000700
000E00
000E00
000C00
000E00
000FC0
0007C0
000180
ENDCHAR
STARTCHAR 0174
ENCODING 372
SWIDTH 925 0
DWIDTH 36 0
BBX 35 37 1 0
BITMAP
0001E00000
0003F00000
0003F00000
0007F80000
000E1C0000
001C0E0000
0018070000
0000000000
0000000000
E001E001E0
E001E001C0
F003E003C0
F003F003C0
7003F003C0
7003F00380
7807F80780
7807380780
3807380700
380F3C0700
3C0E1C0F00
3C0E1C0F00
1C0E1C0E00
1C1E1E0E00
1E1C0E1E00
0E1C0E1E00
0E3C0F1C00
0F38071C00
0F38073C00
0738073C00
077807B800
077003B800
07F003B800
03F003F000
03E001F000
03E001F000
03E001F000
01E000E000
ENDCHAR
STARTCHAR 0175
ENCODING 373
SWIDTH 771 0
DWIDTH 30 0
BBX 29 30 1 0
BITMAP
000F0000
000F8000
001FC000
003DE000
0078E000
00E07000
00000000
00000000
00000000
E00F0038
E00F8078
F00F8070
F01F8070
701FC0F0
701DC0F0
783DC0E0
7839C0E0
3838E1E0
3878E1E0
3C70E1C0
1C70F1C0
1C7073C0
1CE07380
1EE07B80
0EE03B80
0EC03F80
0FC03F00
0FC01F00
07C01F00
07801E00
ENDCHAR
STARTCHAR 0176
ENCODING 374
SWIDTH 565 0
DWIDTH 22 0
BBX 22 37 0 0
BITMAP
007800
00FC00
00FC00
01DE00
038F00
070380
0E01C0
000000
000000
F0003C
700038
780078
3C00F0
3C00F0
1E01E0
1E01E0
0F03C0
0F03C0
078780
038700
03CF00
01CE00
01FE00
00FC00
00FC00
007800
007800
007800
007800
007800
007800
007800
007800
007800
007800
007800
007800
ENDCHAR
STARTCHAR 0177
ENCODING 375
SWIDTH 488 0
DWIDTH 19 0
BBX 20 39 0 -9
BITMAP
00F000
01F000
03F800
03BC00
071E00
0E0700
000000
000000
000000
F000F0
7000E0
7801E0
7801E0
3801C0
3C03C0
1C0380
1C0780
1E0780
0E0700
0F0F00
070F00
070E00
079E00
039C00
039C00
01FC00
01F800
01F800
00F800
00F000
00F000
00E000
01E000
01E000
03C000
03C000
DF8000
FF0000
FE0000
ENDCHAR
STARTCHAR 0178
ENCODING 376
SWIDTH 565 0
DWIDTH 22 0
BBX 22 35 0 0
BITMAP
038700
038700
038700
000000
000000
000000
000000
F0003C
700038
780078
3C00F0
3C00F0
1E01E0
1E01E0
0F03C0
0F03C0
078780
038700
03CF00
01CE00
01FE00
00FC00
00FC00
007800
007800
007800
007800
007800
007800
007800
007800
007800
007800
007800
007800
ENDCHAR
STARTCHAR 0179
ENCODING 377
SWIDTH 565 0
DWIDTH 22 0
BBX 20 37 1 0
BITMAP
000F00
001E00
001E00
003C00
007800
007000
00E000
000000
000000
7FFFE0
7FFFE0
7FFFE0
0001E0
0003C0
0003C0
000780
000F00
000F00
001E00
003C00
003C00
007800
00F000
00F000
01E000
03C000
03C000
078000
0F0000
0F0000
1E0000
3C0000
3C0000
780000
FFFFF0
FFFFF0
FFFFF0
ENDCHAR
STARTCHAR 017A
ENCODING 378
SWIDTH 462 0
DWIDTH 18 0
BBX 15 30 2 0
BITMAP
0078
00F0
01E0
01C0
03C0
0700
0000
0000
0000
FFFC
FFFC
FFFC
003C
0038
0078
00F0
01E0
01C0
03C0
0780
0700
0F00
1E00
3C00
3800
7800
F000
FFFE
FFFE
FFFE
ENDCHAR
STARTCHAR 017B
ENCODING 379
SWIDTH 565 0
DWIDTH 22 0
BBX 20 36 1 0
BITMAP
002000
00F000
00F000
00F000
006000
000000
000000
000000
7FFFE0
7FFFE0
7FFFE0
0001E0
0003C0
0003C0
000780
000F00
000F00
001E00
003C00
003C00
007800
00F000
00F000
01E000
03C000
03C000
078000
0F0000
0F0000
1E0000
3C0000
3C0000
780000
FFFFF0
FFFFF0
FFFFF0
ENDCHAR
STARTCHAR 017C
ENCODING 380
SWIDTH 462 0
DWIDTH 18 0
BBX 15 29 2 0
BITMAP
0300
0780
0780
0780
0300
0000
0000
0000
FFFC
FFFC
FFFC
003C
0038
0078
00F0
01E0
01C0
03C0
0780
0700
0F00
1E00
3C00
3800
7800
F000
FFFE
FFFE
FFFE
ENDCHAR
STARTCHAR 017D
ENCODING 381
SWIDTH 565 0
DWIDTH 22 0
BBX 20 37 1 0
BITMAP
0C0380
0F0700
078E00
03DC00
01F800
00F800
00F000
000000
000000
7FFFE0
7FFFE0
7FFFE0
0001E0
0003C0
0003C0
000780
000F00
000F00
001E00
003C00
003C00
007800
00F000
00F000
01E000
03C000
03C000
078000
0F0000
0F0000
1E0000
3C0000
3C0000
780000
FFFFF0
FFFFF0
FFFFF0
ENDCHAR
STARTCHAR 017E
ENCODING 382
SWIDTH 462 0
DWIDTH 18 0
BBX 15 30 2 0
BITMAP
601C
7838
3CF0
1FE0
0FC0
0780
0000
0000
0000
FFFC
FFFC
FFFC
003C
0038
0078
00F0
01E0
01C0
03C0
0780
0700
0F00
1E00
3C00
3800
7800
F000
FFFE
FFFE
FFFE
ENDCHAR
STARTCHAR 017F
ENCODING 383
SWIDTH 308 0
DWIDTH 12 0
BBX 11 30 3 0
BITMAP
03C0
1FE0
3FE0
7800
7000
F000
F000
F000
F000
F000
F000
F000
F000
F000
F000
F000
F000
F000
F000
F000
F000
F000
F000
F000
F000
F000
F000
F000
F000
F000
ENDCHAR
STARTCHAR 0180
ENCODING 384
SWIDTH 591 0
DWIDTH 23 0
BBX 22 30 0 0
BITMAP
1E0000
1E0000
1E0000
1E0000
FFFE00
FFFE00
1E0000
1E0000
1E0000
1E3F80
1EFFC0
1FFFE0
1F80F0
1F0078
1F0078
1E0038
1E003C
1E003C
1E003C
1E003C
1E003C
1E003C
1E003C
1E0038
1E0078
1F0078
1F80F0
1DF7F0
1CFFE0
1C7F80
ENDCHAR
STARTCHAR 0181
ENCODING 385
SWIDTH 720 0
DWIDTH 28 0
BBX 26 28 0 0
BITMAP
0FFFC000
3FFFFC00
7FFFFF00
79C03F00
F1C00F80
F1C00780
71C00380
01C00380
01C00380
01C00780
01C00780
01C01F00
01FFFC00
01FFF000
01FFFE00
01C01F80
01C00780
01C003C0
01C003C0
01C001C0
01C001C0
01C003C0
01C003C0
01C007C0
01C00F80
01FFFF00
01FFFE00
01FFF800
ENDCHAR
STARTCHAR 0182
ENCODING 386
SWIDTH 591 0
DWIDTH 23 0
BBX 18 28 4 0
BITMAP
FFFF00
FFFF00
FFFF00
E00000
E00000
E00000
E00000
E00000
E00000
E00000
E00000
E00000
FFF000
FFFE00
FFFF00
E01F80
E00780
E003C0
E003C0
E003C0
E003C0
E003C0
E003C0
E00780
E01F80
FFFF00
FFFE00
FFF000
ENDCHAR
STARTCHAR 0183
ENCODING 387
SWIDTH 591 0
DWIDTH 23 0
BBX 19 30 3 0
BITMAP
FFFF80
FFFF80
FFFF80
F00000
F00000
F00000
F00000
F00000
F00000
F1FC00
F7FE00
FFFF00
FC0780
F803C0
F803C0
F001C0
F001E0
F001E0
F001E0
F001E0
F001E0
F001E0
F001E0
F001C0
F003C0
F803C0
FC0780
EFBF80
E7FF00
E3FC00
ENDCHAR
STARTCHAR 0184
ENCODING 388
SWIDTH 617 0
DWIDTH 24 0
BBX 20 28 3 0
BITMAP
F00000
F00000
F00000
F00000
F00000
F00000
F00000
F00000
F00000
F00000
F00000
F00000
FFFC00
FFFF00
FFFFC0
F007C0
F001E0
F001E0
F000F0
F000F0
7000F0
7000F0
7000E0
7801E0
3C03E0
3FFFC0
1FFF80
07FE00
ENDCHAR
STARTCHAR 0185
ENCODING 389
SWIDTH 591 0
DWIDTH 23 0
BBX 19 30 3 0
BITMAP
F00000
F00000
F00000
F00000
F00000
F00000
F00000
F00000
F00000
F3FC00
F7FE00
EFFF00
FC0780
F803C0
F003C0
F001C0
F001C0
F001E0
F001E0
F001E0
F001E0
F001E0
F001C0
7001C0
7803C0
7803C0
3C0780
1FBF00
0FFE00
07FC00
ENDCHAR
STARTCHAR 0186
ENCODING 390
SWIDTH 617 0
DWIDTH 24 0
BBX 21 28 1 0
BITMAP
1FF800
FFFE00
7FFF80
700FC0
0003E0
0001E0
0001F0
0000F0
000070
000078
000078
000078
000078
000078
000078
000078
000078
000078
000078
000070
0000F0
0000F0
0001E0
0003E0
400FC0
7FFF80
7FFE00
3FF800
ENDCHAR
STARTCHAR 0187
ENCODING 391
SWIDTH 617 0
DWIDTH 24 0
BBX 25 33 2 0
BITMAP
00000F80
00001F80
00001F80
00003800
00003800
007FF800
01FFF800
07FFF800
0FC07000
1F000000
1E000000
3C000000
3C000000
78000000
78000000
70000000
70000000
F0000000
F0000000
F0000000
F0000000
F0000000
70000000
78000000
78000000
78000000
3C000000
3E000000
1F000000
0F801000
0FFFF000
03FFF000
00FFF000
ENDCHAR
STARTCHAR 0188
ENCODING 392
SWIDTH 488 0
DWIDTH 19 0
BBX 19 30 2 0
BITMAP
0001E0
0003E0
0007E0
000700
000E00
000E00
000E00
000E00
000E00
03FE00
0FFE00
1FFE00
3E0000
780000
780000
700000
F00000
F00000
F00000
F00000
F00000
F00000
F00000
700000
780000
780000
3C0200
1FFE00
0FFE00
07FC00
ENDCHAR
STARTCHAR 0189
ENCODING 393
SWIDTH 720 0
DWIDTH 28 0
BBX 25 28 1 0
BITMAP
1FFE0000
1FFFC000
1FFFF000
1E03F800
1E007C00
1E003E00
1E001E00
1E000F00
1E000F00
1E000780
1E000780
1E000780
1E000780
FFF80780
FFF80780
FFF80780
1E000780
1E000780
1E000780
1E000F00
1E000F00
1E001E00
1E003E00
1E007C00
1E03F800
1FFFF000
1FFFC000
1FFE0000
ENDCHAR
STARTCHAR 018A
ENCODING 394
SWIDTH 797 0
DWIDTH 31 0
BBX 29 28 0 0
BITMAP
0FFFC000
3FFFFC00
7FFFFF00
79C03F80
F1C007C0
F1C003E0
71C001F0
01C000F0
01C000F0
01C00078
01C00078
01C00078
01C00078
01C00078
01C00078
01C00078
01C00078
01C00078
01C00078
01C000F0
01C000F0
01C001F0
01C003E0
01C007C0
01C03F80
01FFFF00
01FFFC00
01FFE000
ENDCHAR
STARTCHAR 018B
ENCODING 395
SWIDTH 591 0
DWIDTH 23 0
BBX 18 28 2 0
BITMAP
3FFFC0
3FFFC0
3FFFC0
0001C0
0001C0
0001C0
0001C0
0001C0
0001C0
0001C0
0001C0
0001C0
03FFC0
0FFFC0
3FFFC0
7E01C0
7801C0
F001C0
F001C0
F001C0
F001C0
F001C0
F001C0
7801C0
7E01C0
3FFFC0
1FFFC0
03FFC0
ENDCHAR
STARTCHAR 018C
ENCODING 396
SWIDTH 591 0
DWIDTH 23 0
BBX 19 30 2 0
BITMAP
3FFFE0
3FFFE0
3FFFE0
0001E0
0001E0
0001E0
0001E0
0001E0
0001E0
07F1E0
0FFDE0
3FFFE0
3C07E0
7803E0
7803E0
7001E0
F001E0
F001E0
F001E0
F001E0
F001E0
F001E0
F001E0
F001E0
7801E0
7803E0
3C07E0
3FBFE0
1FFCE0
07F8E0
ENDCHAR
STARTCHAR 018D
ENCODING 397
SWIDTH 591 0
DWIDTH 23 0
BBX 19 30 3 -9
BITMAP
07F800
1FFE00
3FFF00
7C0F80
7803C0
F003C0
E001C0
E001E0
E001E0
E001E0
E001E0
E001C0
F001C0
7003C0
780780
3C0F00
1F3E00
0FFC00
03F000
01F800
007C00
001E00
000E00
000E00
000E00
200E00
781E00
7FFC00
3FF800
0FE000
ENDCHAR
STARTCHAR 018E
ENCODING 398
SWIDTH 540 0
DWIDTH 21 0
BBX 16 28 2 0
BITMAP
FFFF
FFFF
FFFF
000F
000F
000F
000F
000F
000F
000F
000F
000F
7FFF
7FFF
7FFF
000F
000F
000F
000F
000F
000F
000F
000F
000F
000F
FFFF
FFFF
FFFF
ENDCHAR
STARTCHAR 018F
ENCODING 399
SWIDTH 720 0
DWIDTH 28 0
BBX 24 28 2 0
BITMAP
07FF00
3FFFC0
3FFFF0
3801F8
00007C
00003C
00001E
00001E
00000F
00000F
00000F
000007
000007
FFFFFF
FFFFFF
FFFFFF
F00007
F0000F
70000F
70000F
78000E
78001E
3C003C
3C007C
1F00F8
0FFFF0
07FFE0
01FF80
ENDCHAR
STARTCHAR 0190
ENCODING 400
SWIDTH 565 0
DWIDTH 22 0
BBX 19 28 2 0
BITMAP
03FE00
0FFF80
1FFFE0
3E01E0
3C0040
780000
780000
780000
380000
3C0000
3E0000
1F0000
07FF00
01FF00
0FFF00
3F0000
7C0000
780000
F00000
F00000
F00000
F00000
F00000
780000
7C0060
3FFFE0
1FFFE0
07FF80
ENDCHAR
STARTCHAR 0191
ENCODING 401
SWIDTH 565 0
DWIDTH 22 0
BBX 23 37 -1 -9
BITMAP
00FFFE
00FFFE
00FFFE
00F000
00F000
00F000
00F000
00F000
00F000
00F000
00F000
00F000
00FFFC
00FFFC
00FFFC
00F000
00F000
00F000
00F000
00F000
00F000
00F000
00F000
00F000
00F000
00F000
00F000
00F000
00F000
00F000
60F000
F0F000
F0F000
F1E000
7FE000
7FC000
3F8000
ENDCHAR
STARTCHAR 0192
ENCODING 402
SWIDTH 411 0
DWIDTH 16 0
BBX 19 39 -1 -9
BITMAP
000780
003FE0
007FC0
007840
00F000
00F000
00E000
00E000
00E000
03FF80
0FFF80
0FFF80
00E000
00E000
00E000
00E000
00E000
00E000
00E000
00E000
00E000
00E000
00E000
00E000
00E000
00E000
00E000
00E000
00E000
00E000
00E000
00E000
00E000
70E000
F0E000
70E000
7BE000
3FC000
1F8000
ENDCHAR
STARTCHAR 0193
ENCODING 403
SWIDTH 720 0
DWIDTH 28 0
BBX 27 33 2 0
BITMAP
000003E0
000007E0
00000FE0
00000E00
00000E00
003FFE00
01FFFE00
03FFFE00
0FE01C00
1F800000
1E000000
3C000000
3C000000
78000000
78000000
70000000
70000000
F0000000
F003FE00
F003FE00
F003FE00
F0000E00
70000E00
78000E00
78000E00
78000E00
3C000E00
3E000E00
1F000E00
0FC00E00
07FFFE00
03FFFE00
00FFF800
ENDCHAR
STARTCHAR 0194
ENCODING 404
SWIDTH 565 0
DWIDTH 22 0
BBX 22 37 0 -9
BITMAP
F0003C
F0003C
780038
780078
380078
3C00F0
3C00F0
1C00E0
1E01E0
0E01E0
0F01C0
0F03C0
070380
078780
038780
038700
03CF00
01CE00
01CE00
01FE00
00FC00
00FC00
007800
007800
007800
00FC00
00FC00
00FE00
01CE00
01CE00
01CE00
01CF00
01CF00
01CE00
01FE00
01FE00
00FC00
ENDCHAR
STARTCHAR 0195
ENCODING 405
SWIDTH 925 0
DWIDTH 36 0
BBX 30 30 3 0
BITMAP
F0000000
F0000000
F0000000
F0000000
F0000000
F0000000
F0000000
F0000000
F0000000
F1FC001C
F7FE001C
FFFF001C
FC0F001C
F807801C
F007801C
F007801C
F003801C
F003801C
F003801C
F003801C
F003801C
F003801C
F003801C
F003801C
F003803C
F003C03C
F003C078
F001FFF8
F000FFF0
F0007FC0
ENDCHAR
STARTCHAR 0196
ENCODING 406
SWIDTH 334 0
DWIDTH 13 0
BBX 10 28 3 0
BITMAP
F000
F000
F000
F000
F000
F000
F000
F000
F000
F000
F000
F000
F000
F000
F000
F000
F000
F000
F000
F000
F000
F000
F000
7000
7800
7FC0
3FC0
1FC0
ENDCHAR
STARTCHAR 0197
ENCODING 407
SWIDTH 334 0
DWIDTH 13 0
BBX 11 28 1 0
BITMAP
7FE0
7FE0
3FC0
0E00
0E00
0E00
0E00
0E00
0E00
0E00
0E00
0E00
FFE0
FFE0
FFE0
0E00
0E00
0E00
0E00
0E00
0E00
0E00
0E00
0E00
0E00
1F80
7FE0
7FE0
ENDCHAR
STARTCHAR 0198
ENCODING 408
SWIDTH 617 0
DWIDTH 24 0
BBX 20 28 4 0
BITMAP
E001E0
E003E0
E007E0
E00F00
E01E00
E03C00
E03C00
E07800
E0F000
E1E000
E3C000
E38000
E78000
EFC000
FFC000
FDE000
F0F000
E0F800
E07800
E03C00
E01E00
E01E00
E00F00
E00780
E007C0
E003C0
E001E0
E000F0
ENDCHAR
STARTCHAR 0199
ENCODING 409
SWIDTH 514 0
DWIDTH 20 0
BBX 17 30 3 0
BITMAP
0E0000
3F0000
7F0000
790000
F00000
F00000
F00000
F00000
F00000
F00F80
F00F00
F01E00
F03C00
F07800
F0F000
F1E000
F3C000
F78000
FF8000
FF8000
FFC000
F9E000
F0F000
F0F800
F07800
F03C00
F01E00
F01F00
F00F00
F00780
ENDCHAR
STARTCHAR 019A
ENCODING 410
SWIDTH 257 0
DWIDTH 10 0
BBX 8 30 1 0
BITMAP
3C
3C
3C
3C
3C
3C
3C
3C
3C
3C
3C
3C
3C
3C
FF
FF
3C
3C
3C
3C
3C
3C
3C
3C
3C
3C
3C
3C
3C
3C
ENDCHAR
STARTCHAR 019B
ENCODING 411
SWIDTH 540 0
DWIDTH 21 0
BBX 21 30 0 0
BITMAP
3E0000
3F0000
3F8000
03DE00
01FE00
0FF800
1FE000
1CF000
00F000
007000
00F800
00F800
01F800
01FC00
01DC00
039C00
039E00
078E00
070E00
0F0F00
0E0700
1E0780
1E0780
1C0380
3C03C0
3801C0
7801C0
7001F0
F000F8
F000F8
ENDCHAR
STARTCHAR 019C
ENCODING 412
SWIDTH 1028 0
DWIDTH 40 0
BBX 33 28 3 0
BITMAP
F001E00380
F001E00380
F001E00380
F001E00380
F001E00380
F001E00380
F001E00380
F001E00380
F001E00380
F001E00380
F001E00380
F001E00380
F001E00380
F001E00380
F001E00380
F001E00380
F001E00380
F001E00380
F001E00380
F001E00780
F001E00780
7001E00780
7003E00780
7803E00F80
7C0FF01F80
3FFEFFFB80
3FFC7FF380
0FF01FE380
ENDCHAR
STARTCHAR 019D
ENCODING 413
SWIDTH 745 0
DWIDTH 29 0
BBX 26 37 0 -9
BITMAP
0F0001C0
0F8001C0
0F8001C0
0FC001C0
0FE001C0
0FE001C0
0EF001C0
0EF801C0
0E7801C0
0E3C01C0
0E3C01C0
0E1E01C0
0E0F01C0
0E0F01C0
0E0781C0
0E03C1C0
0E03C1C0
0E01E1C0
0E00F1C0
0E00F1C0
0E0079C0
0E003DC0
0E003DC0
0E001FC0
0E001FC0
0E000FC0
0E0007C0
0E0007C0
0E000000
0E000000
0E000000
0E000000
0E000000
1E000000
FC000000
FC000000
F8000000
ENDCHAR
STARTCHAR 019E
ENCODING 414
SWIDTH 617 0
DWIDTH 24 0
BBX 18 30 3 -9
BITMAP
E1FC00
E7FF00
EFFF00
FC0780
F80780
F80380
F00380
F003C0
F003C0
F003C0
F003C0
F003C0
F003C0
F003C0
F003C0
F003C0
F003C0
F003C0
F003C0
F003C0
F003C0
0003C0
0003C0
0003C0
0003C0
0003C0
0003C0
0003C0
0003C0
0003C0
ENDCHAR
STARTCHAR 019F
ENCODING 415
SWIDTH 771 0
DWIDTH 30 0
BBX 26 28 2 0
BITMAP
00FFC000
03FFF000
07FFFC00
0F807E00
1F001E00
3E000F00
3C000F80
78000780
78000780
780003C0
700003C0
F00003C0
FFFFFFC0
FFFFFFC0
FFFFFFC0
F00003C0
F00003C0
700003C0
780003C0
78000380
78000780
3C000780
3C000F00
1E001E00
0F803E00
07FFFC00
03FFF000
00FFE000
ENDCHAR
STARTCHAR 01A0
ENCODING 416
SWIDTH 771 0
DWIDTH 30 0
BBX 29 30 2 0
BITMAP
00000078
00000078
00FFC078
03FFF078
07FFFC70
0F807EF0
1F001FE0
3E000F80
3C000700
78000780
78000780
780003C0
700003C0
F00003C0
F00003C0
F00003C0
F00003C0
F00003C0
F00003C0
700003C0
780003C0
78000780
78000780
3C000780
3C000F00
1E001E00
0F807E00
0FFFFC00
03FFF000
00FFE000
ENDCHAR
STARTCHAR 01A1
ENCODING 417
SWIDTH 591 0
DWIDTH 23 0
BBX 23 24 2 0
BITMAP
00001E
00001E
00001E
03FC1C
0FFE3C
1FFFF8
3C07F0
7803C0
7801E0
7001E0
F000E0
F000E0
F000E0
F000E0
F000E0
F000E0
F000E0
7001E0
7801E0
7803C0
3C07C0
1FBF80
0FFF00
07FC00
ENDCHAR
STARTCHAR 01A2
ENCODING 418
SWIDTH 1054 0
DWIDTH 41 0
BBX 36 28 2 0
BITMAP
00FF807F80
03FFE1FFC0
07FFF3FFE0
0F80FF81F0
1E003E00F0
3C001E00F0
3C001E0070
78000F0070
78000F0070
7800070070
7000070070
F000078070
F000078070
F000078070
F000078070
F000078070
F000078070
7000078070
7800070070
78000F0070
78000F0070
3C000E0070
3C001E0070
1E003C0070
1F807C0070
0FFFF80070
03FFE00070
01FFC00070
ENDCHAR
STARTCHAR 01A3
ENCODING 419
SWIDTH 822 0
DWIDTH 32 0
BBX 28 30 2 -9
BITMAP
07F83F80
0FFE7FC0
1FFFFFE0
3C0FC1E0
780780E0
7803C0F0
7003C0F0
F001C0F0
F001C0F0
F001C0F0
F001C0F0
F001C0F0
F001C0F0
F001C0F0
7003C0F0
7803C0F0
780780F0
3C0780F0
1FBF00F0
0FFE00F0
07F800F0
000000F0
000000F0
000000F0
000000F0
000000F0
000000F0
000000F0
000000F0
000000F0
ENDCHAR
STARTCHAR 01A4
ENCODING 420
SWIDTH 668 0
DWIDTH 26 0
BBX 25 28 0 0
BITMAP
0FFFC000
3FFFF800
7FFFFC00
79C0FE00
F1C01F00
F1C00F00
71C00700
01C00780
01C00780
01C00780
01C00700
01C00F00
01C00F00
01C03E00
01FFFC00
01FFF800
01FFE000
01C00000
01C00000
01C00000
01C00000
01C00000
01C00000
01C00000
01C00000
01C00000
01C00000
01C00000
ENDCHAR
STARTCHAR 01A5
ENCODING 421
SWIDTH 591 0
DWIDTH 23 0
BBX 19 39 3 -9
BITMAP
0E0000
3F0000
7F0000
790000
F00000
F00000
F00000
F00000
F00000
F1FC00
F7FE00
FFFF00
FC0780
F803C0
F803C0
F001C0
F001E0
F001E0
F001E0
F001E0
F001E0
F001E0
F001E0
F001C0
F803C0
F803C0
FC0780
FFBF80
F7FF00
F3FC00
F00000
F00000
F00000
F00000
F00000
F00000
F00000
F00000
F00000
ENDCHAR
STARTCHAR 01A6
ENCODING 422
SWIDTH 617 0
DWIDTH 24 0
BBX 19 32 4 -4
BITMAP
E00000
E00000
E00000
E00000
FFE000
FFFC00
FFFF00
E03F00
E00F80
E00780
E00380
E003C0
E003C0
E00380
E00380
E00780
E00F00
FFFE00
FFFC00
FFF000
E07800
E07800
E03C00
E01C00
E01E00
E00F00
E00F00
E00780
0003C0
0003C0
0001E0
0001E0
ENDCHAR
STARTCHAR 01A7
ENCODING 423
SWIDTH 540 0
DWIDTH 21 0
BBX 17 28 2 0
BITMAP
0FF800
3FFE00
3FFF00
380F80
000780
000380
000380
000380
000380
000780
000F80
003F00
00FE00
07FC00
0FF000
3F8000
7E0000
F80000
F00000
F00000
E00000
E00000
F00000
F00000
780180
3FFF80
1FFF80
0FFF00
ENDCHAR
STARTCHAR 01A8
ENCODING 424
SWIDTH 462 0
DWIDTH 18 0
BBX 15 21 2 0
BITMAP
3FE0
7FF8
7FFC
201C
001E
001E
001E
003C
01FC
07F0
1FE0
7F00
FC00
F000
E000
E000
E000
F006
7E3E
7FFE
1FFC
ENDCHAR
STARTCHAR 01A9
ENCODING 425
SWIDTH 565 0
DWIDTH 22 0
BBX 20 28 1 0
BITMAP
7FFFE0
7FFFE0
7FFFE0
7C0000
3C0000
1E0000
0F0000
078000
07C000
03E000
01E000
00F000
007800
003800
007800
00F000
01E000
01C000
03C000
078000
0F0000
1E0000
1C0000
3C0000
780000
FFFFF0
FFFFF0
FFFFF0
ENDCHAR
STARTCHAR 01AA
ENCODING 426
SWIDTH 334 0
DWIDTH 13 0
BBX 16 39 0 -9
BITMAP
1C00
7F00
FF80
E380
E3C0
E3C0
FFC0
7FC0
3FC0
03C0
03C0
03C0
03C0
03C0
03C0
03C0
03C0
03C0
03C0
03C0
03C0
03C0
03C0
03C0
03C0
03C0
03C0
03C0
03C0
03C0
03C0
03C0
03C0
03C0
03C0
03C0
01F7
01FF
007F
ENDCHAR
STARTCHAR 01AB
ENCODING 427
SWIDTH 360 0
DWIDTH 14 0
BBX 12 35 1 -9
BITMAP
0C00
0C00
1C00
1C00
1C00
7FF0
FFF0
FFF0
1C00
1C00
1C00
1C00
1C00
1C00
1C00
1C00
1C00
1C00
1C00
1C00
1C00
1C00
1E00
1FB0
0FF0
07F0
0070
0070
0070
0070
0070
0070
07F0
07E0
07E0
ENDCHAR
STARTCHAR 01AC
ENCODING 428
SWIDTH 565 0
DWIDTH 22 0
BBX 22 28 0 0
BITMAP
0FFFFC
3FFFFC
7FFFFC
783800
F03800
F03800
703800
003800
003800
003800
003800
003800
003800
003800
003800
003800
003800
003800
003800
003800
003800
003800
003800
003800
003800
003800
003800
003800
ENDCHAR
STARTCHAR 01AD
ENCODING 429
SWIDTH 360 0
DWIDTH 14 0
BBX 12 30 1 0
BITMAP
01C0
0FE0
1FE0
1E00
1C00
1C00
1C00
1C00
1C00
7FF0
FFF0
FFF0
1C00
1C00
1C00
1C00
1C00
1C00
1C00
1C00
1C00
1C00
1C00
1C00
1C00
1C00
1E00
1FB0
0FF0
07F0
ENDCHAR
STARTCHAR 01AE
ENCODING 430
SWIDTH 540 0
DWIDTH 21 0
BBX 21 37 0 -9
BITMAP
FFFFF8
FFFFF8
FFFFF8
007800
007800
007800
007800
007800
007800
007800
007800
007800
007800
007800
007800
007800
007800
007800
007800
007800
007800
007800
007800
007800
007800
007800
007800
007800
007800
007800
007800
007800
007800
007800
003F80
003F80
001F80
ENDCHAR
STARTCHAR 01AF
ENCODING 431
SWIDTH 771 0
DWIDTH 30 0
BBX 29 30 3 0
BITMAP
00000078
00000078
F0003C70
F0003C70
F0003CF0
F0003DE0
F0003FC0
F0003F80
F0003C00
F0003C00
F0003C00
F0003C00
F0003C00
F0003C00
F0003C00
F0003C00
F0003C00
F0003C00
F0003C00
F0003C00
F0003C00
70003C00
70003C00
78003800
78007800
3C007800
3E01F000
1FFFE000
0FFFC000
03FF8000
ENDCHAR
STARTCHAR 01B0
ENCODING 432
SWIDTH 668 0
DWIDTH 26 0
BBX 25 24 3 0
BITMAP
00000780
00000700
00000F00
F003CF00
F003CE00
F003FC00
F003FC00
F003E000
F003C000
F003C000
F003C000
F003C000
F003C000
F003C000
F003C000
F003C000
F003C000
F003C000
F003C000
F007C000
780FC000
7FFFC000
3FF9C000
1FF1C000
ENDCHAR
STARTCHAR 01B1
ENCODING 433
SWIDTH 771 0
DWIDTH 30 0
BBX 28 28 1 0
BITMAP
FFF07FF0
FFF07FF0
FFF07FF0
01E07800
03C01C00
07800E00
0F000F00
0E000780
1E000380
1C0003C0
3C0003C0
3C0001C0
380001E0
380001E0
780001E0
780001E0
780001E0
780001E0
380001E0
3C0001E0
3C0003C0
3C0003C0
1E000780
1F000F80
0FC01F00
07FFFE00
01FFFC00
007FF000
ENDCHAR
STARTCHAR 01B2
ENCODING 434
SWIDTH 720 0
DWIDTH 28 0
BBX 22 28 3 0
BITMAP
F007F0
F007F8
F007F8
F0003C
F0003C
F0003C
F0003C
F0003C
F0003C
F0003C
F0003C
F0003C
F0003C
F0003C
F0003C
F0003C
F0003C
F0003C
F0003C
70003C
70003C
780038
780078
3C0078
3E01F0
1FFFE0
0FFFC0
03FF00
ENDCHAR
STARTCHAR 01B3
ENCODING 435
SWIDTH 565 0
DWIDTH 22 0
BBX 22 28 0 0
BITMAP
F0003C
70007C
7800FC
3C00E0
3C01E0
1E01C0
1E03C0
0F0380
0F0780
078700
038F00
03CF00
01CE00
01FE00
00FC00
00FC00
007800
007800
007800
007800
007800
007800
007800
007800
007800
007800
007800
007800
ENDCHAR
STARTCHAR 01B4
ENCODING 436
SWIDTH 540 0
DWIDTH 21 0
BBX 21 30 0 -9
BITMAP
F00078
7000F8
7801F8
7801E0
3801C0
3C03C0
1C0380
1C0380
1E0780
0E0700
0F0F00
070E00
070E00
079E00
039C00
039C00
01FC00
01F800
01F800
00F000
00F000
00F000
00E000
00E000
01E000
01C000
03C000
DF8000
FF0000
FE0000
ENDCHAR
STARTCHAR 01B5
ENCODING 437
SWIDTH 565 0
DWIDTH 22 0
BBX 20 28 1 0
BITMAP
7FFFE0
7FFFE0
7FFFE0
0001E0
0003C0
0003C0
000780
000F00
000F00
001E00
003C00
003C00
3FFFC0
3FFFC0
3FFFC0
01E000
03C000
03C000
078000
0F0000
0F0000
1E0000
3C0000
3C0000
780000
FFFFF0
FFFFF0
FFFFF0
ENDCHAR
STARTCHAR 01B6
ENCODING 438
SWIDTH 462 0
DWIDTH 18 0
BBX 15 21 2 0
BITMAP
FFFC
FFFC
FFFC
003C
0038
0078
00F0
01E0
01C0
FFFC
FFFC
FFFC
0F00
1E00
3C00
3800
7800
F000
FFFE
FFFE
FFFE
ENDCHAR
STARTCHAR 01B7
ENCODING 439
SWIDTH 565 0
DWIDTH 22 0
BBX 20 28 1 0
BITMAP
7FFFC0
7FFFC0
7FFFC0
0003C0
000780
000F00
001E00
003C00
007800
00F000
01E000
03C000
07F000
07FE00
07FF80
000FC0
0003E0
0001E0
0000E0
0000F0
0000F0
0000E0
0001E0
0001E0
C007C0
FF7F80
FFFF00
3FFC00
ENDCHAR
STARTCHAR 01B8
ENCODING 440
SWIDTH 565 0
DWIDTH 22 0
BBX 19 28 2 0
BITMAP
7FFFE0
7FFFE0
7FFFE0
3C0000
1E0000
0F0000
078000
03C000
01E000
00F000
007800
03FC00
0FFC00
1FFC00
3E0000
780000
780000
F00000
F00000
F00000
F00000
F00000
700000
780000
3C0060
3FFFE0
0FFFE0
07FFC0
ENDCHAR
STARTCHAR 01B9
ENCODING 441
SWIDTH 488 0
DWIDTH 19 0
BBX 18 30 1 -9
BITMAP
7FFF80
7FFF80
7FFF80
3C0000
1E0000
0F0000
078000
038000
01C000
00E000
00F000
007800
01FC00
07FC00
1FFC00
3F0000
3C0000
780000
700000
F00000
F00000
F00000
F00000
700000
780000
780000
3E00C0
1FFFC0
0FFFC0
03FF80
ENDCHAR
STARTCHAR 01BA
ENCODING 442
SWIDTH 488 0
DWIDTH 19 0
BBX 16 30 1 -9
BITMAP
FFFE
FFFE
FFFE
003C
0078
00F0
01E0
03C0
0F80
1FE0
1FFC
1FFE
001F
000F
0007
0007
0007
0007
0007
000F
001E
1FFE
7FF8
7FE0
F000
E000
F004
FFFC
7FFC
1FF8
ENDCHAR
STARTCHAR 01BB
ENCODING 443
SWIDTH 565 0
DWIDTH 22 0
BBX 18 30 2 0
BITMAP
03E000
1FF800
7FFC00
FC3E00
701E00
000F00
000F00
000F00
000F00
000F00
000F00
000E00
001E00
001C00
7FFFC0
7FFFC0
00F000
00F000
01E000
03C000
078000
0F0000
0E0000
1E0000
3C0000
780000
F00000
FFFFC0
FFFFC0
FFFFC0
ENDCHAR
STARTCHAR 01BC
ENCODING 444
SWIDTH 565 0
DWIDTH 22 0
BBX 20 28 1 0
BITMAP
7FFFC0
7FFFC0
7FFFC0
0F0000
0F0000
0F0000
0F0000
0F0000
0F0000
0F0000
0F0000
0FFC00
0FFF00
0FFF80
0007C0
0003E0
0001E0
0000E0
0000F0
0000F0
0000F0
0000E0
0001E0
0003E0
C007C0
FF7F80
FFFF00
3FFC00
ENDCHAR
STARTCHAR 01BD
ENCODING 445
SWIDTH 488 0
DWIDTH 19 0
BBX 16 21 1 0
BITMAP
7FFE
7FFE
7FFE
1E00
1E00
1E00
1E00
1E00
1FF8
1FFE
00FE
000F
0007
0007
0007
0007
000F
C01E
FCFE
FFFC
7FF0
ENDCHAR
STARTCHAR 01BE
ENCODING 446
SWIDTH 462 0
DWIDTH 18 0
BBX 15 26 1 0
BITMAP
0300
0700
0700
0700
0F00
3FFC
7FFC
7FFC
0F00
0F00
0F00
0F00
0F00
0700
07C0
03F0
01FC
007E
001E
000E
000E
000E
C01E
F8FC
FFF8
7FF0
ENDCHAR
STARTCHAR 01BF
ENCODING 447
SWIDTH 565 0
DWIDTH 22 0
BBX 18 30 3 -9
BITMAP
E3FC00
E7FE00
FFFF00
FC0F80
F80780
F003C0
F003C0
F003C0
F003C0
F003C0
F003C0
F003C0
F00380
F00780
F00F00
F01F00
F03E00
F0FC00
FFF800
FFE000
FF0000
F00000
F00000
F00000
F00000
F00000
F00000
F00000
F00000
F00000
ENDCHAR
STARTCHAR 01C0
ENCODING 448
SWIDTH 334 0
DWIDTH 13 0
BBX 3 30 5 0
BITMAP
E0
E0
E0
E0
E0
E0
E0
E0
E0
E0
E0
E0
E0
E0
E0
E0
E0
E0
E0
E0
E0
E0
E0
E0
E0
E0
E0
E0
E0
E0
ENDCHAR
STARTCHAR 01C1
ENCODING 449
SWIDTH 540 0
DWIDTH 21 0
BBX 12 30 5 0
BITMAP
E070
E070
E070
E070
E070
E070
E070
E070
E070
E070
E070
E070
E070
E070
E070
E070
E070
E070
E070
E070
E070
E070
E070
E070
E070
E070
E070
E070
E070
E070
ENDCHAR
STARTCHAR 01C2
ENCODING 450
SWIDTH 514 0
DWIDTH 20 0
BBX 15 30 3 0
BITMAP
0380
0380
0380
0380
0380
0380
0380
0380
0380
0380
FFFE
FFFE
FFFE
0380
0380
0380
0380
FFFE
FFFE
FFFE
0380
0380
0380
0380
0380
0380
0380
0380
0380
0380
ENDCHAR
STARTCHAR 01C3
ENCODING 451
SWIDTH 257 0
DWIDTH 10 0
BBX 5 29 3 -1
BITMAP
F0
F0
F0
F0
F0
F0
F0
70
70
70
70
70
70
70
70
70
70
60
60
60
00
00
00
60
F0
F8
F8
F0
20
ENDCHAR
STARTCHAR 01C4
ENCODING 452
SWIDTH 1285 0
DWIDTH 50 0
BBX 45 37 4 0
BITMAP
0000000601C0
000000078380
00000003C700
00000001EE00
00000000FC00
000000007C00
000000007800
000000000000
000000000000
FFF0003FFFF0
FFFE003FFFF0
FFFF803FFFF0
E01FC00000F0
E003E00001E0
E001F00001E0
E000F00003C0
E00078000780
E00078000780
E0003C000F00
E0003C001E00
E0003C001E00
E0003C003C00
E0003C007800
E0003C007800
E0003C00F000
E0003C01E000
E0003C01E000
E0003C03C000
E00078078000
E00078078000
E000F00F0000
E001F01E0000
E003E01E0000
E01FC03C0000
FFFF807FFFF8
FFFE007FFFF8
FFF0007FFFF8
ENDCHAR
STARTCHAR 01C5
ENCODING 453
SWIDTH 1182 0
DWIDTH 46 0
BBX 41 30 4 0
BITMAP
0000001C0700
0000000E0E00
FFF000071C00
FFFE0007BC00
FFFF8003F800
E01FC001F000
E003E0000000
E001F0000000
E000F0000000
E000781FFF80
E000781FFF80
E0003C1FFF80
E0003C000700
E0003C000F00
E0003C001E00
E0003C003C00
E0003C003C00
E0003C007800
E0003C00F000
E0003C00E000
E0003C01E000
E0007803C000
E00078038000
E000F0078000
E001F00F0000
E003E01E0000
E01FC01C0000
FFFF803FFF80
FFFE003FFF80
FFF0003FFF80
ENDCHAR
STARTCHAR 01C6
ENCODING 454
SWIDTH 1080 0
DWIDTH 42 0
BBX 39 30 2 0
BITMAP
0001E0E01C
0001E07878
0001E03CF0
0001E01FE0
0001E00FC0
0001E00780
0001E00000
0001E00000
0001E00000
07F1E0FFFC
0FFDE0FFFC
3FFFE0FFFC
3C07E0003C
7803E00078
7803E00070
7001E000F0
F001E001E0
F001E001C0
F001E003C0
F001E00780
F001E00700
F001E00F00
F001E01E00
F001E03C00
7801E03800
7803E07800
3C07E0F000
3FBFE0FFFE
1FFCE1FFFE
07F8E1FFFE
ENDCHAR
STARTCHAR 01C7
ENCODING 455
SWIDTH 797 0
DWIDTH 31 0
BBX 23 35 4 -7
BITMAP
E0000E
E0000E
E0000E
E0000E
E0000E
E0000E
E0000E
E0000E
E0000E
E0000E
E0000E
E0000E
E0000E
E0000E
E0000E
E0000E
E0000E
E0000E
E0000E
E0000E
E0000E
E0000E
E0000E
E0000E
E0000E
FFFE0E
FFFE0E
FFFE0E
00000E
00000E
00001E
00001E
0007FC
0007F8
0007F0
ENDCHAR
STARTCHAR 01C8
ENCODING 456
SWIDTH 771 0
DWIDTH 30 0
BBX 23 38 4 -9
BITMAP
000004
E0000E
E0001E
E0000E
E00004
E00000
E00000
E00000
E0000E
E0000E
E0000E
E0000E
E0000E
E0000E
E0000E
E0000E
E0000E
E0000E
E0000E
E0000E
E0000E
E0000E
E0000E
E0000E
E0000E
E0000E
FFFE0E
FFFE0E
FFFE0E
00000E
00000E
00000E
00000E
00000E
00001E
0003FC
0003FC
0003F8
ENDCHAR
STARTCHAR 01C9
ENCODING 457
SWIDTH 514 0
DWIDTH 20 0
BBX 14 39 3 -9
BITMAP
F000
F018
F03C
F03C
F03C
F018
F000
F000
F000
F03C
F03C
F03C
F03C
F03C
F03C
F03C
F03C
F03C
F03C
F03C
F03C
F03C
F03C
F03C
F03C
F03C
F03C
F03C
F03C
F03C
003C
003C
003C
003C
003C
0038
07F8
07F8
07E0
ENDCHAR
STARTCHAR 01CA
ENCODING 458
SWIDTH 1028 0
DWIDTH 40 0
BBX 33 35 4 -7
BITMAP
F0001C0780
F8001C0780
F8001C0780
FC001C0780
FE001C0780
FE001C0780
EF001C0780
EF801C0780
E7801C0780
E3C01C0780
E3C01C0780
E1E01C0780
E0F01C0780
E0F01C0780
E0781C0780
E03C1C0780
E03C1C0780
E01E1C0780
E00F1C0780
E00F1C0780
E0079C0780
E003DC0780
E003DC0780
E001FC0780
E001FC0780
E000FC0780
E0007C0780
E0007C0780
0000000780
0000000780
0000000700
0000000F00
000001FE00
000001FE00
000001F800
ENDCHAR
STARTCHAR 01CB
ENCODING 459
SWIDTH 1002 0
DWIDTH 39 0
BBX 33 38 4 -9
BITMAP
0000000200
F0001C0700
F8001C0780
F8001C0700
FC001C0200
FE001C0000
FE001C0000
EF001C0000
EF801C0700
E7801C0700
E3C01C0700
E3C01C0700
E1E01C0700
E0F01C0700
E0F01C0700
E0781C0700
E03C1C0700
E03C1C0700
E01E1C0700
E00F1C0700
E00F1C0700
E0079C0700
E003DC0700
E003DC0700
E001FC0700
E001FC0700
E000FC0700
E0007C0700
E0007C0700
0000000700
0000000700
0000000700
0000000700
0000000700
0000000F00
000001FF00
000001FE00
000001FC00
ENDCHAR
STARTCHAR 01CC
ENCODING 460
SWIDTH 874 0
DWIDTH 34 0
BBX 28 38 3 -9
BITMAP
00000060
000000F0
000000F0
000000F0
00000060
00000000
00000000
00000000
E1FC00F0
E7FF00F0
EFFF80F0
FC0780F0
F803C0F0
F803C0F0
F003C0F0
F003C0F0
F003C0F0
F003C0F0
F003C0F0
F003C0F0
F003C0F0
F003C0F0
F003C0F0
F003C0F0
F003C0F0
F003C0F0
F003C0F0
F003C0F0
F003C0F0
000000F0
000000F0
000000F0
000000F0
000000F0
000000E0
00001FE0
00001FE0
00001F80
ENDCHAR
STARTCHAR 01CD
ENCODING 461
SWIDTH 617 0
DWIDTH 24 0
BBX 25 37 0 0
BITMAP
0300E000
03C1C000
01E38000
00F70000
007F0000
003E0000
001C0000
00000000
00000000
001C0000
003E0000
003E0000
003E0000
00770000
00770000
00F70000
00E38000
00E38000
01E3C000
01C1C000
03C1C000
0381E000
0380E000
0780F000
0700F000
0FFFF000
0FFFF800
0FFFF800
1E003C00
1C003C00
1C001C00
3C001E00
38001E00
78000E00
78000F00
70000700
F0000780
ENDCHAR
STARTCHAR 01CE
ENCODING 462
SWIDTH 540 0
DWIDTH 21 0
BBX 17 30 2 0
BITMAP
380700
1C1E00
0F3C00
07F800
03F000
01E000
000000
000000
000000
07F800
3FFE00
3FFF00
180F00
000700
000780
000780
000780
001F80
0FFF80
3FFF80
7C0780
F00780
F00780
E00780
E00780
E00F80
F01F80
FCFB80
7FF380
1FE380
ENDCHAR
STARTCHAR 01CF
ENCODING 463
SWIDTH 334 0
DWIDTH 13 0
BBX 13 37 0 0
BITMAP
E038
7078
38F0
1DE0
1FC0
0F80
0700
0000
0000
3FF0
3FF0
1FE0
0700
0700
0700
0700
0700
0700
0700
0700
0700
0700
0700
0700
0700
0700
0700
0700
0700
0700
0700
0700
0700
0700
0FC0
3FF0
3FF0
ENDCHAR
STARTCHAR 01D0
ENCODING 464
SWIDTH 257 0
DWIDTH 10 0
BBX 14 30 -2 0
BITMAP
E01C
7078
3CF0
1FE0
0FC0
0780
0000
0000
0000
0780
0780
0780
0780
0780
0780
0780
0780
0780
0780
0780
0780
0780
0780
0780
0780
0780
0780
0780
0780
0780
ENDCHAR
STARTCHAR 01D1
ENCODING 465
SWIDTH 771 0
DWIDTH 30 0
BBX 26 37 2 0
BITMAP
01807000
01E0E000
00F1C000
007F8000
003F0000
001F0000
001E0000
00000000
00000000
00FFC000
03FFF000
07FFFC00
0FC07E00
1F001E00
3E000F00
3C000780
78000780
78000780
780003C0
700003C0
F00003C0
F00003C0
F00003C0
F00003C0
F00003C0
F00003C0
700003C0
780003C0
78000380
78000780
3C000780
3C000F00
1E001E00
0F807E00
07FFFC00
03FFF000
00FFE000
ENDCHAR
STARTCHAR 01D2
ENCODING 466
SWIDTH 591 0
DWIDTH 23 0
BBX 19 30 2 0
BITMAP
1C0700
0E0F00
071E00
03BC00
01F800
01F000
000000
000000
000000
03FC00
0FFF00
1FFF80
3C0780
7803C0
7801E0
7001E0
F000E0
F000E0
F000E0
F000E0
F000E0
F000E0
F000E0
7001E0
7801E0
7803C0
3C07C0
1FBF80
0FFF00
07FC00
ENDCHAR
STARTCHAR 01D3
ENCODING 467
SWIDTH 720 0
DWIDTH 28 0
BBX 22 37 3 0
BITMAP
0601C0
078380
03C700
01EE00
00FC00
007C00
007800
000000
000000
F0003C
F0003C
F0003C
F0003C
F0003C
F0003C
F0003C
F0003C
F0003C
F0003C
F0003C
F0003C
F0003C
F0003C
F0003C
F0003C
F0003C
F0003C
F0003C
70003C
70003C
780038
780078
3C0078
3E01F0
1FFFE0
0FFFC0
03FF00
ENDCHAR
STARTCHAR 01D4
ENCODING 468
SWIDTH 617 0
DWIDTH 24 0
BBX 18 30 3 0
BITMAP
380700
1C1E00
0F3C00
07F800
03F000
01E000
000000
000000
000000
F003C0
F003C0
F003C0
F003C0
F003C0
F003C0
F003C0
F003C0
F003C0
F003C0
F003C0
F003C0
F003C0
F003C0
F003C0
F003C0
F007C0
780FC0
7FFFC0
3FF9C0
1FF1C0
ENDCHAR
STARTCHAR 01D5
ENCODING 469
SWIDTH 720 0
DWIDTH 28 0
BBX 22 39 3 0
BITMAP
07FF80
07FF80
000000
000000
000000
038700
038780
038780
018200
000000
000000
F0003C
F0003C
F0003C
F0003C
F0003C
F0003C
F0003C
F0003C
F0003C
F0003C
F0003C
F0003C
F0003C
F0003C
F0003C
F0003C
F0003C
F0003C
F0003C
70003C
70003C
780038
780078
3C0078
3E01F0
1FFFE0
0FFFC0
03FF00
ENDCHAR
STARTCHAR 01D6
ENCODING 470
SWIDTH 617 0
DWIDTH 24 0
BBX 18 33 3 0
BITMAP
1FFE00
1FFE00
1FFE00
000000
000000
000000
0E1C00
0E1C00
0E1C00
040800
000000
000000
F003C0
F003C0
F003C0
F003C0
F003C0
F003C0
F003C0
F003C0
F003C0
F003C0
F003C0
F003C0
F003C0
F003C0
F003C0
F003C0
F007C0
780FC0
7FFFC0
3FF9C0
1FF1C0
ENDCHAR
STARTCHAR 01D7
ENCODING 471
SWIDTH 720 0
DWIDTH 28 0
BBX 22 41 3 0
BITMAP
000780
000F00
001E00
001C00
003800
007000
000000
038700
038780
038780
018200
000000
000000
F0003C
F0003C
F0003C
F0003C
F0003C
F0003C
F0003C
F0003C
F0003C
F0003C
F0003C
F0003C
F0003C
F0003C
F0003C
F0003C
F0003C
F0003C
F0003C
70003C
70003C
780038
780078
3C0078
3E01F0
1FFFE0
0FFFC0
03FF00
ENDCHAR
STARTCHAR 01D8
ENCODING 472
SWIDTH 617 0
DWIDTH 24 0
BBX 18 34 3 0
BITMAP
003E00
003C00
007800
00F000
00E000
01C000
000000
0E1C00
0E1C00
0E1C00
040800
000000
000000
F003C0
F003C0
F003C0
F003C0
F003C0
F003C0
F003C0
F003C0
F003C0
F003C0
F003C0
F003C0
F003C0
F003C0
F003C0
F003C0
F007C0
780FC0
7FFFC0
3FF9C0
1FF1C0
ENDCHAR
STARTCHAR 01D9
ENCODING 473
SWIDTH 720 0
DWIDTH 28 0
BBX 22 41 3 0
BITMAP
0703C0
038780
01EF00
00FE00
007C00
007800
000000
038700
038780
038780
018200
000000
000000
F0003C
F0003C
F0003C
F0003C
F0003C
F0003C
F0003C
F0003C
F0003C
F0003C
F0003C
F0003C
F0003C
F0003C
F0003C
F0003C
F0003C
F0003C
F0003C
70003C
70003C
780038
780078
3C0078
3E01F0
1FFFE0
0FFFC0
03FF00
ENDCHAR
STARTCHAR 01DA
ENCODING 474
SWIDTH 617 0
DWIDTH 24 0
BBX 18 34 3 0
BITMAP
1C0E00
0E1C00
07F800
03F000
03E000
01E000
000000
0E1C00
0E1C00
0E1C00
040800
000000
000000
F003C0
F003C0
F003C0
F003C0
F003C0
F003C0
F003C0
F003C0
F003C0
F003C0
F003C0
F003C0
F003C0
F003C0
F003C0
F003C0
F007C0
780FC0
7FFFC0
3FF9C0
1FF1C0
ENDCHAR
STARTCHAR 01DB
ENCODING 475
SWIDTH 720 0
DWIDTH 28 0
BBX 22 41 3 0
BITMAP
03C000
03C000
01E000
00F000
007800
001800
000000
038700
038780
038780
018200
000000
000000
F0003C
F0003C
F0003C
F0003C
F0003C
F0003C
F0003C
F0003C
F0003C
F0003C
F0003C
F0003C
F0003C
F0003C
F0003C
F0003C
F0003C
F0003C
F0003C
70003C
70003C
780038
780078
3C0078
3E01F0
1FFFE0
0FFFC0
03FF00
ENDCHAR
STARTCHAR 01DC
ENCODING 476
SWIDTH 617 0
DWIDTH 24 0
BBX 18 34 3 0
BITMAP
1F0000
0F0000
078000
03C000
01C000
00E000
000000
0E1C00
0E1C00
0E1C00
040800
000000
000000
F003C0
F003C0
F003C0
F003C0
F003C0
F003C0
F003C0
F003C0
F003C0
F003C0
F003C0
F003C0
F003C0
F003C0
F003C0
F003C0
F007C0
780FC0
7FFFC0
3FF9C0
1FF1C0
ENDCHAR
STARTCHAR 01DD
ENCODING 477
SWIDTH 540 0
DWIDTH 21 0
BBX 18 21 2 0
BITMAP
1FF000
7FFC00
7FFE00
601F00
000F80
000780
000380
0003C0
0003C0
0003C0
FFFFC0
FFFFC0
FFFFC0
F003C0
F00380
F00780
780780
780F00
3F7E00
1FFC00
0FF800
ENDCHAR
STARTCHAR 01DE
ENCODING 478
SWIDTH 617 0
DWIDTH 24 0
BBX 25 39 0 0
BITMAP
01FFC000
01FFC000
00000000
00000000
00000000
01C18000
01C3C000
01C3C000
00818000
00000000
00000000
001C0000
003E0000
003E0000
003E0000
00770000
00770000
00F70000
00E38000
00E38000
01E3C000
01C1C000
03C1C000
0381E000
0380E000
0780F000
0700F000
0FFFF000
0FFFF800
0FFFF800
1E003C00
1C003C00
1C001C00
3C001E00
38001E00
78000E00
78000F00
70000700
F0000780
ENDCHAR
STARTCHAR 01DF
ENCODING 479
SWIDTH 540 0
DWIDTH 21 0
BBX 17 33 2 0
BITMAP
1FFE00
1FFE00
1FFE00
000000
000000
000000
0E1C00
1E1C00
0E1C00
040800
000000
000000
07F800
3FFE00
3FFF00
180F00
000700
000780
000780
000780
001F80
0FFF80
3FFF80
7C0780
F00780
F00780
E00780
E00780
E00F80
F01F80
FCFB80
7FF380
1FE380
ENDCHAR
STARTCHAR 01E0
ENCODING 480
SWIDTH 617 0
DWIDTH 24 0
BBX 25 39 0 0
BITMAP
01FFC000
01FFC000
01FFC000
00000000
00000000
001C0000
003C0000
003C0000
001C0000
00000000
00000000
001C0000
003E0000
003E0000
003E0000
00770000
00770000
00F70000
00E38000
00E38000
01E3C000
01C1C000
03C1C000
0381E000
0380E000
0780F000
0700F000
0FFFF000
0FFFF800
0FFFF800
1E003C00
1C003C00
1C001C00
3C001E00
38001E00
78000E00
78000F00
70000700
F0000780
ENDCHAR
STARTCHAR 01E1
ENCODING 481
SWIDTH 540 0
DWIDTH 21 0
BBX 17 33 2 0
BITMAP
1FFE00
1FFE00
1FFE00
000000
000000
00C000
01E000
01E000
01E000
000000
000000
000000
07F800
3FFE00
3FFF00
180F00
000700
000780
000780
000780
001F80
0FFF80
3FFF80
7C0780
F00780
F00780
E00780
E00780
E00F80
F01F80
FCFB80
7FF380
1FE380
ENDCHAR
STARTCHAR 01E2
ENCODING 482
SWIDTH 874 0
DWIDTH 34 0
BBX 32 33 0 0
BITMAP
0007FF80
0007FF80
0007FF80
00000000
00000000
0007FFFF
0007FFFF
000FFFFF
000E7800
001E7800
001C7800
003C7800
00387800
00787800
00707800
00F07800
00E07800
01E07FFE
01C07FFE
03C07FFE
03807800
07FFF800
07FFF800
0FFFF800
0F007800
0E007800
1E007800
1C007800
3C007800
38007800
78007FFF
70007FFF
F0007FFF
ENDCHAR
STARTCHAR 01E3
ENCODING 483
SWIDTH 848 0
DWIDTH 33 0
BBX 30 26 2 0
BITMAP
007FF800
007FF800
00000000
00000000
00000000
0FF03F80
3FFCFFE0
3FFEFFF0
301FC0F0
000FC078
00078038
00078038
0007003C
001F003C
0FFFFFFC
3FFFFFFC
7C070000
F0070000
F0070000
E00F8000
E00F8000
E00FC000
F01DE008
FCF9FFF8
7FF0FFF8
1FE03FF0
ENDCHAR
STARTCHAR 01E4
ENCODING 484
SWIDTH 720 0
DWIDTH 28 0
BBX 26 28 2 0
BITMAP
003FF000
01FFFE00
03FFFE00
0FE01C00
0F000000
1E000000
3C000000
3C000000
78000000
78000000
70000000
70000000
F0000000
F003FE00
F003FE00
F003FE00
F0000E00
70000E00
78000E00
7803FFC0
7803FFC0
3C03FFC0
3E000E00
1F000E00
0FC00E00
07FFFE00
03FFFE00
00FFF800
ENDCHAR
STARTCHAR 01E5
ENCODING 485
SWIDTH 591 0
DWIDTH 23 0
BBX 21 30 2 -9
BITMAP
07F0E0
1FFCE0
3FFFE0
3C07E0
7803E0
7803E0
7001E0
F001E0
F001E0
F001E0
F001E0
F001E0
F001E0
F001E0
7001E0
7803E0
3C07E0
3FFFE0
1FFDE0
07F9E0
0001E0
0001E0
00FFF8
00FFF8
00FFF8
0003C0
2003C0
3FFF80
3FFF00
1FFC00
ENDCHAR
STARTCHAR 01E6
ENCODING 486
SWIDTH 720 0
DWIDTH 28 0
BBX 23 37 2 0
BITMAP
01C030
00E0F0
0071E0
003BC0
001F80
001F00
000E00
000000
000000
003FF0
01FFFE
03FFFE
0FE01C
1F8000
1E0000
3C0000
3C0000
780000
780000
700000
700000
F00000
F003FE
F003FE
F003FE
F0000E
70000E
78000E
78000E
78000E
3C000E
3E000E
1F000E
0FC00E
07FFFE
03FFFE
00FFF8
ENDCHAR
STARTCHAR 01E7
ENCODING 487
SWIDTH 591 0
DWIDTH 23 0
BBX 19 39 2 -9
BITMAP
1C0700
0E0E00
071C00
03BC00
03F800
01F000
000000
000000
000000
07F0E0
0FFCE0
1FFFE0
3C07E0
7803E0
7803E0
7001E0
F001E0
F001E0
F001E0
F001E0
F001E0
F001E0
F001E0
7001E0
7001E0
7803E0
3C07E0
3F3FE0
1FFDE0
07F9E0
0001E0
0001E0
0001C0
0001C0
0003C0
200780
3FFF80
3FFF00
1FFC00
ENDCHAR
STARTCHAR 01E8
ENCODING 488
SWIDTH 617 0
DWIDTH 24 0
BBX 20 37 4 0
BITMAP
180700
1E0E00
0F1C00
07F800
03F000
01F000
01E000
000000
000000
E001E0
E003E0
E003C0
E00780
E00F00
E01E00
E03C00
E07800
E0F000
E1E000
E3C000
E78000
E78000
EFC000
FFC000
F9E000
F1F000
E0F000
E07800
E03C00
E03E00
E01E00
E00F00
E00780
E007C0
E003C0
E001E0
E000F0
ENDCHAR
STARTCHAR 01E9
ENCODING 489
SWIDTH 514 0
DWIDTH 20 0
BBX 22 39 -2 0
BITMAP
E01C00
703800
387000
1CE000
0FC000
0FC000
078000
000000
000000
078000
078000
078000
078000
078000
078000
078000
078000
078000
07807C
078078
0780F0
0781E0
0783C0
078780
078F00
079E00
07BC00
07FC00
07FC00
07FE00
07CF00
078780
0787C0
0783C0
0781E0
0780F0
0780F8
078078
07803C
ENDCHAR
STARTCHAR 01EA
ENCODING 490
SWIDTH 771 0
DWIDTH 30 0
BBX 26 37 2 -9
BITMAP
00FFC000
03FFF000
07FFFC00
0FC07E00
1F001E00
3E000F00
3C000780
78000780
78000780
780003C0
700003C0
F00003C0
F00003C0
F00003C0
F00003C0
F00003C0
F00003C0
700003C0
780003C0
78000380
78000780
3C000780
3C000F00
1E001E00
0F807E00
07FFFC00
03FFF000
00FFE000
00060000
000C0000
001C0000
00380000
00380000
00380000
001F8000
001F8000
00020000
ENDCHAR
STARTCHAR 01EB
ENCODING 491
SWIDTH 591 0
DWIDTH 23 0
BBX 19 30 2 -9
BITMAP
03FC00
0FFF00
1FFF80
3C0780
7803C0
7801E0
7001E0
F000E0
F000E0
F000E0
F000E0
F000E0
F000E0
F000E0
7001E0
7801E0
7803C0
3C07C0
1FBF80
0FFF00
07FC00
007000
00E000
00C000
01C000
01C000
01C000
01F800
00F800
003000
ENDCHAR
STARTCHAR 01EC
ENCODING 492
SWIDTH 771 0
DWIDTH 30 0
BBX 26 42 2 -9
BITMAP
01FFE000
01FFE000
01FFE000
00000000
00000000
00FFC000
03FFF000
07FFFC00
0FC07E00
1F001E00
3E000F00
3C000780
78000780
78000780
780003C0
700003C0
F00003C0
F00003C0
F00003C0
F00003C0
F00003C0
F00003C0
700003C0
780003C0
78000380
78000780
3C000780
3C000F00
1E001E00
0F807E00
07FFFC00
03FFF000
00FFE000
00070000
000E0000
001C0000
001C0000
001C0000
001C0000
001F8000
000F8000
00030000
ENDCHAR
STARTCHAR 01ED
ENCODING 493
SWIDTH 591 0
DWIDTH 23 0
BBX 19 35 2 -9
BITMAP
0FFF00
0FFF00
000000
000000
000000
03FC00
0FFF00
1FFF80
3C0780
7803C0
7801E0
7001E0
F000E0
F000E0
F000E0
F000E0
F000E0
F000E0
F000E0
7001E0
7801E0
7803C0
3C07C0
1FBF80
0FFF00
07FC00
007000
00E000
00C000
01C000
01C000
01C000
01F800
00F800
003000
ENDCHAR
STARTCHAR 01EE
ENCODING 494
SWIDTH 565 0
DWIDTH 22 0
BBX 20 37 1 0
BITMAP
1C0300
0E0F00
071E00
03BC00
03F800
01F000
00E000
000000
000000
7FFFC0
7FFFC0
7FFFC0
0003C0
000780
000F00
001E00
003C00
007800
00F000
01E000
03C000
07F000
07FE00
07FF80
000FC0
0003E0
0001E0
0000E0
0000F0
0000F0
0000E0
0001E0
0001E0
C007C0
FF7F80
FFFF00
3FFC00
ENDCHAR
STARTCHAR 01EF
ENCODING 495
SWIDTH 488 0
DWIDTH 19 0
BBX 17 39 1 -9
BITMAP
300E00
3C1C00
1E7800
0FF000
07E000
03C000
000000
000000
000000
FFFF00
FFFF00
FFFF00
000E00
001C00
003800
007800
00F000
01E000
03C000
078000
0F0000
1FC000
1FF800
1FFC00
003E00
000F00
000700
000780
000780
000380
000380
000780
000780
000700
000F00
801E00
FFFE00
FFF800
7FE000
ENDCHAR
STARTCHAR 01F0
ENCODING 496
SWIDTH 257 0
DWIDTH 10 0
BBX 14 39 -2 -9
BITMAP
E01C
7078
3CF0
1FE0
0FC0
0780
0000
0000
0000
0780
0780
0780
0780
0780
0780
0780
0780
0780
0780
0780
0780
0780
0780
0780
0780
0780
0780
0780
0780
0780
0780
0780
0780
0780
0780
0700
FF00
FE00
FC00
ENDCHAR
STARTCHAR 01F1
ENCODING 497
SWIDTH 1285 0
DWIDTH 50 0
BBX 45 28 4 0
BITMAP
FFF0003FFFF0
FFFE003FFFF0
FFFF803FFFF0
E01FC00000F0
E003E00001E0
E001F00001E0
E000F00003C0
E00078000780
E00078000780
E0003C000F00
E0003C001E00
E0003C001E00
E0003C003C00
E0003C007800
E0003C007800
E0003C00F000
E0003C01E000
E0003C01E000
E0003C03C000
E00078078000
E00078078000
E000F00F0000
E001F01E0000
E003E01E0000
E01FC03C0000
FFFF807FFFF8
FFFE007FFFF8
FFF0007FFFF8
ENDCHAR
STARTCHAR 01F2
ENCODING 498
SWIDTH 1182 0
DWIDTH 46 0
BBX 41 28 4 0
BITMAP
FFF000000000
FFFE00000000
FFFF80000000
E01FC0000000
E003E0000000
E001F0000000
E000F0000000
E000781FFF80
E000781FFF80
E0003C1FFF80
E0003C000700
E0003C000F00
E0003C001E00
E0003C003C00
E0003C003C00
E0003C007800
E0003C00F000
E0003C00E000
E0003C01E000
E0007803C000
E00078038000
E000F0078000
E001F00F0000
E003E01E0000
E01FC01C0000
FFFF803FFF80
FFFE003FFF80
FFF0003FFF80
ENDCHAR
STARTCHAR 01F3
ENCODING 499
SWIDTH 1080 0
DWIDTH 42 0
BBX 39 30 2 0
BITMAP
0001E00000
0001E00000
0001E00000
0001E00000
0001E00000
0001E00000
0001E00000
0001E00000
0001E00000
07F1E0FFFC
0FFDE0FFFC
3FFFE0FFFC
3C07E0003C
7803E00078
7803E00070
7001E000F0
F001E001E0
F001E001C0
F001E003C0
F001E00780
F001E00700
F001E00F00
F001E01E00
F001E03C00
7801E03800
7803E07800
3C07E0F000
3FBFE0FFFE
1FFCE1FFFE
07F8E1FFFE
ENDCHAR
STARTCHAR 01F4
ENCODING 500
SWIDTH 720 0
DWIDTH 28 0
BBX 23 37 2 0
BITMAP
0001F0
0001E0
0003C0
000780
000700
000E00
000C00
000000
000000
003FF0
01FFFE
03FFFE
0FE01C
1F8000
1E0000
3C0000
3C0000
780000
780000
700000
700000
F00000
F003FE
F003FE
F003FE
F0000E
70000E
78000E
78000E
78000E
3C000E
3E000E
1F000E
0FC00E
07FFFE
03FFFE
00FFF8
ENDCHAR
STARTCHAR 01F5
ENCODING 501
SWIDTH 591 0
DWIDTH 23 0
BBX 19 39 2 -9
BITMAP
001E00
003E00
003C00
007800
007000
00E000
000000
000000
000000
07F0E0
0FFCE0
1FFFE0
3C07E0
7803E0
7803E0
7001E0
F001E0
F001E0
F001E0
F001E0
F001E0
F001E0
F001E0
7001E0
7001E0
7803E0
3C07E0
3F3FE0
1FFDE0
07F9E0
0001E0
0001E0
0001C0
0001C0
0003C0
200780
3FFF80
3FFF00
1FFC00
ENDCHAR
STARTCHAR 01F6
ENCODING 502
SWIDTH 925 0
DWIDTH 36 0
BBX 29 28 4 0
BITMAP
E001C000
E001C000
E001C000
E001C000
E001C000
E001C000
E001C000
E001C078
E001C078
E001C078
E001C078
E001C078
FFFFC078
FFFFC078
FFFFC078
E001C078
E001C078
E001C078
E001C078
E001C078
E001C078
E001C078
E001C078
E001E078
E001E0F0
E000FFF0
E0007FE0
E0003FC0
ENDCHAR
STARTCHAR 01F7
ENCODING 503
SWIDTH 642 0
DWIDTH 25 0
BBX 20 37 4 -9
BITMAP
E1FE00
E3FF80
EFFFC0
EE07C0
FC01E0
F801E0
F000E0
F000E0
F000F0
E000F0
E000F0
E000E0
E000E0
E001E0
E001E0
E001C0
E003C0
E00780
E00780
E00F00
E01E00
E03C00
E0F800
E1F000
E7E000
FF8000
FE0000
F80000
E00000
E00000
E00000
E00000
E00000
E00000
E00000
E00000
E00000
ENDCHAR
STARTCHAR 01F8
ENCODING 504
SWIDTH 745 0
DWIDTH 29 0
BBX 22 37 4 0
BITMAP
03C000
03C000
01E000
00F000
007000
003800
001C00
000000
000000
F0001C
F8001C
F8001C
FC001C
FE001C
FE001C
EF001C
EF801C
E7801C
E3C01C
E3C01C
E1E01C
E0F01C
E0F01C
E0781C
E03C1C
E03C1C
E01E1C
E00F1C
E00F1C
E0079C
E003DC
E003DC
E001FC
E001FC
E000FC
E0007C
E0007C
ENDCHAR
STARTCHAR 01F9
ENCODING 505
SWIDTH 617 0
DWIDTH 24 0
BBX 18 30 3 0
BITMAP
0F0000
078000
078000
03C000
01E000
00E000
000000
000000
000000
E1FC00
E7FF00
EFFF80
FC0780
F803C0
F803C0
F003C0
F003C0
F003C0
F003C0
F003C0
F003C0
F003C0
F003C0
F003C0
F003C0
F003C0
F003C0
F003C0
F003C0
F003C0
ENDCHAR
STARTCHAR 01FA
ENCODING 506
SWIDTH 617 0
DWIDTH 24 0
BBX 25 37 0 0
BITMAP
0007C000
00078000
000F0000
001E0000
00180000
00000000
003E0000
007F0000
00E38000
00C18000
00C38000
00E30000
007F0000
003E0000
003E0000
00770000
00770000
00E78000
00E38000
01E38000
01C1C000
01C1C000
0381E000
0380E000
0780F000
07007000
0FFFF000
0FFFF800
0FFFF800
1FFFFC00
1C003C00
3C001E00
38001E00
78000E00
78000F00
70000700
F0000780
ENDCHAR
STARTCHAR 01FB
ENCODING 507
SWIDTH 540 0
DWIDTH 21 0
BBX 17 37 2 0
BITMAP
003E00
007800
00F000
01C000
000000
01E000
03F000
073800
061800
061800
061800
07F800
03F000
000000
000000
000000
07F800
3FFE00
3FFF00
180F00
000700
000780
000780
000780
001F80
0FFF80
3FFF80
7C0780
F00780
F00780
E00780
E00780
E00F80
F01F80
FCFB80
7FF380
1FE380
ENDCHAR
STARTCHAR 01FC
ENCODING 508
SWIDTH 874 0
DWIDTH 34 0
BBX 32 37 0 0
BITMAP
00000780
00000F00
00000F00
00001E00
00003C00
00003800
00006000
00000000
00000000
0007FFFF
0007FFFF
000FFFFF
000E7800
001E7800
001C7800
003C7800
00387800
00787800
00707800
00F07800
00E07800
01E07FFE
01C07FFE
03C07FFE
03807800
07FFF800
07FFF800
0FFFF800
0F007800
0E007800
1E007800
1C007800
3C007800
38007800
78007FFF
70007FFF
F0007FFF
ENDCHAR
STARTCHAR 01FD
ENCODING 509
SWIDTH 848 0
DWIDTH 33 0
BBX 30 30 2 0
BITMAP
00007800
0000F000
0001E000
0001C000
00038000
00070000
00000000
00000000
00000000
0FF03F80
3FFCFFE0
3FFEFFF0
301FC0F0
000FC078
00078038
00078038
0007003C
001F003C
0FFFFFFC
3FFFFFFC
7C070000
F0070000
F0070000
E00F8000
E00F8000
E00FC000
F01DE008
FCF9FFF8
7FF0FFF8
1FE03FF0
ENDCHAR
STARTCHAR 01FE
ENCODING 510
SWIDTH 771 0
DWIDTH 30 0
BBX 26 38 2 -1
BITMAP
0001E000
0003C000
0003C000
00078000
000F0000
000E0000
00180000
00000000
00000200
00FFC700
03FFFF00
07FFFE00
0FC07C00
1F003E00
3E007F00
3C007F00
7800E780
7801E780
7801C3C0
700383C0
F00783C0
F00F03C0
F00E03C0
F01C03C0
F03C03C0
F03803C0
707003C0
78F003C0
79E00380
79C00780
3FC00780
3F800F00
1F001E00
0F807E00
1FFFFC00
1FFFF000
38FFE000
18000000
ENDCHAR
STARTCHAR 01FF
ENCODING 511
SWIDTH 591 0
DWIDTH 23 0
BBX 19 31 2 -1
BITMAP
001F00
001E00
003C00
007800
007000
00E000
000000
000000
000080
03FDE0
0FFFC0
1FFF80
3C0780
7807C0
780FC0
701DE0
F03CE0
F038E0
F070E0
F0F0E0
F1E0E0
F1C0E0
F380E0
7781E0
7F01E0
7E03C0
3E07C0
1FBF80
3FFF00
77FC00
300000
ENDCHAR
STARTCHAR 0200
ENCODING 512
SWIDTH 617 0
DWIDTH 24 0
BBX 25 37 0 0
BITMAP
0F3C0000
0F1E0000
078E0000
03870000
01C38000
00C18000
0060C000
00000000
00000000
001C0000
003E0000
003E0000
003E0000
00770000
00770000
00F70000
00E38000
00E38000
01E3C000
01C1C000
03C1C000
0381E000
0380E000
0780F000
0700F000
0FFFF000
0FFFF800
0FFFF800
1E003C00
1C003C00
1C001C00
3C001E00
38001E00
78000E00
78000F00
70000700
F0000780
ENDCHAR
STARTCHAR 0201
ENCODING 513
SWIDTH 540 0
DWIDTH 21 0
BBX 17 30 2 0
BITMAP
F1E000
78E000
38F000
3C7800
1C3800
0E1C00
000000
000000
000000
07F800
3FFE00
3FFF00
180F00
000700
000780
000780
000780
001F80
0FFF80
3FFF80
7C0780
F00780
F00780
E00780
E00780
E00F80
F01F80
FCFB80
7FF380
1FE380
ENDCHAR
STARTCHAR 0202
ENCODING 514
SWIDTH 617 0
DWIDTH 24 0
BBX 25 36 0 0
BITMAP
001C0000
00FF8000
01FF8000
01C1C000
0380C000
0300C000
00000000
00000000
001C0000
003E0000
003E0000
003E0000
00770000
00770000
00F70000
00E38000
00E38000
01E3C000
01C1C000
03C1C000
0381E000
0380E000
0780F000
0700F000
0FFFF000
0FFFF800
0FFFF800
1E003C00
1C003C00
1C001C00
3C001E00
38001E00
78000E00
78000F00
70000700
F0000780
ENDCHAR
STARTCHAR 0203
ENCODING 515
SWIDTH 540 0
DWIDTH 21 0
BBX 17 29 2 0
BITMAP
01E000
07F800
0FFC00
1C0E00
180600
000000
000000
000000
07F800
3FFE00
3FFF00
180F00
000700
000780
000780
000780
001F80
0FFF80
3FFF80
7C0780
F00780
F00780
E00780
E00780
E00F80
F01F80
FCFB80
7FF380
1FE380
ENDCHAR
STARTCHAR 0204
ENCODING 516
SWIDTH 540 0
DWIDTH 21 0
BBX 16 37 3 0
BITMAP
F1E0
78E0
78F0
3C70
1C38
0E1C
060C
0000
0000
7FFF
7FFF
7FFF
7000
7000
7000
7000
7000
7000
7000
7000
7000
7FFF
7FFF
7FFF
7000
7000
7000
7000
7000
7000
7000
7000
7000
7000
7FFF
7FFF
7FFF
ENDCHAR
STARTCHAR 0205
ENCODING 517
SWIDTH 540 0
DWIDTH 21 0
BBX 18 30 2 0
BITMAP
F1E000
78F000
387000
1C7800
0C3800
0E1C00
000000
000000
000000
03F800
0FFE00
1FFF00
3C0F80
780780
780380
7003C0
F003C0
F003C0
FFFFC0
FFFFC0
F00000
F00000
F00000
700000
780000
780000
3E0080
1FFF80
0FFF80
03FF00
ENDCHAR
STARTCHAR 0206
ENCODING 518
SWIDTH 540 0
DWIDTH 21 0
BBX 15 36 4 0
BITMAP
0180
0FF0
1FF8
3818
300C
300C
0000
0000
FFFE
FFFE
FFFE
E000
E000
E000
E000
E000
E000
E000
E000
E000
FFFE
FFFE
FFFE
E000
E000
E000
E000
E000
E000
E000
E000
E000
E000
FFFE
FFFE
FFFE
ENDCHAR
STARTCHAR 0207
ENCODING 519
SWIDTH 540 0
DWIDTH 21 0
BBX 18 29 2 0
BITMAP
01E000
07F800
0FFC00
1C0E00
180600
000000
000000
000000
03F800
0FFE00
1FFF00
3C0F80
780780
780380
7003C0
F003C0
F003C0
FFFFC0
FFFFC0
F00000
F00000
F00000
700000
780000
780000
3E0080
1FFF80
0FFF80
03FF00
ENDCHAR
STARTCHAR 0208
ENCODING 520
SWIDTH 334 0
DWIDTH 13 0
BBX 14 37 -2 0
BITMAP
F1E0
F1E0
78F0
3870
1C38
0E18
060C
0000
0000
0FFC
0FFC
07F8
01C0
01C0
01C0
01C0
01C0
01C0
01C0
01C0
01C0
01C0
01C0
01C0
01C0
01C0
01C0
01C0
01C0
01C0
01C0
01C0
01C0
01C0
03F0
0FFC
0FFC
ENDCHAR
STARTCHAR 0209
ENCODING 521
SWIDTH 257 0
DWIDTH 10 0
BBX 14 30 -4 0
BITMAP
F1E0
78F0
3870
1C78
1C38
0E1C
0000
0000
0000
01E0
01E0
01E0
01E0
01E0
01E0
01E0
01E0
01E0
01E0
01E0
01E0
01E0
01E0
01E0
01E0
01E0
01E0
01E0
01E0
01E0
ENDCHAR
STARTCHAR 020A
ENCODING 522
SWIDTH 334 0
DWIDTH 13 0
BBX 12 36 1 0
BITMAP
0E00
3FC0
7FE0
E0E0
C060
C030
0000
0000
7FE0
7FE0
3FC0
0E00
0E00
0E00
0E00
0E00
0E00
0E00
0E00
0E00
0E00
0E00
0E00
0E00
0E00
0E00
0E00
0E00
0E00
0E00
0E00
0E00
0E00
1F80
7FE0
7FE0
ENDCHAR
STARTCHAR 020B
ENCODING 523
SWIDTH 257 0
DWIDTH 10 0
BBX 12 29 -1 0
BITMAP
0F00
3FC0
7FE0
E070
C030
0000
0000
0000
0F00
0F00
0F00
0F00
0F00
0F00
0F00
0F00
0F00
0F00
0F00
0F00
0F00
0F00
0F00
0F00
0F00
0F00
0F00
0F00
0F00
ENDCHAR
STARTCHAR 020C
ENCODING 524
SWIDTH 771 0
DWIDTH 30 0
BBX 26 37 2 0
BITMAP
0F1E0000
078F0000
03870000
01C38000
00E38000
0061C000
0030C000
00000000
00000000
00FFC000
03FFF000
07FFFC00
0FC07E00
1F001E00
3E000F00
3C000780
78000780
78000780
780003C0
700003C0
F00003C0
F00003C0
F00003C0
F00003C0
F00003C0
F00003C0
700003C0
780003C0
78000380
78000780
3C000780
3C000F00
1E001E00
0F807E00
07FFFC00
03FFF000
00FFE000
ENDCHAR
STARTCHAR 020D
ENCODING 525
SWIDTH 591 0
DWIDTH 23 0
BBX 19 30 2 0
BITMAP
78F000
387000
3C7800
1E3800
0E1C00
070E00
000000
000000
000000
03FC00
0FFF00
1FFF80
3C0780
7803C0
7801E0
7001E0
F000E0
F000E0
F000E0
F000E0
F000E0
F000E0
F000E0
7001E0
7801E0
7803C0
3C07C0
1FBF80
0FFF00
07FC00
ENDCHAR
STARTCHAR 020E
ENCODING 526
SWIDTH 771 0
DWIDTH 30 0
BBX 26 36 2 0
BITMAP
000E0000
007F8000
00FFC000
00E0E000
01C06000
01806000
00000000
00000000
00FFC000
03FFF000
07FFFC00
0FC07E00
1F001E00
3E000F00
3C000780
78000780
78000780
780003C0
700003C0
F00003C0
F00003C0
F00003C0
F00003C0
F00003C0
F00003C0
700003C0
780003C0
78000380
78000780
3C000780
3C000F00
1E001E00
0F807E00
07FFFC00
03FFF000
00FFE000
ENDCHAR
STARTCHAR 020F
ENCODING 527
SWIDTH 591 0
DWIDTH 23 0
BBX 19 29 2 0
BITMAP
00F000
03FC00
07FE00
0E0600
0C0700
000000
000000
000000
03FC00
0FFF00
1FFF80
3C0780
7803C0
7801E0
7001E0
F000E0
F000E0
F000E0
F000E0
F000E0
F000E0
F000E0
7001E0
7801E0
7803C0
3C07C0
1FBF80
0FFF00
07FC00
ENDCHAR
STARTCHAR 0210
ENCODING 528
SWIDTH 617 0
DWIDTH 24 0
BBX 20 37 3 0
BITMAP
F1E000
78F000
387000
1C7800
1C3800
0E1C00
030C00
000000
000000
7FE000
7FFE00
7FFF00
701F80
7007C0
7003C0
7001C0
7001E0
7001E0
7001C0
7001C0
7003C0
700780
707F00
7FFE00
7FF800
7FFC00
703C00
701E00
700E00
700F00
700780
700780
7003C0
7003C0
7001E0
7000F0
7000F0
ENDCHAR
STARTCHAR 0211
ENCODING 529
SWIDTH 411 0
DWIDTH 16 0
BBX 14 30 1 0
BITMAP
F3C0
F1E0
78E0
3870
1C38
0C18
0000
0000
0000
387C
38FC
39FC
3B80
3F00
3E00
3C00
3C00
3C00
3C00
3C00
3C00
3C00
3C00
3C00
3C00
3C00
3C00
3C00
3C00
3C00
ENDCHAR
STARTCHAR 0212
ENCODING 530
SWIDTH 617 0
DWIDTH 24 0
BBX 19 36 4 0
BITMAP
01C000
0FF000
1FF800
1C1C00
300C00
300C00
000000
000000
FFC000
FFFC00
FFFE00
E03F00
E00F80
E00780
E00380
E003C0
E003C0
E00380
E00380
E00780
E00F00
E0FE00
FFFC00
FFF000
FFF800
E07800
E03C00
E01C00
E01E00
E00F00
E00F00
E00780
E00780
E003C0
E001E0
E001E0
ENDCHAR
STARTCHAR 0213
ENCODING 531
SWIDTH 411 0
DWIDTH 16 0
BBX 12 29 3 0
BITMAP
0F00
3FE0
7FE0
7070
E030
0000
0000
0000
E1F0
E3F0
E7F0
EE00
FC00
F800
F000
F000
F000
F000
F000
F000
F000
F000
F000
F000
F000
F000
F000
F000
F000
ENDCHAR
STARTCHAR 0214
ENCODING 532
SWIDTH 720 0
DWIDTH 28 0
BBX 22 37 3 0
BITMAP
1C7800
1E3C00
0E1C00
070E00
038E00
018700
00C100
000000
000000
F0003C
F0003C
F0003C
F0003C
F0003C
F0003C
F0003C
F0003C
F0003C
F0003C
F0003C
F0003C
F0003C
F0003C
F0003C
F0003C
F0003C
F0003C
F0003C
70003C
70003C
780038
780078
3C0078
3E01F0
1FFFE0
0FFFC0
03FF00
ENDCHAR
STARTCHAR 0215
ENCODING 533
SWIDTH 617 0
DWIDTH 24 0
BBX 18 30 3 0
BITMAP
F1E000
78F000
387000
1C7800
1C3800
0E1C00
000000
000000
000000
F003C0
F003C0
F003C0
F003C0
F003C0
F003C0
F003C0
F003C0
F003C0
F003C0
F003C0
F003C0
F003C0
F003C0
F003C0
F003C0
F007C0
780FC0
7FFFC0
3FF9C0
1FF1C0
ENDCHAR
STARTCHAR 0216
ENCODING 534
SWIDTH 720 0
DWIDTH 28 0
BBX 22 36 3 0
BITMAP
007800
01FE00
03FF00
038380
070180
060180
000000
000000
F0003C
F0003C
F0003C
F0003C
F0003C
F0003C
F0003C
F0003C
F0003C
F0003C
F0003C
F0003C
F0003C
F0003C
F0003C
F0003C
F0003C
F0003C
F0003C
70003C
70003C
780038
780078
3C0078
3E01F0
1FFFE0
0FFFC0
03FF00
ENDCHAR
STARTCHAR 0217
ENCODING 535
SWIDTH 617 0
DWIDTH 24 0
BBX 18 29 3 0
BITMAP
01E000
07F800
0FFC00
1C0E00
180600
000000
000000
000000
F003C0
F003C0
F003C0
F003C0
F003C0
F003C0
F003C0
F003C0
F003C0
F003C0
F003C0
F003C0
F003C0
F003C0
F003C0
F003C0
F007C0
780FC0
7FFFC0
3FF9C0
1FF1C0
ENDCHAR
STARTCHAR 0218
ENCODING 536
SWIDTH 540 0
DWIDTH 21 0
BBX 18 37 2 -9
BITMAP
07FC00
1FFF80
3FFF00
7C0700
780000
F00000
F00000
F00000
F00000
780000
7C0000
3E0000
1FC000
0FF000
03FC00
00FE00
001F00
000F80
000780
000380
0003C0
000380
000380
000780
C00F00
FFFF00
FFFE00
7FF800
000000
000000
01C000
01C000
01C000
038000
038000
030000
020000
ENDCHAR
STARTCHAR 0219
ENCODING 537
SWIDTH 462 0
DWIDTH 18 0
BBX 15 30 2 -9
BITMAP
0FF8
3FFC
7FFC
F008
E000
E000
F000
F800
7E00
3FC0
0FF0
03F8
007C
003E
001E
000E
001E
801C
F8FC
FFF8
7FE0
0000
0000
03C0
03C0
0380
0380
0700
0700
0600
ENDCHAR
STARTCHAR 021A
ENCODING 538
SWIDTH 540 0
DWIDTH 21 0
BBX 21 37 0 -9
BITMAP
FFFFF8
FFFFF8
FFFFF8
007800
007800
007800
007800
007800
007800
007800
007800
007800
007800
007800
007800
007800
007800
007800
007800
007800
007800
007800
007800
007800
007800
007800
007800
007800
000000
000000
003800
003800
007800
007000
007000
006000
00C000
ENDCHAR
STARTCHAR 021B
ENCODING 539
SWIDTH 360 0
DWIDTH 14 0
BBX 12 35 1 -9
BITMAP
0C00
0C00
1C00
1C00
1C00
7FF0
FFF0
FFF0
1C00
1C00
1C00
1C00
1C00
1C00
1C00
1C00
1C00
1C00
1C00
1C00
1C00
1C00
1E00
1FB0
0FF0
07F0
0000
0000
03C0
03C0
0380
0380
0700
0700
0600
ENDCHAR
STARTCHAR 021C
ENCODING 540
SWIDTH 565 0
DWIDTH 22 0
BBX 18 35 2 -7
BITMAP
0FF800
3FFE00
FFFF00
F00F80
400780
0003C0
0003C0
0003C0
000380
000780
000F80
001F00
00FE00
07F800
0FFE00
0F1F00
080780
0003C0
0003C0
0003C0
0001C0
0001C0
0003C0
0003C0
0003C0
000780
000F80
001F00
007E00
03FC00
0FF000
FFC000
FF0000
F80000
C00000
ENDCHAR
STARTCHAR 021D
ENCODING 541
SWIDTH 488 0
DWIDTH 19 0
BBX 16 30 1 -9
BITMAP
1FF0
7FFC
7FFE
201E
000F
000F
000F
000F
000E
001E
007C
01F8
0FF8
0FBC
0C1E
000F
0007
0007
0007
0007
000F
000F
001E
003E
00FC
03F8
1FE0
FF80
FE00
F000
ENDCHAR
STARTCHAR 021E
ENCODING 542
SWIDTH 720 0
DWIDTH 28 0
BBX 21 37 4 0
BITMAP
0E0380
0F0700
078E00
03DC00
01FC00
00F800
007000
000000
000000
E00078
E00078
E00078
E00078
E00078
E00078
E00078
E00078
E00078
E00078
E00078
E00078
FFFFF8
FFFFF8
FFFFF8
E00078
E00078
E00078
E00078
E00078
E00078
E00078
E00078
E00078
E00078
E00078
E00078
E00078
ENDCHAR
STARTCHAR 021F
ENCODING 543
SWIDTH 617 0
DWIDTH 24 0
BBX 23 39 -2 0
BITMAP
E01C00
703800
387000
1CE000
0FC000
0FC000
078000
000000
000000
078000
078000
078000
078000
078000
078000
078000
078000
078000
078FE0
07BFF8
07FFFC
07E03C
07C01E
07C01E
07801E
07801E
07801E
07801E
07801E
07801E
07801E
07801E
07801E
07801E
07801E
07801E
07801E
07801E
07801E
ENDCHAR
STARTCHAR 0220
ENCODING 544
SWIDTH 720 0
DWIDTH 28 0
BBX 21 37 4 -9
BITMAP
E0FF00
E3FFC0
EFFFE0
EE01F0
FC00F0
F80078
F00078
F00038
F00038
E00038
E00038
E00038
E00038
E00038
E00038
E00038
E00038
E00038
E00038
E00038
E00038
E00038
E00038
E00038
E00038
E00038
E00038
E00038
000038
000038
000038
000038
000038
000038
000038
000038
000038
ENDCHAR
STARTCHAR 0221
ENCODING 545
SWIDTH 848 0
DWIDTH 33 0
BBX 31 34 2 -4
BITMAP
0001E000
0001E000
0001E000
0001E000
0001E000
0001E000
0001E000
0001E000
0001E000
07F1E000
0FFDE000
3FFFE000
3C07E000
7803E000
7803E000
7001E000
F001E000
F001E000
F001E000
F001E000
F001E000
F001E1F8
F001E7FC
F001EFFE
7801EE0E
7803FC0E
3C07FC1E
3FBE7FFC
1FFE3FFC
07F87FF0
00007000
00007000
00007000
00007000
ENDCHAR
STARTCHAR 0222
ENCODING 546
SWIDTH 668 0
DWIDTH 26 0
BBX 22 28 2 0
BITMAP
380070
380070
380070
380070
380070
380070
3C00F0
3C00F0
1E01E0
0FCFC0
07FF80
07FF80
1FFFE0
3E01F0
7C0078
780078
70003C
F0003C
F0003C
F0003C
F0003C
70003C
780078
7C0078
3E01F0
1FFFE0
0FFFC0
03FF00
ENDCHAR
STARTCHAR 0223
ENCODING 547
SWIDTH 591 0
DWIDTH 23 0
BBX 19 30 2 0
BITMAP
7803C0
7803C0
7803C0
7803C0
7803C0
7803C0
7803C0
7803C0
3803C0
3C0780
3E0F80
1FFF00
07FC00
1FFF00
3E0F80
7803C0
7001C0
F001E0
F001E0
F000E0
E000E0
F000E0
F000E0
F001E0
7001E0
7803C0
7C07C0
3FBF80
1FFF00
07FC00
ENDCHAR
STARTCHAR 0224
ENCODING 548
SWIDTH 565 0
DWIDTH 22 0
BBX 20 36 1 -8
BITMAP
7FFFE0
7FFFE0
7FFFE0
0001E0
0003C0
0003C0
000780
000F00
000F00
001E00
003C00
003C00
007800
00F000
00F000
01E000
03C000
03C000
078000
0F0000
0F0000
1E0000
3C0000
3C0000
780000
FFFFF0
FFFFF0
FFFFF0
000070
000070
000070
000070
0000F0
0007E0
0007E0
000300
ENDCHAR
STARTCHAR 0225
ENCODING 549
SWIDTH 462 0
DWIDTH 18 0
BBX 15 29 2 -8
BITMAP
FFFC
FFFC
FFFC
003C
0038
0078
00F0
01E0
01C0
03C0
0780
0700
0F00
1E00
3C00
3800
7800
F000
FFFE
FFFE
FFFE
000E
000E
000E
000E
001E
00FC
00FC
0060
ENDCHAR
STARTCHAR 0226
ENCODING 550
SWIDTH 617 0
DWIDTH 24 0
BBX 25 36 0 0
BITMAP
00080000
001C0000
003C0000
001C0000
00180000
00000000
00000000
00000000
001C0000
003E0000
003E0000
003E0000
00770000
00770000
00F70000
00E38000
00E38000
01E3C000
01C1C000
03C1C000
0381E000
0380E000
0780F000
0700F000
0FFFF000
0FFFF800
0FFFF800
1E003C00
1C003C00
1C001C00
3C001E00
38001E00
78000E00
78000F00
70000700
F0000780
ENDCHAR
STARTCHAR 0227
ENCODING 551
SWIDTH 540 0
DWIDTH 21 0
BBX 17 29 2 0
BITMAP
00C000
01E000
01E000
01E000
00C000
000000
000000
000000
07F800
3FFE00
3FFF00
180F00
000700
000780
000780
000780
001F80
0FFF80
3FFF80
7C0780
F00780
F00780
E00780
E00780
E00F80
F01F80
FCFB80
7FF380
1FE380
ENDCHAR
STARTCHAR 0228
ENCODING 552
SWIDTH 540 0
DWIDTH 21 0
BBX 15 37 4 -9
BITMAP
FFFE
FFFE
FFFE
E000
E000
E000
E000
E000
E000
E000
E000
E000
FFFE
FFFE
FFFE
E000
E000
E000
E000
E000
E000
E000
E000
E000
E000
FFFE
FFFE
FFFE
0180
0300
03C0
03E0
00E0
0070
00E0
0FE0
0FC0
ENDCHAR
STARTCHAR 0229
ENCODING 553
SWIDTH 540 0
DWIDTH 21 0
BBX 18 30 2 -9
BITMAP
03F800
0FFE00
1FFF00
3C0F80
780780
780380
7003C0
F003C0
F003C0
FFFFC0
FFFFC0
F00000
F00000
F00000
700000
780000
780000
3E0080
1FFF80
0FFF80
03FF00
006000
00E000
00F000
00F800
003C00
001C00
001800
03F800
03F000
ENDCHAR
STARTCHAR 022A
ENCODING 554
SWIDTH 771 0
DWIDTH 30 0
BBX 26 39 2 0
BITMAP
01FFE000
01FFE000
00000000
00000000
00000000
00E1C000
00E1E000
00E1E000
00408000
00000000
00000000
00FFC000
03FFF000
07FFFC00
0FC07E00
1F001E00
3E000F00
3C000780
78000780
78000780
780003C0
700003C0
F00003C0
F00003C0
F00003C0
F00003C0
F00003C0
F00003C0
700003C0
780003C0
78000380
78000780
3C000780
3C000F00
1E001E00
0F807E00
07FFFC00
03FFF000
00FFE000
ENDCHAR
STARTCHAR 022B
ENCODING 555
SWIDTH 591 0
DWIDTH 23 0
BBX 19 33 2 0
BITMAP
0FFF00
0FFF00
0FFF00
000000
000000
000000
070E00
0F0E00
0F0E00
020400
000000
000000
03FC00
0FFF00
1FFF80
3C0780
7803C0
7801E0
7001E0
F000E0
F000E0
F000E0
F000E0
F000E0
F000E0
F000E0
7001E0
7801E0
7803C0
3C07C0
1FBF80
0FFF00
07FC00
ENDCHAR
STARTCHAR 022C
ENCODING 556
SWIDTH 771 0
DWIDTH 30 0
BBX 26 39 2 0
BITMAP
01FFE000
01FFE000
00000000
00000000
00703000
00FC6000
01FFE000
0187C000
01800000
00000000
00000000
00FFC000
03FFF000
07FFFC00
0FC07E00
1F001E00
3E000F00
3C000780
78000780
78000780
780003C0
700003C0
F00003C0
F00003C0
F00003C0
F00003C0
F00003C0
F00003C0
700003C0
780003C0
78000380
78000780
3C000780
3C000F00
1E001E00
0F807E00
07FFFC00
03FFF000
00FFE000
ENDCHAR
STARTCHAR 022D
ENCODING 557
SWIDTH 591 0
DWIDTH 23 0
BBX 19 33 2 0
BITMAP
0FFF00
0FFF00
0FFF00
000000
000000
078300
0FE300
0FFF00
1C3E00
000000
000000
000000
03FC00
0FFF00
1FFF80
3C0780
7803C0
7801E0
7001E0
F000E0
F000E0
F000E0
F000E0
F000E0
F000E0
F000E0
7001E0
7801E0
7803C0
3C07C0
1FBF80
0FFF00
07FC00
ENDCHAR
STARTCHAR 022E
ENCODING 558
SWIDTH 771 0
DWIDTH 30 0
BBX 26 36 2 0
BITMAP
00040000
001E0000
001E0000
001E0000
000C0000
00000000
00000000
00000000
00FFC000
03FFF000
07FFFC00
0FC07E00
1F001E00
3E000F00
3C000780
78000780
78000780
780003C0
700003C0
F00003C0
F00003C0
F00003C0
F00003C0
F00003C0
F00003C0
700003C0
780003C0
78000380
78000780
3C000780
3C000F00
1E001E00
0F807E00
07FFFC00
03FFF000
00FFE000
ENDCHAR
STARTCHAR 022F
ENCODING 559
SWIDTH 591 0
DWIDTH 23 0
BBX 19 29 2 0
BITMAP
006000
00F000
00F000
00F000
006000
000000
000000
000000
03FC00
0FFF00
1FFF80
3C0780
7803C0
7801E0
7001E0
F000E0
F000E0
F000E0
F000E0
F000E0
F000E0
F000E0
7001E0
7801E0
7803C0
3C07C0
1FBF80
0FFF00
07FC00
ENDCHAR
STARTCHAR 0230
ENCODING 560
SWIDTH 771 0
DWIDTH 30 0
BBX 26 39 2 0
BITMAP
01FFE000
01FFE000
01FFE000
00000000
00000000
000E0000
001E0000
001E0000
000E0000
00000000
00000000
00FFC000
03FFF000
07FFFC00
0FC07E00
1F001E00
3E000F00
3C000780
78000780
78000780
780003C0
700003C0
F00003C0
F00003C0
F00003C0
F00003C0
F00003C0
F00003C0
700003C0
780003C0
78000380
78000780
3C000780
3C000F00
1E001E00
0F807E00
07FFFC00
03FFF000
00FFE000
ENDCHAR
STARTCHAR 0231
ENCODING 561
SWIDTH 591 0
DWIDTH 23 0
BBX 19 33 2 0
BITMAP
0FFF00
0FFF00
0FFF00
000000
000000
00E000
00F000
00F000
00E000
000000
000000
000000
03FC00
0FFF00
1FFF80
3C0780
7803C0
7801E0
7001E0
F000E0
F000E0
F000E0
F000E0
F000E0
F000E0
F000E0
7001E0
7801E0
7803C0
3C07C0
1FBF80
0FFF00
07FC00
ENDCHAR
STARTCHAR 0232
ENCODING 562
SWIDTH 565 0
DWIDTH 22 0
BBX 22 33 0 0
BITMAP
07FF80
07FF80
07FF80
000000
000000
F0003C
700038
780078
3C00F0
3C00F0
1E01E0
1E01E0
0F03C0
0F03C0
078780
038700
03CF00
01CE00
01FE00
00FC00
00FC00
007800
007800
007800
007800
007800
007800
007800
007800
007800
007800
007800
007800
ENDCHAR
STARTCHAR 0233
ENCODING 563
SWIDTH 488 0
DWIDTH 19 0
BBX 20 35 0 -9
BITMAP
0FFF00
0FFF00
000000
000000
000000
F000F0
7000E0
7801E0
7801E0
3801C0
3C03C0
1C0380
1C0780
1E0780
0E0700
0F0F00
070F00
070E00
079E00
039C00
039C00
01FC00
01F800
01F800
00F800
00F000
00F000
00E000
01E000
01E000
03C000
03C000
DF8000
FF0000
FE0000
ENDCHAR
STARTCHAR 0234
ENCODING 564
SWIDTH 360 0
DWIDTH 14 0
BBX 14 31 0 -1
BITMAP
1E00
1E00
1E00
1E00
1E00
1E00
1E00
1E00
1E00
1E00
1E00
1E00
1E00
1E00
1E00
1E00
1E00
1E00
1E00
1E00
1E00
1FF0
1FF8
1FFC
1E1C
3E1C
3E1C
7F3C
77F8
E3F0
6000
ENDCHAR
STARTCHAR 0235
ENCODING 565
SWIDTH 720 0
DWIDTH 28 0
BBX 26 22 3 -1
BITMAP
E1FC0000
E7FF0000
EFFF8000
FC078000
F803C000
F803C000
F003C000
F003C000
F003C000
F003C000
F003C000
F003C000
F003FE00
F003FF00
F003FF80
F003C380
F003C3C0
F007C3C0
F00FE780
F00EFF80
F00E7F00
00040000
ENDCHAR
STARTCHAR 0236
ENCODING 566
SWIDTH 385 0
DWIDTH 15 0
BBX 14 27 1 -1
BITMAP
0C00
0C00
1C00
1C00
1C00
7FF0
FFF0
FFF0
1C00
1C00
1C00
1C00
1C00
1C00
1C00
1C00
1C00
1FE0
1FF8
1FF8
3C3C
3C1C
7C3C
7E38
EFF8
E7F0
4000
ENDCHAR
STARTCHAR 0237
ENCODING 567
SWIDTH 257 0
DWIDTH 10 0
BBX 9 30 -2 -9
BITMAP
0780
0780
0780
0780
0780
0780
0780
0780
0780
0780
0780
0780
0780
0780
0780
0780
0780
0780
0780
0780
0780
0780
0780
0780
0780
0780
0700
FF00
FE00
FC00
ENDCHAR
STARTCHAR 0238
ENCODING 568
SWIDTH 951 0
DWIDTH 37 0
BBX 34 30 2 0
BITMAP
0001E00000
0001E00000
0001E00000
0001E00000
0001E00000
0001E00000
0001E00000
0001E00000
0001E00000
07F1E7F800
0FFDEFFC00
3FFFDFFE00
3C07F80F00
7803F00780
7803E00780
7001E00380
F001E00380
F001E003C0
F001E003C0
F001E003C0
F001E003C0
F001E003C0
F001E00380
7001E00380
7803E00780
7803F00780
3C07780F00
3FBF3F7E00
1FFE1FFC00
07F80FF800
ENDCHAR
STARTCHAR 0239
ENCODING 569
SWIDTH 951 0
DWIDTH 37 0
BBX 34 30 2 -9
BITMAP
07F807F000
0FFE1FFC00
1FFF3FFE00
3C07380F00
7803F00780
7803F00780
7001E00380
F001E00380
F001E003C0
F001E003C0
F001E003C0
F001E003C0
F001E003C0
F001E00380
F001E00380
7003E00780
7803F00780
3C07F80F00
3FFFDF7E00
1FFDCFFC00
07F9E7F800
0001E00000
0001E00000
0001E00000
0001E00000
0001E00000
0001E00000
0001E00000
0001E00000
0001E00000
ENDCHAR
STARTCHAR 023A
ENCODING 570
SWIDTH 617 0
DWIDTH 24 0
BBX 25 33 0 -3
BITMAP
00006000
0000E000
001CE000
003EC000
003FC000
003FC000
00778000
00778000
00F78000
00E38000
00E78000
01E7C000
01C7C000
03CFC000
038FE000
038CE000
079CF000
071CF000
0FFFF000
0FFFF800
0FFFF800
1E703C00
1C703C00
1C601C00
3CE01E00
38E01E00
78C00E00
79C00F00
71C00700
F1800780
03800000
03800000
03000000
ENDCHAR
STARTCHAR 023B
ENCODING 571
SWIDTH 617 0
DWIDTH 24 0
BBX 21 33 2 -3
BITMAP
000070
000060
007FE0
01FFF8
07FFF8
0FC1F0
1F01C0
1E0180
3C0380
3C0380
780300
780700
700700
700600
F00E00
F00E00
F00C00
F01C00
F01800
703800
783800
783000
787000
3C7000
3E6000
1FE000
1FE010
0FFFF0
03FFF0
01FFF0
018000
038000
038000
ENDCHAR
STARTCHAR 023C
ENCODING 572
SWIDTH 462 0
DWIDTH 18 0
BBX 17 38 2 -8
BITMAP
000380
000300
000700
000700
000600
000E00
000E00
001C00
001C00
03FC00
0FFE00
1FFE00
3E3000
787000
787000
706000
F0E000
F0E000
F0C000
F1C000
F18000
F18000
F38000
730000
7F0000
7F0000
3E0200
1FFE00
0FFE00
0FFE00
1C0000
1C0000
180000
380000
380000
300000
700000
600000
ENDCHAR
STARTCHAR 023D
ENCODING 573
SWIDTH 514 0
DWIDTH 20 0
BBX 19 28 0 0
BITMAP
0E0000
0E0000
0E0000
0E0000
0E0000
0E0000
0E0000
0E0000
0E0000
0E0000
0E0000
0E0000
FFFC00
FFFC00
FFFC00
0E0000
0E0000
0E0000
0E0000
0E0000
0E0000
0E0000
0E0000
0E0000
0E0000
0FFFE0
0FFFE0
0FFFE0
ENDCHAR
STARTCHAR 023E
ENCODING 574
SWIDTH 540 0
DWIDTH 21 0
BBX 21 33 0 -3
BITMAP
000070
000070
FFFFF8
FFFFF8
FFFFF8
0079C0
007980
007B80
007B00
007F00
007F00
007E00
007E00
007C00
007C00
007800
007800
007800
007800
007800
00F800
00F800
01F800
01F800
03F800
03F800
077800
077800
0E7800
0E7800
0C0000
1C0000
180000
ENDCHAR
STARTCHAR 023F
ENCODING 575
SWIDTH 462 0
DWIDTH 18 0
BBX 15 30 2 -9
BITMAP
0FF8
3FFC
7FFC
F008
E000
E000
F000
F800
7E00
3FC0
0FF0
03F8
007C
003E
001E
000E
001E
801C
F8FC
FFF8
7FE0
1E00
0F00
0700
0700
0780
03C0
03FE
01FE
00FE
ENDCHAR
STARTCHAR 0240
ENCODING 576
SWIDTH 462 0
DWIDTH 18 0
BBX 16 30 2 -9
BITMAP
FFFC
FFFC
FFFC
003C
0038
0078
00F0
01E0
01C0
03C0
0780
0700
0F00
1E00
3C00
3800
7800
F000
F000
FC00
FE00
0F00
0700
0780
0380
0380
03C0
01FF
00FF
007F
ENDCHAR
STARTCHAR 0241
ENCODING 577
SWIDTH 437 0
DWIDTH 17 0
BBX 16 28 0 0
BITMAP
1FE0
7FF8
FFFC
703E
401F
000F
000F
000F
000F
000F
000E
001E
003C
007C
01F8
07F0
07C0
0700
0700
0700
0700
0700
0700
0700
0700
0700
0700
0700
ENDCHAR
STARTCHAR 0242
ENCODING 578
SWIDTH 411 0
DWIDTH 16 0
BBX 15 21 1 0
BITMAP
3FE0
FFF0
FFF8
E07C
003C
001C
001E
001E
001C
001C
003C
003C
0078
00F0
03E0
0FC0
0F80
0E00
0E00
0E00
0E00
ENDCHAR
STARTCHAR 0243
ENCODING 579
SWIDTH 642 0
DWIDTH 25 0
BBX 22 28 1 0
BITMAP
1FFC00
1FFFC0
1FFFF0
1C03F0
1C00F8
1C0078
1C0038
1C0038
1C0038
1C0078
1C0070
1C01F0
1FFFC0
1FFF00
1FFFE0
1C01F8
1C0078
1C003C
FFF03C
FFF03C
FFF03C
1C003C
1C003C
1C0078
1C01F8
1FFFF0
1FFFE0
1FFF00
ENDCHAR
STARTCHAR 0244
ENCODING 580
SWIDTH 720 0
DWIDTH 28 0
BBX 28 28 0 0
BITMAP
1E000780
1E000780
1E000780
1E000780
1E000780
1E000780
1E000780
1E000780
1E000780
1E000780
1E000780
FFFFFFF0
FFFFFFF0
FFFFFFF0
1E000780
1E000780
1E000780
1E000780
1E000780
0E000780
0E000780
0F000700
0F000F00
07800F00
07C03E00
03FFFC00
01FFF800
007FE000
ENDCHAR
STARTCHAR 0245
ENCODING 581
SWIDTH 591 0
DWIDTH 23 0
BBX 23 28 0 0
BITMAP
003C00
003C00
007C00
007E00
007E00
00EE00
00E700
00E700
01C700
01C380
03C380
0383C0
0381C0
0781C0
0701E0
0700E0
0F00E0
0E00F0
1E0070
1E0078
1C0078
3C0038
38003C
38003C
78001C
70001E
70000E
F0000E
ENDCHAR
STARTCHAR 0246
ENCODING 582
SWIDTH 540 0
DWIDTH 21 0
BBX 15 33 4 -3
BITMAP
001C
001C
FFFE
FFFE
FFFE
E038
E030
E030
E070
E070
E060
E060
E0E0
E0E0
FFFE
FFFE
FFFE
E1C0
E180
E380
E380
E380
E300
E700
E700
E700
E600
FFFE
FFFE
FFFE
0C00
1C00
1C00
ENDCHAR
STARTCHAR 0247
ENCODING 583
SWIDTH 540 0
DWIDTH 21 0
BBX 18 38 2 -8
BITMAP
000380
000300
000700
000700
000600
000E00
000E00
000C00
001C00
03FC00
0FFE00
1FFF00
3C3F80
787780
787380
7063C0
F0E3C0
F0E3C0
FFFFC0
FFFFC0
F1C000
F18000
F38000
738000
7B0000
7F0000
3F0080
1FFF80
0FFF80
0FFF00
0C0000
1C0000
1C0000
180000
380000
380000
300000
700000
ENDCHAR
STARTCHAR 0248
ENCODING 584
SWIDTH 257 0
DWIDTH 10 0
BBX 13 35 -3 -7
BITMAP
01C0
01C0
01C0
01C0
01C0
01C0
01C0
01C0
01C0
01C0
01C0
01C0
01C0
1FF8
1FF8
1FF8
01C0
01C0
01C0
01C0
01C0
01C0
01C0
01C0
01C0
01C0
01C0
01C0
01C0
03C0
03C0
0780
FF80
FF00
FE00
ENDCHAR
STARTCHAR 0249
ENCODING 585
SWIDTH 257 0
DWIDTH 10 0
BBX 12 38 -2 -9
BITMAP
0300
0780
0780
0780
0300
0000
0000
0000
0780
0780
0780
0780
0780
0780
0780
0780
0780
3FF0
3FF0
0780
0780
0780
0780
0780
0780
0780
0780
0780
0780
0780
0780
0780
0780
0780
0700
FF00
FE00
FC00
ENDCHAR
STARTCHAR 024A
ENCODING 586
SWIDTH 745 0
DWIDTH 29 0
BBX 28 37 2 -9
BITMAP
00FF0700
03FFC700
07FFE700
0F80F700
1E003F00
3C001F00
3C000F00
78000F00
78000F00
78000F00
70000F00
F0000700
F0000700
F0000700
F0000700
F0000700
F0000700
70000F00
70000F00
78000F00
78000F00
3C000F00
3C001F00
1E003F00
1F007700
0FFFF700
07FFE700
01FF8700
00000700
00000700
00000700
00000700
00000700
00000780
000007F0
000003F0
000001F0
ENDCHAR
STARTCHAR 024B
ENCODING 587
SWIDTH 591 0
DWIDTH 23 0
BBX 22 30 2 -9
BITMAP
07F0E0
0FFCE0
1FFFE0
3C07E0
7803E0
7803E0
7001E0
F001E0
F001E0
F001E0
F001E0
F001E0
F001E0
F001E0
F001E0
7801E0
7803E0
3C07E0
3FBFE0
1FFDE0
07F9E0
0001E0
0001E0
0001E0
0001E0
0001E0
0001E0
0000F4
0000FC
00007C
ENDCHAR
STARTCHAR 024C
ENCODING 588
SWIDTH 617 0
DWIDTH 24 0
BBX 23 28 0 0
BITMAP
0FFC00
0FFFC0
0FFFE0
0E03F0
0E00F8
0E0078
0E0038
0E003C
0E003C
0E0038
0E0038
0E0078
0E00F0
0E0FE0
FFFFC0
FFFF00
FFFF80
0E0780
0E03C0
0E01C0
0E01E0
0E00F0
0E00F0
0E0078
0E0078
0E003C
0E001E
0E001E
ENDCHAR
STARTCHAR 024D
ENCODING 589
SWIDTH 411 0
DWIDTH 16 0
BBX 15 21 0 0
BITMAP
1C3E
1C7E
1CFE
1DC0
1F80
1F00
1E00
1E00
1E00
FFF0
FFF0
1E00
1E00
1E00
1E00
1E00
1E00
1E00
1E00
1E00
1E00
ENDCHAR
STARTCHAR 024E
ENCODING 590
SWIDTH 565 0
DWIDTH 22 0
BBX 22 28 0 0
BITMAP
F0003C
700038
780078
3C00F0
3C00F0
FFFFFC
FFFFFC
FFFFFC
0F03C0
078780
038700
03CF00
01CE00
01FE00
00FC00
00FC00
007800
007800
007800
007800
007800
007800
007800
007800
007800
007800
007800
007800
ENDCHAR
STARTCHAR 024F
ENCODING 591
SWIDTH 488 0
DWIDTH 19 0
BBX 20 30 0 -9
BITMAP
F000F0
7000E0
7801E0
7801E0
3801C0
3C03C0
1C0380
FFFFE0
FFFFE0
FFFFE0
0F0F00
070F00
070E00
079E00
039C00
039C00
01FC00
01F800
01F800
00F800
00F000
00F000
00E000
01E000
01E000
03C000
03C000
DF8000
FF0000
FE0000
ENDCHAR
STARTCHAR 0250
ENCODING 592
SWIDTH 540 0
DWIDTH 21 0
BBX 17 21 3 0
BITMAP
E1FC00
E7FE00
EFFF00
FC0780
F80780
F00780
F00780
F00780
F00780
F01F00
FFFE00
FFF800
FF0000
F00000
F00000
F00000
F00000
780400
7EFC00
3FFE00
1FF800
ENDCHAR
STARTCHAR 0251
ENCODING 593
SWIDTH 591 0
DWIDTH 23 0
BBX 21 21 2 0
BITMAP
07F0E0
0FFCE0
3FFFE0
3C07E0
7803E0
7803E0
7001E0
F001E0
F001E0
F001E0
F001E0
F001E0
F001E0
F001E0
F001E0
7801E0
7803E0
3C07E0
3FBFF0
1FFCF8
07F878
ENDCHAR
STARTCHAR 0252
ENCODING 594
SWIDTH 591 0
DWIDTH 23 0
BBX 21 21 1 0
BITMAP
F07F00
F9FF80
FBFFC0
3F01E0
3E00F0
3C00F0
3C0070
3C0078
3C0078
3C0078
3C0078
3C0078
3C0078
3C0078
3C0070
3C00F0
3E00F0
3F01E0
3FEFE0
39FFC0
38FF00
ENDCHAR
STARTCHAR 0253
ENCODING 595
SWIDTH 591 0
DWIDTH 23 0
BBX 19 30 3 0
BITMAP
0E0000
3F0000
7F0000
790000
F00000
F00000
F00000
F00000
F00000
F1FC00
F7FE00
FFFF00
FC0780
F803C0
F803C0
F001C0
F001E0
F001E0
F001E0
F001E0
F001E0
F001E0
F001E0
F001C0
F803C0
F803C0
FC0780
EFBF80
E7FF00
E3FC00
ENDCHAR
STARTCHAR 0254
ENCODING 596
SWIDTH 462 0
DWIDTH 18 0
BBX 16 21 1 0
BITMAP
7FC0
FFF0
7FF8
407C
003C
001E
001E
000E
000E
000F
000F
000E
000E
000E
001E
001E
003C
007C
7FF8
7FF0
7FC0
ENDCHAR
STARTCHAR 0255
ENCODING 597
SWIDTH 514 0
DWIDTH 20 0
BBX 17 23 2 -2
BITMAP
03FE00
0FFE00
1FFE00
3E0200
3C0000
780000
780000
700000
F00000
F00000
F00000
F07C00
F3FF00
77FF00
7F0780
7E0380
7C0380
3E0780
7FDF00
7FFF00
E7FC00
E00000
200000
ENDCHAR
STARTCHAR 0256
ENCODING 598
SWIDTH 591 0
DWIDTH 23 0
BBX 23 39 2 -9
BITMAP
0001E0
0001E0
0001E0
0001E0
0001E0
0001E0
0001E0
0001E0
0001E0
07F1E0
0FFDE0
3FFFE0
3C07E0
7803E0
7803E0
7001E0
F001E0
F001E0
F001E0
F001E0
F001E0
F001E0
F001E0
F001E0
7801E0
7803E0
3C07E0
3FBFE0
1FFDE0
07F9E0
0001E0
0001E0
0001E0
0001E0
0001E0
0001E0
0000FE
0000FE
00007E
ENDCHAR
STARTCHAR 0257
ENCODING 599
SWIDTH 591 0
DWIDTH 23 0
BBX 22 30 2 0
BITMAP
00003C
0000FC
0000FC
0001E0
0001E0
0001E0
0001E0
0001E0
0001E0
07F1E0
0FFDE0
3FFFE0
3C07E0
7803E0
7803E0
7001E0
F001E0
F001E0
F001E0
F001E0
F001E0
F001E0
F001E0
F001E0
7801E0
7803E0
3C07E0
3FBFE0
1FFCE0
07F8E0
ENDCHAR
STARTCHAR 0258
ENCODING 600
SWIDTH 540 0
DWIDTH 21 0
BBX 18 21 2 0
BITMAP
07F000
1FFC00
3FFE00
7C0F00
780700
F00780
F00380
F00380
F003C0
FFFFC0
FFFFC0
0003C0
0003C0
0003C0
000380
000780
000780
401F00
7FFE00
7FFC00
3FF000
ENDCHAR
STARTCHAR 0259
ENCODING 601
SWIDTH 540 0
DWIDTH 21 0
BBX 18 21 2 0
BITMAP
1FF000
7FFC00
7FFE00
601F00
000F80
000780
000380
0003C0
0003C0
0003C0
FFFFC0
FFFFC0
FFFFC0
F003C0
F00380
F00780
780780
780F00
3F7E00
1FFC00
0FF800
ENDCHAR
STARTCHAR 025A
ENCODING 602
SWIDTH 771 0
DWIDTH 30 0
BBX 28 21 2 0
BITMAP
1FF00000
7FFC0000
7FFE0000
601F0000
000F0000
00078000
00039C00
0003FC00
000FFC00
00FFDE00
0FFFDE10
7FE3CFF0
FE03C7F0
F00383E0
F0038000
F0078000
78078000
780F0000
3F7E0000
1FFC0000
0FF80000
ENDCHAR
STARTCHAR 025B
ENCODING 603
SWIDTH 462 0
DWIDTH 18 0
BBX 15 21 2 0
BITMAP
0FFC
3FFE
7FFE
7804
F000
F000
7000
7000
3E00
1FF0
0FF0
7FF0
F800
E000
E000
E000
E000
F002
7F3E
3FFE
1FFC
ENDCHAR
STARTCHAR 025C
ENCODING 604
SWIDTH 488 0
DWIDTH 19 0
BBX 16 21 1 0
BITMAP
3FF0
7FFC
7FFE
201E
000F
000F
000E
000E
007C
0FF8
0FF8
0FFE
000F
0007
0007
0007
0007
C00F
FCFE
FFFC
7FF8
ENDCHAR
STARTCHAR 025D
ENCODING 605
SWIDTH 694 0
DWIDTH 27 0
BBX 26 21 1 0
BITMAP
3FF00000
7FFC0000
7FFE0000
201EF000
000FF000
000FF000
000E7800
000E78C0
007C3FC0
0FF81FC0
0FF80F00
0FFE0000
000F0000
00070000
00070000
00070000
00070000
C00F0000
FCFE0000
FFFC0000
7FF80000
ENDCHAR
STARTCHAR 025E
ENCODING 606
SWIDTH 591 0
DWIDTH 23 0
BBX 20 21 2 0
BITMAP
03FE00
0FFF80
1FFFC0
3E03E0
3C01E0
7800E0
7000E0
F001E0
F007C0
F07F00
F07F00
F07FC0
F001E0
F000E0
7000F0
7800F0
7800E0
3E01E0
1FFFC0
0FFF80
03FF00
ENDCHAR
STARTCHAR 025F
ENCODING 607
SWIDTH 257 0
DWIDTH 10 0
BBX 12 30 -2 -9
BITMAP
0780
0780
0780
0780
0780
0780
0780
0780
0780
3FF0
3FF0
0780
0780
0780
0780
0780
0780
0780
0780
0780
0780
0780
0780
0780
0780
0780
0700
FF00
FE00
FC00
ENDCHAR
STARTCHAR 0260
ENCODING 608
SWIDTH 591 0
DWIDTH 23 0
BBX 22 39 2 -9
BITMAP
00003C
0000FC
0000FC
0001E0
0001E0
0001E0
0001E0
0001E0
0001E0
07F1E0
0FFDE0
1FFFE0
3C07E0
7803E0
7803E0
7001E0
F001E0
F001E0
F001E0
F001E0
F001E0
F001E0
F001E0
F001E0
7001E0
7803E0
3C07E0
3F3FE0
1FFDE0
07F9E0
0001E0
0001E0
0001C0
0001C0
0003C0
200780
3FFF80
3FFF00
1FFC00
ENDCHAR
STARTCHAR 0261
ENCODING 609
SWIDTH 591 0
DWIDTH 23 0
BBX 19 30 2 -9
BITMAP
07F0E0
0FFCE0
1FFFE0
3C07E0
7803E0
7803E0
7001E0
F001E0
F001E0
F001E0
F001E0
F001E0
F001E0
F001E0
7001E0
7001E0
7803E0
3C07E0
3F3FE0
1FFDE0
07F9E0
0001E0
0001E0
0001C0
0001C0
0003C0
200780
3FFF80
3FFF00
1FFC00
ENDCHAR
STARTCHAR 0262
ENCODING 610
SWIDTH 565 0
DWIDTH 22 0
BBX 18 21 2 0
BITMAP
03FF00
0FFF80
1FFF80
3E0300
7C0000
780000
700000
F00000
F00000
F03FC0
F03FC0
F03FC0
F003C0
F003C0
7003C0
7803C0
7803C0
3C03C0
1FFFC0
0FFFC0
07FF00
ENDCHAR
STARTCHAR 0263
ENCODING 611
SWIDTH 488 0
DWIDTH 19 0
BBX 20 30 0 -9
BITMAP
F000F0
7000E0
7801E0
7801C0
3803C0
3C0380
1C0780
1E0700
0E0700
0F0F00
070E00
071E00
079C00
039C00
03F800
01F800
01F000
00F000
00F000
01F800
01F800
03B800
039C00
039C00
071C00
071C00
079C00
03FC00
03F800
01F000
ENDCHAR
STARTCHAR 0264
ENCODING 612
SWIDTH 488 0
DWIDTH 19 0
BBX 20 21 0 0
BITMAP
F000F0
F801F0
FC03F0
1C0780
1E0700
0F0F00
071E00
039C00
03F800
01F800
00F000
00F000
01F800
03F800
039C00
079C00
071C00
079C00
03FC00
03FC00
01F800
ENDCHAR
STARTCHAR 0265
ENCODING 613
SWIDTH 617 0
DWIDTH 24 0
BBX 18 30 3 -9
BITMAP
F003C0
F003C0
F003C0
F003C0
F003C0
F003C0
F003C0
F003C0
F003C0
F003C0
F003C0
F003C0
F003C0
F003C0
F003C0
F003C0
F007C0
780FC0
7FFFC0
3FFBC0
1FF3C0
0003C0
0003C0
0003C0
0003C0
0003C0
0003C0
0003C0
0003C0
0003C0
ENDCHAR
STARTCHAR 0266
ENCODING 614
SWIDTH 617 0
DWIDTH 24 0
BBX 18 30 3 0
BITMAP
0E0000
3F0000
7F0000
790000
F00000
F00000
F00000
F00000
F00000
F1FC00
F7FF00
FFFF80
FC0780
F803C0
F803C0
F003C0
F003C0
F003C0
F003C0
F003C0
F003C0
F003C0
F003C0
F003C0
F003C0
F003C0
F003C0
F003C0
F003C0
F003C0
ENDCHAR
STARTCHAR 0267
ENCODING 615
SWIDTH 617 0
DWIDTH 24 0
BBX 18 39 3 -9
BITMAP
0E0000
3F0000
7F0000
790000
F00000
F00000
F00000
F00000
F00000
F1FC00
F7FF00
FFFF80
FC0780
F803C0
F803C0
F003C0
F003C0
F003C0
F003C0
F003C0
F003C0
F003C0
F003C0
F003C0
F003C0
F003C0
F003C0
F003C0
F003C0
F003C0
0003C0
0003C0
0003C0
0003C0
0003C0
0003C0
001FC0
001F80
001F00
ENDCHAR
STARTCHAR 0268
ENCODING 616
SWIDTH 257 0
DWIDTH 10 0
BBX 10 29 0 0
BITMAP
0C00
1E00
1E00
1E00
0C00
0000
0000
0000
1E00
1E00
1E00
1E00
1E00
1E00
1E00
1E00
1E00
FFC0
FFC0
1E00
1E00
1E00
1E00
1E00
1E00
1E00
1E00
1E00
1E00
ENDCHAR
STARTCHAR 0269
ENCODING 617
SWIDTH 308 0
DWIDTH 12 0
BBX 9 21 3 0
BITMAP
F000
F000
F000
F000
F000
F000
F000
F000
F000
F000
F000
F000
F000
F000
F000
F000
F000
F000
7D80
7F80
3F80
ENDCHAR
STARTCHAR 026A
ENCODING 618
SWIDTH 308 0
DWIDTH 12 0
BBX 10 21 1 0
BITMAP
FFC0
FFC0
3F80
0E00
0E00
0E00
0E00
0E00
0E00
0E00
0E00
0E00
0E00
0E00
0E00
0E00
0E00
0E00
1F00
FFC0
FFC0
ENDCHAR
STARTCHAR 026B
ENCODING 619
SWIDTH 360 0
DWIDTH 14 0
BBX 15 30 0 0
BITMAP
0380
0380
0380
0380
0380
0380
0380
0380
0380
0380
0380
0380
0386
3F8C
7F9C
67FC
E3F8
C380
0380
0380
0380
0380
0380
0380
0380
0380
0380
0380
0380
0380
ENDCHAR
STARTCHAR 026C
ENCODING 620
SWIDTH 334 0
DWIDTH 13 0
BBX 13 30 0 0
BITMAP
0380
0380
0380
0380
0380
0380
0380
0380
0380
0380
3B80
7F80
FF80
E780
E380
F380
FFF8
7FF8
0380
0380
0380
0380
0380
0380
0380
0380
0380
0380
0380
0380
ENDCHAR
STARTCHAR 026D
ENCODING 621
SWIDTH 257 0
DWIDTH 10 0
BBX 9 39 3 -9
BITMAP
F000
F000
F000
F000
F000
F000
F000
F000
F000
F000
F000
F000
F000
F000
F000
F000
F000
F000
F000
F000
F000
F000
F000
F000
F000
F000
F000
F000
F000
F000
F000
F000
F000
F000
F000
7000
7F80
3F80
1F80
ENDCHAR
STARTCHAR 026E
ENCODING 622
SWIDTH 642 0
DWIDTH 25 0
BBX 21 39 3 -9
BITMAP
F00000
F00000
F00000
F00000
F00000
F00000
F00000
F00000
F00000
FFFFF0
FFFFF0
FFFFF0
F000E0
F001E0
F003C0
F00780
F00F00
F01E00
F03C00
F07800
F07000
F0FC00
F0FF80
F0FFE0
F003F0
F000F0
F00078
F00078
F00038
F00038
000038
000038
000078
000078
0000F0
0801F0
0FFFE0
0FFFC0
07FF00
ENDCHAR
STARTCHAR 026F
ENCODING 623
SWIDTH 925 0
DWIDTH 36 0
BBX 30 21 3 0
BITMAP
F007801C
F007801C
F007801C
F007801C
F007801C
F007801C
F007801C
F007801C
F007801C
F007801C
F007801C
F007801C
F007801C
F007803C
F007803C
F007803C
F00F807C
781FC07C
7FFBFFDC
3FF9FFDC
1FE0FF1C
ENDCHAR
STARTCHAR 0270
ENCODING 624
SWIDTH 925 0
DWIDTH 36 0
BBX 30 30 3 -9
BITMAP
F007801C
F007801C
F007801C
F007801C
F007801C
F007801C
F007801C
F007801C
F007801C
F007801C
F007801C
F007801C
F007801C
F007803C
F007803C
F007803C
F00F807C
781FC07C
7FFBFFDC
3FF9FFDC
1FE0FF1C
0000001C
0000001C
0000001C
0000001C
0000001C
0000001C
0000001C
0000001C
0000001C
ENDCHAR
STARTCHAR 0271
ENCODING 625
SWIDTH 925 0
DWIDTH 36 0
BBX 30 30 3 -9
BITMAP
E1FC0FE0
E7FE3FF0
EFFF7FF8
FC0FE07C
F807C03C
F007C01C
F007801C
F003801C
F003801C
F003801C
F003801C
F003801C
F003801C
F003801C
F003801C
F003801C
F003801C
F003801C
F003801C
F003801C
F003801C
0000001C
0000001C
0000001C
0000001C
0000001C
0000001C
000001FC
000001F8
000001F0
ENDCHAR
STARTCHAR 0272
ENCODING 626
SWIDTH 617 0
DWIDTH 24 0
BBX 22 30 -1 -9
BITMAP
0E1FC0
0E7FF0
0EFFF8
0FC078
0F803C
0F803C
0F003C
0F003C
0F003C
0F003C
0F003C
0F003C
0F003C
0F003C
0F003C
0F003C
0F003C
0F003C
0F003C
0F003C
0F003C
0F0000
0F0000
0F0000
0F0000
0F0000
0E0000
FE0000
FE0000
FC0000
ENDCHAR
STARTCHAR 0273
ENCODING 627
SWIDTH 617 0
DWIDTH 24 0
BBX 22 30 3 -9
BITMAP
E1FC00
E7FF00
EFFF80
FC0780
F803C0
F803C0
F003C0
F003C0
F003C0
F003C0
F003C0
F003C0
F003C0
F003C0
F003C0
F003C0
F003C0
F003C0
F003C0
F003C0
F003C0
0003C0
0003C0
0003C0
0001C0
0001C0
0001C0
0001F4
0000FC
00007C
ENDCHAR
STARTCHAR 0274
ENCODING 628
SWIDTH 617 0
DWIDTH 24 0
BBX 18 21 3 0
BITMAP
F801C0
F801C0
FC01C0
FE01C0
EE01C0
EF01C0
E781C0
F781C0
F3C1C0
F1E1C0
F1E1C0
F0F1C0
F071C0
F079C0
F03DC0
F01DC0
F01FC0
F00FC0
F00FC0
F007C0
F003C0
ENDCHAR
STARTCHAR 0275
ENCODING 629
SWIDTH 591 0
DWIDTH 23 0
BBX 19 21 2 0
BITMAP
03FC00
0FFF00
1FFF80
3C0780
7803C0
7801E0
7001E0
F000E0
F000E0
FFFFE0
FFFFE0
FFFFE0
F000E0
F000E0
7001E0
7801E0
7803C0
3C07C0
1FFF80
0FFF00
07FC00
ENDCHAR
STARTCHAR 0276
ENCODING 630
SWIDTH 848 0
DWIDTH 33 0
BBX 30 21 2 0
BITMAP
03F8FFFC
0FFEFFFC
1FFFFFFC
3E07E000
7C03E000
7801E000
7001E000
F000E000
F000E000
F000FFF8
F000FFF8
F000FFF8
F000E000
F000E000
7001E000
7801E000
7803E000
3C07E000
1FBFFFFC
0FFEFFFC
07FCFFFC
ENDCHAR
STARTCHAR 0277
ENCODING 631
SWIDTH 771 0
DWIDTH 30 0
BBX 26 21 2 0
BITMAP
00FFC000
03FFF800
0FFFFC00
1F803E00
3E000F00
3C000780
78000780
700003C0
700E03C0
F00E01C0
F00E01C0
F00E01C0
F00E01C0
F00E01C0
F00E01C0
701E03C0
781E03C0
783F0780
3FFBDF80
1FF3FF00
0FE1FC00
ENDCHAR
STARTCHAR 0278
ENCODING 632
SWIDTH 720 0
DWIDTH 28 0
BBX 24 39 2 -9
BITMAP
001C00
001C00
001C00
001C00
001C00
001C00
001C00
001C00
001C00
01FF80
07FFE0
1FFFF8
3E1C7C
3C1C3C
781C1E
701C0E
F01C0F
F01C0F
F01C0F
F01C07
F01C0F
F01C0F
F01C0F
701C0E
781C1E
3C1C1E
3E1C7C
1FFFF8
07FFF0
01FF80
003C00
003C00
003C00
003C00
003C00
003C00
003C00
003C00
003C00
ENDCHAR
STARTCHAR 0279
ENCODING 633
SWIDTH 411 0
DWIDTH 16 0
BBX 12 21 1 0
BITMAP
00F0
00F0
00F0
00F0
00F0
00F0
00F0
00F0
00F0
00F0
00F0
00F0
00F0
00F0
00F0
01F0
03F0
0770
FF70
FE70
F870
ENDCHAR
STARTCHAR 027A
ENCODING 634
SWIDTH 411 0
DWIDTH 16 0
BBX 12 30 1 0
BITMAP
00F0
00F0
00F0
00F0
00F0
00F0
00F0
00F0
00F0
00F0
00F0
00F0
00F0
00F0
00F0
00F0
00F0
00F0
00F0
00F0
00F0
00F0
00F0
00F0
01F0
03F0
0770
FF70
FE70
F870
ENDCHAR
STARTCHAR 027B
ENCODING 635
SWIDTH 411 0
DWIDTH 16 0
BBX 16 30 1 -9
BITMAP
00F0
00F0
00F0
00F0
00F0
00F0
00F0
00F0
00F0
00F0
00F0
00F0
00F0
00F0
00F0
01F0
03F0
0770
FFF0
FEF0
F8F0
00F0
00F0
00F0
00F0
00F0
0070
007F
007F
003F
ENDCHAR
STARTCHAR 027C
ENCODING 636
SWIDTH 411 0
DWIDTH 16 0
BBX 12 30 3 -9
BITMAP
E1F0
E3F0
E7F0
EE00
FC00
F800
F000
F000
F000
F000
F000
F000
F000
F000
F000
F000
F000
F000
F000
F000
F000
F000
F000
F000
F000
F000
F000
F000
F000
F000
ENDCHAR
STARTCHAR 027D
ENCODING 637
SWIDTH 411 0
DWIDTH 16 0
BBX 12 30 3 -9
BITMAP
E1F0
E3F0
E7F0
EE00
FC00
F800
F000
F000
F000
F000
F000
F000
F000
F000
F000
F000
F000
F000
F000
F000
F000
F000
F000
F000
F000
F000
7000
7F80
3F80
1F80
ENDCHAR
STARTCHAR 027E
ENCODING 638
SWIDTH 334 0
DWIDTH 13 0
BBX 10 21 3 0
BITMAP
1FC0
3FC0
7F80
F000
F000
F000
F000
F000
F000
F000
F000
F000
F000
F000
F000
F000
F000
F000
F000
F000
F000
ENDCHAR
STARTCHAR 027F
ENCODING 639
SWIDTH 334 0
DWIDTH 13 0
BBX 9 30 1 -9
BITMAP
FE00
FF00
FF80
0780
0380
0380
0380
0380
0380
0380
0380
0380
0380
0380
0380
0380
0380
0380
0380
0380
0380
0380
0380
0380
0380
0380
0380
0380
0380
0380
ENDCHAR
STARTCHAR 0280
ENCODING 640
SWIDTH 540 0
DWIDTH 21 0
BBX 18 21 3 0
BITMAP
FFF000
FFFE00
FFFF00
F00F00
F00780
F00380
F00380
F00380
F00780
F01F00
FFFE00
FFFC00
FFF000
F07800
F03C00
F01C00
F01E00
F00F00
F00700
F00780
F003C0
ENDCHAR
STARTCHAR 0281
ENCODING 641
SWIDTH 540 0
DWIDTH 21 0
BBX 18 21 3 0
BITMAP
F003C0
F00780
F00780
F00F00
F01E00
F01E00
F03C00
F07800
FFF000
FFFC00
FFFE00
F01F00
F00780
F00780
F00380
F00380
F00780
F00F80
FFFF00
FFFE00
FFF800
ENDCHAR
STARTCHAR 0282
ENCODING 642
SWIDTH 462 0
DWIDTH 18 0
BBX 15 29 2 -8
BITMAP
0FF8
3FFC
7FFC
F008
E000
E000
F000
F800
7E00
3FC0
0FF0
03F8
007C
003E
001E
000E
001E
801C
F8FC
FFF8
FFE0
E000
E000
F000
F000
F800
7F80
3F80
0F00
ENDCHAR
STARTCHAR 0283
ENCODING 643
SWIDTH 257 0
DWIDTH 10 0
BBX 12 39 -1 -9
BITMAP
00E0
03F0
07F0
0780
0F00
0F00
0F00
0F00
0F00
0F00
0F00
0F00
0F00
0F00
0F00
0F00
0F00
0F00
0F00
0F00
0F00
0F00
0F00
0F00
0F00
0F00
0F00
0F00
0F00
0F00
0F00
0F00
0F00
0F00
0F00
0E00
FE00
FE00
FC00
ENDCHAR
STARTCHAR 0284
ENCODING 644
SWIDTH 257 0
DWIDTH 10 0
BBX 12 39 -1 -9
BITMAP
00E0
03F0
07F0
0780
0F00
0F00
0F00
0F00
0F00
0F00
0F00
0F00
0F00
0F00
0F00
0F00
0F00
0F00
7FE0
7FE0
0F00
0F00
0F00
0F00
0F00
0F00
0F00
0F00
0F00
0F00
0F00
0F00
0F00
0F00
0F00
0E00
FE00
FE00
FC00
ENDCHAR
STARTCHAR 0285
ENCODING 645
SWIDTH 257 0
DWIDTH 10 0
BBX 12 30 -1 -9
BITMAP
FC00
FE00
FE00
0F00
0F00
0F00
0F00
0F00
0F00
0F00
0F00
0F00
0F00
0F00
0F00
0F00
0F00
0F00
0F00
0F00
0F00
0F00
0F00
0F00
0F00
0F00
0700
07F0
07F0
03F0
ENDCHAR
STARTCHAR 0286
ENCODING 646
SWIDTH 257 0
DWIDTH 10 0
BBX 15 39 -4 -9
BITMAP
001C
007E
00FE
00F0
01E0
01E0
01E0
01E0
01E0
01E0
01E0
01E0
01E0
01E0
01E0
01E0
01E0
01E0
01E0
01E0
01E0
01E0
01E0
01E0
01E0
01E0
01E0
01E0
01E0
01E0
3FFC
7FFC
FFFC
E1E0
E1E0
E1C0
FFC0
7F80
3F00
ENDCHAR
STARTCHAR 0287
ENCODING 647
SWIDTH 360 0
DWIDTH 14 0
BBX 12 26 1 -5
BITMAP
FE00
FF00
FF80
0780
0380
0380
0380
0380
0380
0380
0380
0380
0380
0380
0380
0380
0380
0380
FFF0
FFF0
FFE0
0380
0380
0380
0300
0300
ENDCHAR
STARTCHAR 0288
ENCODING 648
SWIDTH 360 0
DWIDTH 14 0
BBX 12 35 1 -9
BITMAP
0C00
0C00
1C00
1C00
1C00
7FF0
FFF0
FFF0
1C00
1C00
1C00
1C00
1C00
1C00
1C00
1C00
1C00
1C00
1C00
1C00
1C00
1C00
1C00
1C00
1C00
1C00
1C00
1C00
1C00
1C00
1C00
1E00
1FB0
0FF0
07F0
ENDCHAR
STARTCHAR 0289
ENCODING 649
SWIDTH 617 0
DWIDTH 24 0
BBX 24 21 0 0
BITMAP
1E0078
1E0078
1E0078
1E0078
1E0078
1E0078
1E0078
1E0078
FFFFFF
FFFFFF
FFFFFF
1E0078
1E0078
1E0078
1E0078
1E0078
1E00F8
0F01F8
0FFFF8
07FF38
03FE38
ENDCHAR
STARTCHAR 028A
ENCODING 650
SWIDTH 591 0
DWIDTH 23 0
BBX 21 21 1 0
BITMAP
FF8FF8
FF8FF8
FF8FF8
070780
0E03C0
1C01E0
3C00E0
3800F0
7800F0
780070
780070
780070
780070
780070
7800F0
3800F0
3C01E0
1E03E0
0FFFC0
07FF80
03FE00
ENDCHAR
STARTCHAR 028B
ENCODING 651
SWIDTH 591 0
DWIDTH 23 0
BBX 18 21 3 0
BITMAP
F07E00
F07F80
F07F80
F003C0
F003C0
F003C0
F003C0
F003C0
F003C0
F003C0
F003C0
F003C0
F003C0
F003C0
F003C0
F00380
700780
780780
3FFF00
1FFE00
0FFC00
ENDCHAR
STARTCHAR 028C
ENCODING 652
SWIDTH 488 0
DWIDTH 19 0
BBX 20 21 0 0
BITMAP
00F000
01F000
01F800
01F800
03F800
039C00
039C00
079E00
070E00
0F0E00
0E0F00
0E0700
1E0780
1C0780
3C0380
3C03C0
3803C0
7801C0
7801E0
7000E0
F000F0
ENDCHAR
STARTCHAR 028D
ENCODING 653
SWIDTH 771 0
DWIDTH 30 0
BBX 29 21 1 0
BITMAP
07801F00
07C01F00
07C01F00
0FC03F00
0EE03F80
0EE03B80
1EE07B80
1CE07380
1C7073C0
1C7071C0
3C70E1C0
3878E1E0
3838E1E0
7839E0E0
783DC0E0
701DC0F0
701DC0F0
F01F8070
F00F8070
E00F8078
E00F0078
ENDCHAR
STARTCHAR 028E
ENCODING 654
SWIDTH 488 0
DWIDTH 19 0
BBX 20 30 0 0
BITMAP
0007E0
000FE0
001FE0
003C00
003800
007800
007000
007000
00F000
00F000
01F000
01F000
01F800
03B800
03BC00
079C00
079C00
071E00
0F0E00
0E0F00
0E0700
1E0700
1C0780
3C0380
3C03C0
3803C0
7801C0
7801E0
7000E0
F000F0
ENDCHAR
STARTCHAR 028F
ENCODING 655
SWIDTH 462 0
DWIDTH 18 0
BBX 18 21 0 0
BITMAP
F003C0
7803C0
780780
3C0700
1C0F00
1E0E00
0F1E00
073C00
07B800
03F800
03F000
01F000
00E000
00E000
00E000
00E000
00E000
00E000
00E000
00E000
00E000
ENDCHAR
STARTCHAR 0290
ENCODING 656
SWIDTH 462 0
DWIDTH 18 0
BBX 19 30 2 -9
BITMAP
FFFC00
FFFC00
FFFC00
003C00
003800
007800
00F000
01E000
01C000
03C000
078000
070000
0F0000
1E0000
3C0000
380000
780000
F00000
FFFE00
FFFE00
FFFE00
000E00
000E00
000E00
000E00
000E00
000E00
000FE0
0007E0
0003E0
ENDCHAR
STARTCHAR 0291
ENCODING 657
SWIDTH 540 0
DWIDTH 21 0
BBX 19 24 2 -3
BITMAP
FFFC00
FFFC00
FFFC00
003C00
003800
007800
00F000
01E000
01C000
03C000
078000
070000
0F0F00
1E3FC0
3C7FC0
38F1E0
78E1E0
F1C1E0
FFFFC0
FFFF80
FFFF00
070000
070000
060000
ENDCHAR
STARTCHAR 0292
ENCODING 658
SWIDTH 488 0
DWIDTH 19 0
BBX 17 30 1 -9
BITMAP
FFFF00
FFFF00
FFFF00
000E00
001C00
003800
007800
00F000
01E000
03C000
078000
0F0000
1FC000
1FF800
1FFC00
003E00
000F00
000700
000780
000780
000380
000380
000780
000780
000700
000F00
801E00
FFFE00
FFF800
7FE000
ENDCHAR
STARTCHAR 0293
ENCODING 659
SWIDTH 488 0
DWIDTH 19 0
BBX 21 30 -1 -9
BITMAP
3FFFC0
3FFFC0
3FFFC0
000380
000700
000E00
001E00
003C00
007800
00F000
01E000
03C000
07F000
07FE00
07FF00
000F80
0003C0
0001C0
0001E0
0001E0
0FC0E0
3FF8E0
7FFFE0
F03FE0
F00FC0
F003E0
F00FE0
7FFFF0
3FFE78
1FF830
ENDCHAR
STARTCHAR 0294
ENCODING 660
SWIDTH 411 0
DWIDTH 16 0
BBX 16 30 0 0
BITMAP
0780
3FF8
FFFC
783E
601E
000E
000E
000F
000F
000E
000E
001E
003C
007C
00F8
03F0
07C0
0780
0700
0700
0700
0700
0700
0700
0700
0700
0700
0700
0700
0700
ENDCHAR
STARTCHAR 0295
ENCODING 661
SWIDTH 411 0
DWIDTH 16 0
BBX 15 30 1 0
BITMAP
03E0
1FFC
3FFE
7C1E
7004
F000
F000
F000
F000
F000
F000
7800
7800
3C00
1F00
0FC0
07E0
01E0
01E0
01E0
01E0
01E0
01E0
01E0
01E0
01E0
01E0
01E0
01E0
01E0
ENDCHAR
STARTCHAR 0296
ENCODING 662
SWIDTH 411 0
DWIDTH 16 0
BBX 15 30 1 0
BITMAP
0E00
0E00
0E00
0E00
0E00
0E00
0E00
0E00
0E00
0E00
0E00
0E00
0E00
0F00
0FC0
03E0
01F0
0078
0038
003C
001C
001C
001E
001E
001C
003C
C03C
FDF8
FFF0
3FE0
ENDCHAR
STARTCHAR 0297
ENCODING 663
SWIDTH 462 0
DWIDTH 18 0
BBX 15 30 2 -9
BITMAP
03FC
0FFE
1FFE
1E00
3C00
3800
7800
7800
7000
7000
F000
F000
F000
F000
F000
F000
F000
F000
F000
F000
F000
7000
7000
7800
7800
3C00
3E02
1FFE
0FFE
03FC
ENDCHAR
STARTCHAR 0298
ENCODING 664
SWIDTH 771 0
DWIDTH 30 0
BBX 26 28 2 0
BITMAP
00FFC000
03FFF000
07FFFC00
0FC07E00
1F001E00
3E000F00
3C000780
78000780
78000780
780003C0
700003C0
F00003C0
F01E03C0
F01F03C0
F01F03C0
F01E03C0
F00E03C0
700003C0
780003C0
78000380
78000780
3C000780
3C000F00
1E001E00
0F807E00
07FFFC00
03FFF000
00FFE000
ENDCHAR
STARTCHAR 0299
ENCODING 665
SWIDTH 565 0
DWIDTH 22 0
BBX 18 21 3 0
BITMAP
FFF000
FFFE00
FFFF00
F00F80
F00780
F00380
F00380
F00780
F01F00
FFFC00
FFFE00
FFFF00
F00780
F003C0
F003C0
F003C0
F003C0
F00780
FFFF00
FFFF00
FFF800
ENDCHAR
STARTCHAR 029A
ENCODING 666
SWIDTH 591 0
DWIDTH 23 0
BBX 19 21 2 0
BITMAP
0FF800
3FFE00
7FFF00
780780
F003C0
F001C0
7001E0
7801E0
3E00E0
1FE0E0
1FE0E0
7FE0E0
F800E0
F001E0
E001E0
E001C0
E003C0
F00780
7F7F80
3FFE00
1FFC00
ENDCHAR
STARTCHAR 029B
ENCODING 667
SWIDTH 565 0
DWIDTH 22 0
BBX 21 30 2 0
BITMAP
000070
0001F8
0001F8
0003C0
000380
000380
000380
000380
000380
03FF80
0FFF80
1FFF80
3E0300
7C0000
780000
700000
F00000
F00000
F03FC0
F03FC0
F03FC0
F003C0
F003C0
7003C0
7803C0
7803C0
3C03C0
1FFFC0
0FFFC0
07FF00
ENDCHAR
STARTCHAR 029C
ENCODING 668
SWIDTH 617 0
DWIDTH 24 0
BBX 18 21 3 0
BITMAP
F001C0
F001C0
F001C0
F001C0
F001C0
F001C0
F001C0
F001C0
F001C0
FFFFC0
FFFFC0
FFFFC0
F001C0
F001C0
F001C0
F001C0
F001C0
F001C0
F001C0
F001C0
F001C0
ENDCHAR
STARTCHAR 029D
ENCODING 669
SWIDTH 257 0
DWIDTH 10 0
BBX 14 38 -4 -9
BITMAP
00C0
01E0
01E0
01E0
00C0
0000
0000
0000
01E0
01E0
01E0
01E0
01E0
01E0
01E0
01E0
01E0
01E0
01E0
01E0
01E0
01E0
01E0
01E0
01E0
01E0
01E0
01E0
01E0
1FFC
7FFC
7FFC
F1E0
F1E0
F1C0
7FC0
7FC0
3F80
ENDCHAR
STARTCHAR 029E
ENCODING 670
SWIDTH 514 0
DWIDTH 20 0
BBX 16 30 1 -9
BITMAP
F007
F007
7807
3C07
1E07
1E07
0F07
0787
03CF
03DF
01FF
00FF
00F7
01E7
03C7
0787
0F07
1E07
3C07
7807
F007
0007
0007
0007
0007
0007
0007
0007
0007
0007
ENDCHAR
STARTCHAR 029F
ENCODING 671
SWIDTH 411 0
DWIDTH 16 0
BBX 13 21 3 0
BITMAP
F000
F000
F000
F000
F000
F000
F000
F000
F000
F000
F000
F000
F000
F000
F000
F000
F000
F000
FFF8
FFF8
FFF8
ENDCHAR
STARTCHAR 02A0
ENCODING 672
SWIDTH 591 0
DWIDTH 23 0
BBX 23 39 2 -9
BITMAP
00003C
00007E
0000FE
0000E0
0001E0
0001E0
0001E0
0001E0
0001E0
07F1E0
0FFDE0
3FFFE0
3C07E0
7803E0
7803E0
7001E0
F001E0
F001E0
F001E0
F001E0
F001E0
F001E0
F001E0
F001E0
7801E0
7803E0
3C07E0
3FBFE0
1FFDE0
07F9E0
0001E0
0001E0
0001E0
0001E0
0001E0
0001E0
0001E0
0001E0
0001E0
ENDCHAR
STARTCHAR 02A1
ENCODING 673
SWIDTH 411 0
DWIDTH 16 0
BBX 16 30 0 0
BITMAP
0780
3FF8
FFFC
783E
601E
000E
000E
000F
000F
000E
000E
001E
003C
007C
00F8
03F0
07E0
0780
0780
0780
0780
3FF8
3FF8
3FF8
0780
0780
0780
0780
0780
0780
ENDCHAR
STARTCHAR 02A2
ENCODING 674
SWIDTH 411 0
DWIDTH 16 0
BBX 15 30 1 0
BITMAP
03E0
1FFC
3FFE
7C1E
7004
F000
F000
F000
F000
F000
F000
7800
7800
3C00
1F00
0F80
07C0
01C0
01C0
01C0
01C0
1FFC
1FFC
1FFC
01C0
01C0
01C0
01C0
01C0
01C0
ENDCHAR
STARTCHAR 02A3
ENCODING 675
SWIDTH 951 0
DWIDTH 37 0
BBX 34 30 2 0
BITMAP
0001E00000
0001E00000
0001E00000
0001E00000
0001E00000
0001E00000
0001E00000
0001E00000
0001E00000
07F1FFFFC0
0FFDFFFFC0
3FFFFFFFC0
3C07E00780
7803E00700
7803E00F00
7001E01E00
F001E03C00
F001E03800
F001E07800
F001E0F000
F001E0E000
F001E1E000
F001E3C000
F001E38000
7801E78000
7803EF0000
3C07FE0000
3FBFFFFFC0
1FFCFFFFC0
07F8FFFFC0
ENDCHAR
STARTCHAR 02A4
ENCODING 676
SWIDTH 977 0
DWIDTH 38 0
BBX 35 39 2 -9
BITMAP
0001E00000
0001E00000
0001E00000
0001E00000
0001E00000
0001E00000
0001E00000
0001E00000
0001E00000
07F1FFFFC0
0FFDFFFFC0
3FFFFFFFC0
3C07E00780
7803E00F00
7803E00E00
7001E01C00
F001E03800
F001E07800
F001E0F000
F001E1E000
F001E3C000
F001E7F000
F001E7FC00
F001E7FF00
7801E00F80
7803E007C0
3C07E003C0
3FBFE001E0
1FFCE001E0
07F8E001E0
00000001E0
00000001E0
00000001E0
00000001C0
00000003C0
0000600780
00007FFF00
00007FFE00
00001FF800
ENDCHAR
STARTCHAR 02A5
ENCODING 677
SWIDTH 1028 0
DWIDTH 40 0
BBX 38 33 2 -3
BITMAP
0001E00000
0001E00000
0001E00000
0001E00000
0001E00000
0001E00000
0001E00000
0001E00000
0001E00000
07F1FFFFC0
0FFDFFFFC0
3FFFFFFFC0
3C07E00780
7803E00700
7803E00F00
7001E01E00
F001E03C00
F001E03800
F001E07800
F001E0F000
F001E0E000
F001E1E1E0
F001E3C7F8
F001E38FF8
7801E79E3C
7803EF1C3C
3C07FE383C
3FBFFFFFF8
1FFCFFFFF8
07F8FFFFE0
000000E000
000000E000
000000C000
ENDCHAR
STARTCHAR 02A6
ENCODING 678
SWIDTH 745 0
DWIDTH 29 0
BBX 27 26 1 0
BITMAP
0C000000
0C000000
1C000000
1C000000
1C000000
7FFFFF80
FFFFFFC0
FFFFFFC0
1C0F0080
1C0E0000
1C0E0000
1C0F0000
1C0F8000
1C07E000
1C03FC00
1C00FF00
1C003F80
1C0007C0
1C0003E0
1C0001E0
1C0001E0
1C0001E0
1E0003C0
1FFFFFC0
0FFFFF80
03FFFC00
ENDCHAR
STARTCHAR 02A7
ENCODING 679
SWIDTH 488 0
DWIDTH 19 0
BBX 20 39 1 -9
BITMAP
0000E0
0003F0
0007F0
000F00
0C0F00
0C0F00
1C0E00
1C0E00
1C0E00
7FFE00
FFFE00
FFFE00
1C0E00
1C0E00
1C0E00
1C0E00
1C0E00
1C0E00
1C0E00
1C0E00
1C0E00
1C0E00
1C0E00
1C0E00
1C0E00
1C0E00
1E0E00
1F9E00
0FFE00
07FE00
000E00
000E00
000E00
000E00
000E00
000E00
00BE00
00FC00
00F800
ENDCHAR
STARTCHAR 02A8
ENCODING 680
SWIDTH 848 0
DWIDTH 33 0
BBX 31 26 1 0
BITMAP
0C000000
0C000000
1C000000
1C000000
1C000000
7FF00FF8
FFF03FF8
FFF07FF8
1C00F808
1C00F000
1C01E000
1C01C000
1C01C000
1C03C000
1C03C000
1C03C000
1C03C3F0
1C03CFF8
1C03FFFC
1C01FC1E
1C01F00E
1C03E00E
1E07F01E
1F3F7FFC
0FFE3FF8
07F81FF0
ENDCHAR
STARTCHAR 02A9
ENCODING 681
SWIDTH 848 0
DWIDTH 33 0
BBX 29 39 1 -9
BITMAP
00F00000
03FC0000
07FC0000
0F000000
0E000000
1E000000
1E000000
1E000000
1E000000
3FFE3FC0
FFFE7FE0
FFFEFFF0
1E0FC0F8
1E0F8078
1E0F0038
1E0F0038
1E0E0038
1E0E0038
1E0E0038
1E0E0038
1E0E0038
1E0E0038
1E0E0038
1E0E0038
1E0E0038
1E0E0038
1E0E0038
1E0E0038
1E0E0038
1E0E0038
00000038
00000038
00000038
00000038
00000038
00000078
000007F8
000007F0
000007E0
ENDCHAR
STARTCHAR 02AA
ENCODING 682
SWIDTH 642 0
DWIDTH 25 0
BBX 21 30 3 0
BITMAP
F00000
F00000
F00000
F00000
F00000
F00000
F00000
F00000
F00000
F03FE0
F0FFF0
F1FFF0
F3C030
F38000
F38000
F3C000
F1E000
F1F800
F0FF00
F03FC0
F00FE0
F001F0
F00078
F00078
F00038
F00078
FC0078
FFC7F0
FFFFE0
F7FF80
ENDCHAR
STARTCHAR 02AB
ENCODING 683
SWIDTH 591 0
DWIDTH 23 0
BBX 19 30 3 0
BITMAP
F00000
F00000
F00000
F00000
F00000
F00000
F00000
F00000
F00000
FFFFE0
FFFFE0
FFFFE0
F003C0
F00380
F00780
F00F00
F00E00
F01E00
F03C00
F07800
F07000
F0F000
F1E000
F1C000
F3C000
F78000
F70000
FFFFE0
FFFFE0
FFFFE0
ENDCHAR
STARTCHAR 02AC
ENCODING 684
SWIDTH 488 0
DWIDTH 19 0
BBX 20 28 0 0
BITMAP
E0E070
E0F060
60F0E0
71F0E0
71F8E0
3198C0
3399C0
3B9DC0
3B1D80
1F0D80
1F0F80
1E0F00
0E0700
000000
000000
E0E070
E0F060
60F0E0
71F0E0
71B8C0
3198C0
3399C0
3B1DC0
3B0D80
1F0F80
1E0F80
1E0700
0E0700
ENDCHAR
STARTCHAR 02AD
ENCODING 685
SWIDTH 565 0
DWIDTH 22 0
BBX 17 28 3 0
BITMAP
FFFF80
FFFF80
FFFF80
F00780
F00780
F00780
F00780
F00780
F00780
000000
000000
000000
000000
000000
000000
000000
000000
000000
000000
FFFF80
FFFF80
FFFF80
F00780
F00780
F00780
F00780
F00780
F00780
ENDCHAR
STARTCHAR 02AE
ENCODING 686
SWIDTH 617 0
DWIDTH 24 0
BBX 22 30 -1 -9
BITMAP
FC001C
FE001C
FE001C
0F001C
0F001C
0F001C
0F001C
0F001C
0F001C
0F001C
0F001C
0F001C
0F001C
0F003C
07003C
07003C
07807C
0780FC
03F7DC
03FF9C
00FF1C
00001C
00001C
00001C
00001C
00001C
00001C
00001C
00001C
00001C
ENDCHAR
STARTCHAR 02AF
ENCODING 687
SWIDTH 617 0
DWIDTH 24 0
BBX 26 30 -1 -9
BITMAP
FC001C00
FE001C00
FE001C00
0F001C00
0F001C00
0F001C00
0F001C00
0F001C00
0F001C00
0F001C00
0F001C00
0F001C00
0F001C00
0F003C00
07003C00
07003C00
07807C00
0780FC00
03F7DC00
03FF9C00
00FF1C00
00001C00
00001C00
00001C00
00001C00
00001C00
00001E00
00001FC0
00000FC0
000007C0
ENDCHAR
STARTCHAR 02B0
ENCODING 688
SWIDTH 385 0
DWIDTH 15 0
BBX 12 18 2 11
BITMAP
C000
C000
C000
C000
C000
C780
DFE0
F060
E060
E070
C070
C070
C070
C070
C070
C070
C070
C070
ENDCHAR
STARTCHAR 02B1
ENCODING 689
SWIDTH 385 0
DWIDTH 15 0
BBX 12 18 2 11
BITMAP
7800
F800
C000
C000
C000
C780
DFE0
F060
E060
E070
C070
C070
C070
C070
C070
C070
C070
C070
ENDCHAR
STARTCHAR 02B2
ENCODING 690
SWIDTH 154 0
DWIDTH 6 0
BBX 6 22 -1 6
BITMAP
1C
18
00
00
18
18
18
18
18
18
18
18
18
18
18
18
18
18
18
18
38
F0
ENDCHAR
STARTCHAR 02B3
ENCODING 691
SWIDTH 257 0
DWIDTH 10 0
BBX 8 13 2 11
BITMAP
C7
DF
F0
E0
E0
C0
C0
C0
C0
C0
C0
C0
C0
ENDCHAR
STARTCHAR 02B4
ENCODING 692
SWIDTH 257 0
DWIDTH 10 0
BBX 8 13 0 11
BITMAP
03
03
03
03
03
03
03
03
03
07
0F
7B
F3
ENDCHAR
STARTCHAR 02B5
ENCODING 693
SWIDTH 257 0
DWIDTH 10 0
BBX 11 18 0 6
BITMAP
0300
0300
0300
0300
0300
0300
0300
0300
0300
0700
0F00
7B00
F300
0300
0300
0300
0380
01E0
ENDCHAR
STARTCHAR 02B6
ENCODING 694
SWIDTH 360 0
DWIDTH 14 0
BBX 12 13 2 11
BITMAP
C070
C0E0
C0C0
C180
C380
FF00
FFC0
C0E0
C060
C060
C0E0
FFC0
FF00
ENDCHAR
STARTCHAR 02B7
ENCODING 695
SWIDTH 488 0
DWIDTH 19 0
BBX 20 13 0 11
BITMAP
E06070
60F060
60F060
60F0E0
31B8C0
3198C0
3198C0
3B1D80
1B0D80
1B0D80
1E0D80
0E0700
0E0700
ENDCHAR
STARTCHAR 02B8
ENCODING 696
SWIDTH 308 0
DWIDTH 12 0
BBX 13 18 0 6
BITMAP
C038
6030
6030
7070
3060
38E0
18C0
18C0
0DC0
0D80
0D80
0700
0700
0600
0600
0E00
1C00
F800
ENDCHAR
STARTCHAR 02B9
ENCODING 697
SWIDTH 154 0
DWIDTH 6 0
BBX 5 10 1 18
BITMAP
78
78
78
70
70
F0
E0
E0
E0
C0
ENDCHAR
STARTCHAR 02BA
ENCODING 698
SWIDTH 334 0
DWIDTH 13 0
BBX 12 10 1 18
BITMAP
7870
78F0
78F0
70F0
70E0
F0E0
E1E0
E1C0
E1C0
C180
ENDCHAR
STARTCHAR 02BB
ENCODING 699
SWIDTH 154 0
DWIDTH 6 0
BBX 5 10 1 18
BITMAP
18
38
38
78
70
70
F0
F0
F0
E0
ENDCHAR
STARTCHAR 02BC
ENCODING 700
SWIDTH 154 0
DWIDTH 6 0
BBX 5 10 1 18
BITMAP
78
78
78
70
70
F0
E0
E0
E0
C0
ENDCHAR
STARTCHAR 02BD
ENCODING 701
SWIDTH 154 0
DWIDTH 6 0
BBX 5 10 1 18
BITMAP
E0
F0
F0
F0
70
70
78
38
38
18
ENDCHAR
STARTCHAR 02BE
ENCODING 702
SWIDTH 154 0
DWIDTH 6 0
BBX 4 9 1 22
BITMAP
80
E0
70
30
30
30
70
E0
C0
ENDCHAR
STARTCHAR 02BF
ENCODING 703
SWIDTH 154 0
DWIDTH 6 0
BBX 4 8 1 23
BITMAP
70
70
C0
C0
C0
60
70
10
ENDCHAR
STARTCHAR 02C0
ENCODING 704
SWIDTH 282 0
DWIDTH 11 0
BBX 10 12 0 18
BITMAP
1E00
FF80
73C0
01C0
00C0
00C0
01C0
03C0
0F80
1E00
1C00
1C00
ENDCHAR
STARTCHAR 02C1
ENCODING 705
SWIDTH 282 0
DWIDTH 11 0
BBX 10 12 1 18
BITMAP
1E00
7FC0
F3C0
E000
C000
C000
E000
7000
3C00
1E00
0600
0600
ENDCHAR
STARTCHAR 02C2
ENCODING 706
SWIDTH 282 0
DWIDTH 11 0
BBX 9 9 1 22
BITMAP
0180
0700
1C00
7000
C000
7000
1E00
0380
0080
ENDCHAR
STARTCHAR 02C3
ENCODING 707
SWIDTH 282 0
DWIDTH 11 0
BBX 9 9 1 22
BITMAP
C000
7000
1C00
0700
0180
0700
3C00
E000
8000
ENDCHAR
STARTCHAR 02C4
ENCODING 708
SWIDTH 282 0
DWIDTH 11 0
BBX 9 9 1 21
BITMAP
0800
1C00
1400
3600
2200
6300
4100
C180
8080
ENDCHAR
STARTCHAR 02C5
ENCODING 709
SWIDTH 282 0
DWIDTH 11 0
BBX 9 9 1 21
BITMAP
8180
C100
4300
6200
2600
3400
1C00
1800
0800
ENDCHAR
STARTCHAR 02C6
ENCODING 710
SWIDTH 411 0
DWIDTH 16 0
BBX 12 6 2 24
BITMAP
0F00
1F80
1F80
39C0
70E0
E070
ENDCHAR
STARTCHAR 02C7
ENCODING 711
SWIDTH 411 0
DWIDTH 16 0
BBX 13 6 2 24
BITMAP
C038
F070
79E0
3FC0
1F80
0F00
ENDCHAR
STARTCHAR 02C8
ENCODING 712
SWIDTH 154 0
DWIDTH 6 0
BBX 3 11 2 19
BITMAP
E0
E0
E0
E0
E0
E0
E0
E0
E0
E0
E0
ENDCHAR
STARTCHAR 02C9
ENCODING 713
SWIDTH 360 0
DWIDTH 14 0
BBX 11 2 2 24
BITMAP
FFE0
FFE0
ENDCHAR
STARTCHAR 02CA
ENCODING 714
SWIDTH 257 0
DWIDTH 10 0
BBX 7 6 2 24
BITMAP
1E
1E
3C
78
70
E0
ENDCHAR
STARTCHAR 02CB
ENCODING 715
SWIDTH 257 0
DWIDTH 10 0
BBX 7 6 2 24
BITMAP
F0
F0
78
3C
1C
0E
ENDCHAR
STARTCHAR 02CC
ENCODING 716
SWIDTH 154 0
DWIDTH 6 0
BBX 3 10 2 -8
BITMAP
E0
E0
E0
E0
E0
E0
E0
E0
E0
E0
ENDCHAR
STARTCHAR 02CD
ENCODING 717
SWIDTH 360 0
DWIDTH 14 0
BBX 11 3 2 -6
BITMAP
FFE0
FFE0
FFE0
ENDCHAR
STARTCHAR 02CE
ENCODING 718
SWIDTH 257 0
DWIDTH 10 0
BBX 7 6 2 -8
BITMAP
F0
78
78
3C
1E
06
ENDCHAR
STARTCHAR 02CF
ENCODING 719
SWIDTH 257 0
DWIDTH 10 0
BBX 7 6 2 -8
BITMAP
1E
3C
38
70
F0
C0
ENDCHAR
STARTCHAR 02D0
ENCODING 720
SWIDTH 308 0
DWIDTH 12 0
BBX 7 21 3 0
BITMAP
FE
7C
78
38
10
00
00
00
00
00
00
00
00
00
00
00
10
30
78
7C
FC
ENDCHAR
STARTCHAR 02D1
ENCODING 721
SWIDTH 308 0
DWIDTH 12 0
BBX 7 5 3 15
BITMAP
FE
7C
78
38
10
ENDCHAR
STARTCHAR 02D2
ENCODING 722
SWIDTH 180 0
DWIDTH 7 0
BBX 4 8 2 8
BITMAP
80
E0
60
30
30
70
E0
C0
ENDCHAR
STARTCHAR 02D3
ENCODING 723
SWIDTH 180 0
DWIDTH 7 0
BBX 4 8 2 8
BITMAP
30
70
E0
C0
C0
C0
F0
70
ENDCHAR
STARTCHAR 02D4
ENCODING 724
SWIDTH 257 0
DWIDTH 10 0
BBX 8 6 1 9
BITMAP
1C
1C
1C
1C
FF
FF
ENDCHAR
STARTCHAR 02D5
ENCODING 725
SWIDTH 257 0
DWIDTH 10 0
BBX 8 6 1 9
BITMAP
FF
FF
1C
1C
1C
1C
ENDCHAR
STARTCHAR 02D6
ENCODING 726
SWIDTH 257 0
DWIDTH 10 0
BBX 8 8 1 8
BITMAP
1C
1C
1C
FF
FF
1C
1C
1C
ENDCHAR
STARTCHAR 02D7
ENCODING 727
SWIDTH 282 0
DWIDTH 11 0
BBX 9 2 1 11
BITMAP
FF80
FF80
ENDCHAR
STARTCHAR 02D8
ENCODING 728
SWIDTH 385 0
DWIDTH 15 0
BBX 12 5 2 24
BITMAP
C070
C060
F1E0
7FC0
3F80
ENDCHAR
STARTCHAR 02D9
ENCODING 729
SWIDTH 180 0
DWIDTH 7 0
BBX 4 5 2 24
BITMAP
40
E0
F0
E0
40
ENDCHAR
STARTCHAR 02DA
ENCODING 730
SWIDTH 282 0
DWIDTH 11 0
BBX 8 8 2 24
BITMAP
3C
7E
E7
C3
C3
C3
FF
7E
ENDCHAR
STARTCHAR 02DB
ENCODING 731
SWIDTH 231 0
DWIDTH 9 0
BBX 6 9 2 -8
BITMAP
38
70
E0
C0
C0
E0
FC
FC
30
ENDCHAR
STARTCHAR 02DC
ENCODING 732
SWIDTH 437 0
DWIDTH 17 0
BBX 14 5 2 24
BITMAP
000C
7E1C
FF98
E7F8
C1F0
ENDCHAR
STARTCHAR 02DD
ENCODING 733
SWIDTH 437 0
DWIDTH 17 0
BBX 14 6 2 24
BITMAP
1E3C
3C78
3870
70E0
71C0
E180
ENDCHAR
STARTCHAR 02DE
ENCODING 734
SWIDTH 231 0
DWIDTH 9 0
BBX 13 8 -4 7
BITMAP
0600
7E00
FE00
FF00
0F00
07F8
03F8
01F8
ENDCHAR
STARTCHAR 02DF
ENCODING 735
SWIDTH 282 0
DWIDTH 11 0
BBX 7 8 2 22
BITMAP
44
EE
7E
3C
7C
FE
E6
40
ENDCHAR
STARTCHAR 02E0
ENCODING 736
SWIDTH 308 0
DWIDTH 12 0
BBX 13 18 0 6
BITMAP
C038
6030
6070
3060
3060
38C0
18C0
1D80
0D80
0F00
0700
0700
0F00
0D80
0D80
1980
0D80
0F80
ENDCHAR
STARTCHAR 02E1
ENCODING 737
SWIDTH 154 0
DWIDTH 6 0
BBX 2 18 2 11
BITMAP
C0
C0
C0
C0
C0
C0
C0
C0
C0
C0
C0
C0
C0
C0
C0
C0
C0
C0
ENDCHAR
STARTCHAR 02E2
ENCODING 738
SWIDTH 308 0
DWIDTH 12 0
BBX 10 13 1 11
BITMAP
1F00
7F80
E000
C000
E000
7800
1F00
0780
01C0
00C0
81C0
FF80
7F00
ENDCHAR
STARTCHAR 02E3
ENCODING 739
SWIDTH 334 0
DWIDTH 13 0
BBX 12 13 1 11
BITMAP
C070
60E0
70C0
3980
1B00
0F00
0E00
0F00
1B80
3180
70C0
E0E0
C070
ENDCHAR
STARTCHAR 02E4
ENCODING 740
SWIDTH 257 0
DWIDTH 10 0
BBX 9 18 1 11
BITMAP
3F00
7F80
E080
C000
C000
C000
C000
6000
7800
1E00
0E00
0E00
0E00
0E00
0E00
0E00
0E00
0E00
ENDCHAR
STARTCHAR 02E5
ENCODING 741
SWIDTH 411 0
DWIDTH 16 0
BBX 10 27 3 0
BITMAP
FFC0
FFC0
FFC0
00C0
00C0
00C0
00C0
00C0
00C0
00C0
00C0
00C0
00C0
00C0
00C0
00C0
00C0
00C0
00C0
00C0
00C0
00C0
00C0
00C0
00C0
00C0
00C0
ENDCHAR
STARTCHAR 02E6
ENCODING 742
SWIDTH 411 0
DWIDTH 16 0
BBX 10 27 3 0
BITMAP
00C0
00C0
00C0
00C0
00C0
00C0
00C0
FFC0
FFC0
00C0
00C0
00C0
00C0
00C0
00C0
00C0
00C0
00C0
00C0
00C0
00C0
00C0
00C0
00C0
00C0
00C0
00C0
ENDCHAR
STARTCHAR 02E7
ENCODING 743
SWIDTH 411 0
DWIDTH 16 0
BBX 10 27 3 0
BITMAP
00C0
00C0
00C0
00C0
00C0
00C0
00C0
00C0
00C0
00C0
00C0
00C0
FFC0
FFC0
00C0
00C0
00C0
00C0
00C0
00C0
00C0
00C0
00C0
00C0
00C0
00C0
00C0
ENDCHAR
STARTCHAR 02E8
ENCODING 744
SWIDTH 411 0
DWIDTH 16 0
BBX 10 27 3 0
BITMAP
00C0
00C0
00C0
00C0
00C0
00C0
00C0
00C0
00C0
00C0
00C0
00C0
00C0
00C0
00C0
00C0
00C0
00C0
FFC0
FFC0
FFC0
00C0
00C0
00C0
00C0
00C0
00C0
ENDCHAR
STARTCHAR 02E9
ENCODING 745
SWIDTH 411 0
DWIDTH 16 0
BBX 10 27 3 0
BITMAP
00C0
00C0
00C0
00C0
00C0
00C0
00C0
00C0
00C0
00C0
00C0
00C0
00C0
00C0
00C0
00C0
00C0
00C0
00C0
00C0
00C0
00C0
00C0
00C0
FFC0
FFC0
FFC0
ENDCHAR
STARTCHAR 02EA
ENCODING 746
SWIDTH 411 0
DWIDTH 16 0
BBX 10 15 3 6
BITMAP
E000
E000
E000
E000
E000
E000
E000
E000
E000
E000
E000
E000
FFC0
FFC0
FFC0
ENDCHAR
STARTCHAR 02EB
ENCODING 747
SWIDTH 411 0
DWIDTH 16 0
BBX 10 15 3 6
BITMAP
E000
E000
E000
E000
E000
E000
FFC0
FFC0
FFC0
E000
E000
E000
E000
E000
E000
ENDCHAR
STARTCHAR 02EC
ENCODING 748
SWIDTH 411 0
DWIDTH 16 0
BBX 12 6 2 -8
BITMAP
E070
70E0
39C0
1F80
1F80
0F00
ENDCHAR
STARTCHAR 02ED
ENCODING 749
SWIDTH 488 0
DWIDTH 19 0
BBX 16 8 2 23
BITMAP
FFFF
FFFF
FFFF
0000
0000
FFFF
FFFF
FFFF
ENDCHAR
STARTCHAR 02EE
ENCODING 750
SWIDTH 334 0
DWIDTH 13 0
BBX 12 10 1 18
BITMAP
7870
78F0
78F0
70F0
70E0
F0E0
E1E0
E1C0
E1C0
C180
ENDCHAR
STARTCHAR 02EF
ENCODING 751
SWIDTH 411 0
DWIDTH 16 0
BBX 12 8 2 -9
BITMAP
E070
70E0
70E0
39C0
1F80
1F80
0F00
0700
ENDCHAR
STARTCHAR 02F0
ENCODING 752
SWIDTH 411 0
DWIDTH 16 0
BBX 12 8 2 -9
BITMAP
0600
0F00
1F80
1F80
39C0
78E0
70E0
E070
ENDCHAR
STARTCHAR 02F1
ENCODING 753
SWIDTH 308 0
DWIDTH 12 0
BBX 9 10 2 -9
BITMAP
0080
0380
0F80
7E00
F800
F000
FC00
1F80
0780
0180
ENDCHAR
STARTCHAR 02F2
ENCODING 754
SWIDTH 308 0
DWIDTH 12 0
BBX 9 9 2 -8
BITMAP
E000
F800
7F00
0F80
0780
1F80
FC00
F000
C000
ENDCHAR
STARTCHAR 02F3
ENCODING 755
SWIDTH 308 0
DWIDTH 12 0
BBX 9 9 2 -11
BITMAP
0C00
7F00
6700
C380
C180
C380
6700
7F00
0C00
ENDCHAR
STARTCHAR 02F4
ENCODING 756
SWIDTH 257 0
DWIDTH 10 0
BBX 7 6 2 11
BITMAP
F0
F8
78
3C
1E
0E
ENDCHAR
STARTCHAR 02F5
ENCODING 757
SWIDTH 437 0
DWIDTH 17 0
BBX 13 6 2 11
BITMAP
F1C0
F1E0
78F0
3870
1C38
0E18
ENDCHAR
STARTCHAR 02F6
ENCODING 758
SWIDTH 437 0
DWIDTH 17 0
BBX 13 6 2 11
BITMAP
1E78
3C78
38F0
70E0
E1C0
C380
ENDCHAR
STARTCHAR 02F7
ENCODING 759
SWIDTH 437 0
DWIDTH 17 0
BBX 14 5 2 -7
BITMAP
180C
7E1C
FFB8
E7F8
C1F0
ENDCHAR
STARTCHAR 02F8
ENCODING 760
SWIDTH 257 0
DWIDTH 10 0
BBX 5 22 3 8
BITMAP
20
F0
F8
F8
F0
60
00
00
00
00
00
00
00
00
00
00
00
70
F0
F8
F8
F0
ENDCHAR
STARTCHAR 02F9
ENCODING 761
SWIDTH 282 0
DWIDTH 11 0
BBX 8 8 2 18
BITMAP
FF
FF
C0
C0
C0
C0
C0
C0
ENDCHAR
STARTCHAR 02FA
ENCODING 762
SWIDTH 282 0
DWIDTH 11 0
BBX 8 8 2 18
BITMAP
FF
FF
07
07
07
07
07
07
ENDCHAR
STARTCHAR 02FB
ENCODING 763
SWIDTH 282 0
DWIDTH 11 0
BBX 8 9 2 0
BITMAP
C0
C0
C0
C0
C0
C0
C0
FF
FF
ENDCHAR
STARTCHAR 02FC
ENCODING 764
SWIDTH 282 0
DWIDTH 11 0
BBX 8 9 2 0
BITMAP
07
07
07
07
07
07
07
FF
FF
ENDCHAR
STARTCHAR 02FD
ENCODING 765
SWIDTH 514 0
DWIDTH 20 0
BBX 17 6 2 -8
BITMAP
C00180
C00180
C00180
C00180
FFFF80
FFFF80
ENDCHAR
STARTCHAR 02FE
ENCODING 766
SWIDTH 514 0
DWIDTH 20 0
BBX 17 6 2 -8
BITMAP
C00000
C00000
C00000
C00000
FFFF80
FFFF80
ENDCHAR
STARTCHAR 02FF
ENCODING 767
SWIDTH 514 0
DWIDTH 20 0
BBX 17 12 2 -9
BITMAP
008000
018000
078000
1E0000
780000
FFFF80
FFFF80
F00000
3C0000
0F0000
038000
008000
ENDCHAR
STARTCHAR 0300
ENCODING 768
SWIDTH 0 0
DWIDTH 0 0
BBX 7 6 -19 24
BITMAP
F0
F8
78
3C
1E
0E
ENDCHAR
STARTCHAR 0301
ENCODING 769
SWIDTH 0 0
DWIDTH 0 0
BBX 7 6 -12 24
BITMAP
1E
3E
3C
78
F0
E0
ENDCHAR
STARTCHAR 0302
ENCODING 770
SWIDTH 0 0
DWIDTH 0 0
BBX 12 6 -6 24
BITMAP
0F00
1F80
1F80
39C0
70E0
E070
ENDCHAR
STARTCHAR 0303
ENCODING 771
SWIDTH 0 0
DWIDTH 0 0
BBX 14 5 -19 24
BITMAP
080C
3E0C
7F9C
E7F8
C1F0
ENDCHAR
STARTCHAR 0304
ENCODING 772
SWIDTH 0 0
DWIDTH 0 0
BBX 12 2 -6 24
BITMAP
FFF0
FFF0
ENDCHAR
STARTCHAR 0305
ENCODING 773
SWIDTH 0 0
DWIDTH 0 0
BBX 16 3 -8 30
BITMAP
FFFF
FFFF
FFFF
ENDCHAR
STARTCHAR 0306
ENCODING 774
SWIDTH 0 0
DWIDTH 0 0
BBX 12 5 -6 24
BITMAP
C030
C070
79E0
7FE0
3FC0
ENDCHAR
STARTCHAR 0307
ENCODING 775
SWIDTH 0 0
DWIDTH 0 0
BBX 4 5 -2 24
BITMAP
60
F0
F0
F0
60
ENDCHAR
STARTCHAR 0308
ENCODING 776
SWIDTH 0 0
DWIDTH 0 0
BBX 10 3 -5 25
BITMAP
E1C0
E1C0
E1C0
ENDCHAR
STARTCHAR 0309
ENCODING 777
SWIDTH 0 0
DWIDTH 0 0
BBX 8 9 -15 23
BITMAP
F8
FE
0E
07
06
1E
3C
30
30
ENDCHAR
STARTCHAR 030A
ENCODING 778
SWIDTH 0 0
DWIDTH 0 0
BBX 8 8 -4 24
BITMAP
3C
7E
E7
C3
C3
C3
FF
7E
ENDCHAR
STARTCHAR 030B
ENCODING 779
SWIDTH 0 0
DWIDTH 0 0
BBX 14 6 -5 24
BITMAP
1E3C
1E38
3C78
3870
70E0
E1C0
ENDCHAR
STARTCHAR 030C
ENCODING 780
SWIDTH 0 0
DWIDTH 0 0
BBX 14 6 -7 24
BITMAP
E01C
7078
3CF0
1FE0
0FC0
0780
ENDCHAR
STARTCHAR 030D
ENCODING 781
SWIDTH 0 0
DWIDTH 0 0
BBX 4 7 -2 23
BITMAP
F0
F0
F0
F0
F0
F0
F0
ENDCHAR
STARTCHAR 030E
ENCODING 782
SWIDTH 0 0
DWIDTH 0 0
BBX 10 7 -5 23
BITMAP
E1C0
E1C0
E1C0
E1C0
E1C0
E1C0
E1C0
ENDCHAR
STARTCHAR 030F
ENCODING 783
SWIDTH 0 0
DWIDTH 0 0
BBX 13 6 -20 24
BITMAP
F1E0
F1E0
78F0
3870
1C38
0E18
ENDCHAR
STARTCHAR 0310
ENCODING 784
SWIDTH 0 0
DWIDTH 0 0
BBX 12 9 -6 24
BITMAP
0600
0F00
0F00
0F00
C030
C070
F9E0
7FE0
3FC0
ENDCHAR
STARTCHAR 0311
ENCODING 785
SWIDTH 0 0
DWIDTH 0 0
BBX 12 5 -6 24
BITMAP
0F00
3FC0
7FE0
E070
C030
ENDCHAR
STARTCHAR 0312
ENCODING 786
SWIDTH 0 0
DWIDTH 0 0
BBX 6 10 -3 18
BITMAP
1C
1C
38
38
78
78
70
F0
F0
F0
ENDCHAR
STARTCHAR 0313
ENCODING 787
SWIDTH 0 0
DWIDTH 0 0
BBX 6 10 -3 18
BITMAP
3C
3C
38
78
78
70
70
70
E0
E0
ENDCHAR
STARTCHAR 0314
ENCODING 788
SWIDTH 0 0
DWIDTH 0 0
BBX 6 10 -3 18
BITMAP
F0
F0
F0
70
78
38
38
38
1C
1C
ENDCHAR
STARTCHAR 0315
ENCODING 789
SWIDTH 0 0
DWIDTH 0 0
BBX 6 10 -3 18
BITMAP
3C
3C
38
78
78
70
70
70
E0
E0
ENDCHAR
STARTCHAR 0316
ENCODING 790
SWIDTH 0 0
DWIDTH 0 0
BBX 8 6 -4 -8
BITMAP
F8
78
3C
1C
0E
07
ENDCHAR
STARTCHAR 0317
ENCODING 791
SWIDTH 0 0
DWIDTH 0 0
BBX 8 6 -4 -8
BITMAP
1F
1E
3C
78
70
E0
ENDCHAR
STARTCHAR 0318
ENCODING 792
SWIDTH 0 0
DWIDTH 0 0
BBX 6 7 -3 -8
BITMAP
0C
0C
0C
FC
FC
0C
0C
ENDCHAR
STARTCHAR 0319
ENCODING 793
SWIDTH 0 0
DWIDTH 0 0
BBX 6 7 -3 -8
BITMAP
C0
C0
C0
FC
FC
C0
C0
ENDCHAR
STARTCHAR 031A
ENCODING 794
SWIDTH 0 0
DWIDTH 0 0
BBX 10 10 -3 27
BITMAP
FFC0
FFC0
FFC0
01C0
01C0
01C0
01C0
01C0
01C0
01C0
ENDCHAR
STARTCHAR 031B
ENCODING 795
SWIDTH 0 0
DWIDTH 0 0
BBX 8 8 -4 22
BITMAP
0F
0F
0F
0E
1E
3C
F8
F0
ENDCHAR
STARTCHAR 031C
ENCODING 796
SWIDTH 0 0
DWIDTH 0 0
BBX 4 8 -2 -9
BITMAP
70
F0
C0
C0
C0
E0
70
30
ENDCHAR
STARTCHAR 031D
ENCODING 797
SWIDTH 0 0
DWIDTH 0 0
BBX 8 6 -4 -8
BITMAP
18
18
18
18
FF
FF
ENDCHAR
STARTCHAR 031E
ENCODING 798
SWIDTH 0 0
DWIDTH 0 0
BBX 8 6 -4 -8
BITMAP
FF
FF
18
18
18
18
ENDCHAR
STARTCHAR 031F
ENCODING 799
SWIDTH 0 0
DWIDTH 0 0
BBX 8 8 -4 -9
BITMAP
18
18
18
FF
FF
18
18
18
ENDCHAR
STARTCHAR 0320
ENCODING 800
SWIDTH 0 0
DWIDTH 0 0
BBX 8 2 -4 -6
BITMAP
FF
FF
ENDCHAR
STARTCHAR 0321
ENCODING 801
SWIDTH 0 0
DWIDTH 0 0
BBX 7 11 -7 -9
BITMAP
0E
0E
0E
0E
0E
0E
0E
0E
FE
FC
F8
ENDCHAR
STARTCHAR 0322
ENCODING 802
SWIDTH 0 0
DWIDTH 0 0
BBX 7 11 0 -9
BITMAP
E0
E0
E0
E0
E0
E0
E0
E0
FE
7E
3E
ENDCHAR
STARTCHAR 0323
ENCODING 803
SWIDTH 0 0
DWIDTH 0 0
BBX 4 4 -14 -6
BITMAP
70
F0
F0
60
ENDCHAR
STARTCHAR 0324
ENCODING 804
SWIDTH 0 0
DWIDTH 0 0
BBX 10 4 -5 -7
BITMAP
E1C0
E1C0
E1C0
4080
ENDCHAR
STARTCHAR 0325
ENCODING 805
SWIDTH 0 0
DWIDTH 0 0
BBX 8 8 -4 -9
BITMAP
7E
FF
C3
C3
C3
E7
7E
3C
ENDCHAR
STARTCHAR 0326
ENCODING 806
SWIDTH 0 0
DWIDTH 0 0
BBX 4 7 -2 -9
BITMAP
70
70
70
E0
E0
C0
80
ENDCHAR
STARTCHAR 0327
ENCODING 807
SWIDTH 0 0
DWIDTH 0 0
BBX 8 9 -4 -9
BITMAP
18
38
3C
3E
07
07
07
FE
FC
ENDCHAR
STARTCHAR 0328
ENCODING 808
SWIDTH 0 0
DWIDTH 0 0
BBX 6 10 -3 -9
BITMAP
10
38
70
E0
E0
E0
E0
FC
7C
18
ENDCHAR
STARTCHAR 0329
ENCODING 809
SWIDTH 0 0
DWIDTH 0 0
BBX 4 6 -2 -8
BITMAP
F0
F0
F0
F0
F0
F0
ENDCHAR
STARTCHAR 032A
ENCODING 810
SWIDTH 0 0
DWIDTH 0 0
BBX 14 6 -7 -8
BITMAP
FFFC
FFFC
E01C
E01C
E01C
E01C
ENDCHAR
STARTCHAR 032B
ENCODING 811
SWIDTH 0 0
DWIDTH 0 0
BBX 14 5 -7 -7
BITMAP
C30C
C30C
E79C
7FF8
3CF0
ENDCHAR
STARTCHAR 032C
ENCODING 812
SWIDTH 0 0
DWIDTH 0 0
BBX 12 6 -6 -8
BITMAP
E070
70E0
39C0
1F80
1F80
0F00
ENDCHAR
STARTCHAR 032D
ENCODING 813
SWIDTH 0 0
DWIDTH 0 0
BBX 14 6 -7 -8
BITMAP
0780
0FC0
1FE0
3CF0
7878
E01C
ENDCHAR
STARTCHAR 032E
ENCODING 814
SWIDTH 0 0
DWIDTH 0 0
BBX 12 5 -6 -7
BITMAP
C030
E070
7FE0
7FE0
3F80
ENDCHAR
STARTCHAR 032F
ENCODING 815
SWIDTH 0 0
DWIDTH 0 0
BBX 12 5 -6 -7
BITMAP
1F80
3FC0
7FE0
E070
C030
ENDCHAR
STARTCHAR 0330
ENCODING 816
SWIDTH 0 0
DWIDTH 0 0
BBX 14 5 -7 -7
BITMAP
3C0C
7F0C
7FFC
E3F8
C0F0
ENDCHAR
STARTCHAR 0331
ENCODING 817
SWIDTH 0 0
DWIDTH 0 0
BBX 12 3 -6 -6
BITMAP
FFF0
FFF0
FFF0
ENDCHAR
STARTCHAR 0332
ENCODING 818
SWIDTH 0 0
DWIDTH 0 0
BBX 18 3 -9 -6
BITMAP
FFFFC0
FFFFC0
FFFFC0
ENDCHAR
STARTCHAR 0333
ENCODING 819
SWIDTH 0 0
DWIDTH 0 0
BBX 16 8 -8 -9
BITMAP
FFFF
FFFF
FFFF
0000
0000
FFFF
FFFF
FFFF
ENDCHAR
STARTCHAR 0334
ENCODING 820
SWIDTH 0 0
DWIDTH 0 0
BBX 14 5 -7 8
BITMAP
3E0C
7F0C
7FFC
E3F8
C0F0
ENDCHAR
STARTCHAR 0335
ENCODING 821
SWIDTH 0 0
DWIDTH 0 0
BBX 16 3 -8 10
BITMAP
FFFF
FFFF
FFFF
ENDCHAR
STARTCHAR 0336
ENCODING 822
SWIDTH 0 0
DWIDTH 0 0
BBX 28 2 -14 10
BITMAP
FFFFFFF0
FFFFFFF0
ENDCHAR
STARTCHAR 0337
ENCODING 823
SWIDTH 0 0
DWIDTH 0 0
BBX 11 7 -6 7
BITMAP
0060
01E0
07E0
0F80
3E00
FC00
7000
ENDCHAR
STARTCHAR 0338
ENCODING 824
SWIDTH 0 0
DWIDTH 0 0
BBX 14 31 -7 -2
BITMAP
001C
001C
001C
0038
0038
0070
0070
0070
00E0
00E0
01C0
01C0
01C0
0380
0380
0700
0700
0700
0E00
0E00
0C00
1C00
1C00
3800
3800
3800
7000
7000
E000
E000
E000
ENDCHAR
STARTCHAR 0339
ENCODING 825
SWIDTH 0 0
DWIDTH 0 0
BBX 4 8 -2 -9
BITMAP
E0
F0
30
30
30
70
E0
80
ENDCHAR
STARTCHAR 033A
ENCODING 826
SWIDTH 0 0
DWIDTH 0 0
BBX 14 6 -7 -8
BITMAP
E01C
E01C
E01C
E01C
FFFC
FFFC
ENDCHAR
STARTCHAR 033B
ENCODING 827
SWIDTH 0 0
DWIDTH 0 0
BBX 14 8 -7 -9
BITMAP
FFFC
FFFC
C00C
C00C
C00C
C00C
FFFC
FFFC
ENDCHAR
STARTCHAR 033C
ENCODING 828
SWIDTH 0 0
DWIDTH 0 0
BBX 14 5 -7 -7
BITMAP
1860
7FF8
E79C
C30C
C30C
ENDCHAR
STARTCHAR 033D
ENCODING 829
SWIDTH 0 0
DWIDTH 0 0
BBX 8 8 -4 22
BITMAP
42
E7
7E
3C
3C
7E
E7
42
ENDCHAR
STARTCHAR 033E
ENCODING 830
SWIDTH 0 0
DWIDTH 0 0
BBX 4 11 -2 22
BITMAP
10
70
F0
C0
E0
E0
70
30
30
F0
E0
ENDCHAR
STARTCHAR 033F
ENCODING 831
SWIDTH 0 0
DWIDTH 0 0
BBX 16 7 -8 30
BITMAP
FFFF
FFFF
0000
0000
0000
FFFF
FFFF
ENDCHAR
STARTCHAR 0340
ENCODING 832
SWIDTH 0 0
DWIDTH 0 0
BBX 7 6 -6 24
BITMAP
F0
F8
78
3C
1C
0E
ENDCHAR
STARTCHAR 0341
ENCODING 833
SWIDTH 0 0
DWIDTH 0 0
BBX 7 6 -1 24
BITMAP
1E
3E
3C
78
70
E0
ENDCHAR
STARTCHAR 0342
ENCODING 834
SWIDTH 0 0
DWIDTH 0 0
BBX 14 5 -7 24
BITMAP
000C
7E0C
7F9C
E7F8
C1F0
ENDCHAR
STARTCHAR 0343
ENCODING 835
SWIDTH 0 0
DWIDTH 0 0
BBX 6 6 -3 23
BITMAP
F8
F8
3C
18
38
70
ENDCHAR
STARTCHAR 0344
ENCODING 836
SWIDTH 0 0
DWIDTH 0 0
BBX 14 6 -6 24
BITMAP
03C0
0380
F7B8
F73C
F73C
0600
ENDCHAR
STARTCHAR 0345
ENCODING 837
SWIDTH 0 0
DWIDTH 0 0
BBX 5 6 -1 -9
BITMAP
E0
E0
E0
E0
F8
F8
ENDCHAR
STARTCHAR 0346
ENCODING 838
SWIDTH 0 0
DWIDTH 0 0
BBX 16 7 -8 23
BITMAP
FFFF
FFFF
FFFF
C003
C003
C003
C003
ENDCHAR
STARTCHAR 0347
ENCODING 839
SWIDTH 0 0
DWIDTH 0 0
BBX 16 8 -8 -9
BITMAP
FFFF
FFFF
FFFF
0000
0000
FFFF
FFFF
FFFF
ENDCHAR
STARTCHAR 0348
ENCODING 840
SWIDTH 0 0
DWIDTH 0 0
BBX 10 6 -5 -8
BITMAP
E1C0
E1C0
E1C0
E1C0
E1C0
E1C0
ENDCHAR
STARTCHAR 0349
ENCODING 841
SWIDTH 0 0
DWIDTH 0 0
BBX 8 7 -4 -9
BITMAP
FF
FF
FF
07
07
07
07
ENDCHAR
STARTCHAR 034A
ENCODING 842
SWIDTH 0 0
DWIDTH 0 0
BBX 14 8 -7 22
BITMAP
0080
018C
7F8C
7F9C
E7F8
C7F0
0C00
0400
ENDCHAR
STARTCHAR 034B
ENCODING 843
SWIDTH 0 0
DWIDTH 0 0
BBX 14 14 -7 22
BITMAP
0300
0780
0780
0300
180C
7E0C
7FFC
E3F8
C1F0
0000
0780
0780
0780
0100
ENDCHAR
STARTCHAR 034C
ENCODING 844
SWIDTH 0 0
DWIDTH 0 0
BBX 12 9 -6 24
BITMAP
7C30
FFF0
C7F0
C1E0
0000
7830
FE30
FFF0
C3E0
ENDCHAR
STARTCHAR 034D
ENCODING 845
SWIDTH 0 0
DWIDTH 0 0
BBX 12 6 -6 -8
BITMAP
3080
70E0
FFF0
FFF0
70E0
1080
ENDCHAR
STARTCHAR 034E
ENCODING 846
SWIDTH 0 0
DWIDTH 0 0
BBX 6 8 -3 -9
BITMAP
10
38
78
FC
30
30
30
30
ENDCHAR
STARTCHAR 034F
ENCODING 847
SWIDTH 0 0
DWIDTH 0 0
BBX 28 28 -14 0
BITMAP
FC1F83F0
FC1F83F0
C0000030
C0000030
C0000030
C0264030
0036C000
01801800
01801800
00000000
06000600
C6000630
C0000030
C4000330
C6000330
C0000030
C2000030
06000600
00000000
01801800
01801800
0030C000
C036C030
C0000030
C0000030
C0000030
FC1F83F0
FC1F83F0
ENDCHAR
STARTCHAR 0350
ENCODING 848
SWIDTH 0 0
DWIDTH 0 0
BBX 6 8 -3 23
BITMAP
80
E0
F8
3C
1C
7C
E0
80
ENDCHAR
STARTCHAR 0351
ENCODING 849
SWIDTH 0 0
DWIDTH 0 0
BBX 4 8 -2 23
BITMAP
30
70
E0
C0
C0
60
70
30
ENDCHAR
STARTCHAR 0352
ENCODING 850
SWIDTH 0 0
DWIDTH 0 0
BBX 12 9 -6 24
BITMAP
0600
3FC0
7FE0
F070
C030
C630
0F00
0F00
0F00
ENDCHAR
STARTCHAR 0353
ENCODING 851
SWIDTH 0 0
DWIDTH 0 0
BBX 6 6 -3 -8
BITMAP
CC
FC
78
78
FC
CC
ENDCHAR
STARTCHAR 0354
ENCODING 852
SWIDTH 0 0
DWIDTH 0 0
BBX 6 7 -3 -9
BITMAP
0C
7C
F0
E0
F8
3C
0C
ENDCHAR
STARTCHAR 0355
ENCODING 853
SWIDTH 0 0
DWIDTH 0 0
BBX 6 7 -3 -9
BITMAP
C0
F0
7C
1C
7C
F0
C0
ENDCHAR
STARTCHAR 0356
ENCODING 854
SWIDTH 0 0
DWIDTH 0 0
BBX 14 7 -7 -9
BITMAP
C070
F070
3C78
1CD8
7CDC
F1CC
C18C
ENDCHAR
STARTCHAR 0357
ENCODING 855
SWIDTH 0 0
DWIDTH 0 0
BBX 4 8 -2 23
BITMAP
E0
F0
30
30
30
70
F0
C0
ENDCHAR
STARTCHAR 0358
ENCODING 856
SWIDTH 0 0
DWIDTH 0 0
BBX 4 5 5 24
BITMAP
60
F0
F0
F0
60
ENDCHAR
STARTCHAR 0359
ENCODING 857
SWIDTH 0 0
DWIDTH 0 0
BBX 8 8 -4 -9
BITMAP
18
18
5A
FF
FF
3C
7E
24
ENDCHAR
STARTCHAR 035A
ENCODING 858
SWIDTH 0 0
DWIDTH 0 0
BBX 14 8 -7 -9
BITMAP
3CF0
FFFC
C78C
C30C
C30C
C30C
FFFC
7CF8
ENDCHAR
STARTCHAR 035B
ENCODING 859
SWIDTH 0 0
DWIDTH 0 0
BBX 7 7 -3 23
BITMAP
C0
C0
FE
FC
0C
0C
18
ENDCHAR
STARTCHAR 035C
ENCODING 860
SWIDTH 0 0
DWIDTH 0 0
BBX 30 7 -15 -9
BITMAP
E000001C
78000038
3C0000F0
1F8007E0
0FFFFFC0
03FFFF00
003FF000
ENDCHAR
STARTCHAR 035D
ENCODING 861
SWIDTH 0 0
DWIDTH 0 0
BBX 30 7 -15 23
BITMAP
E000001C
70000038
3C0000F0
1F0003E0
0FFFFFC0
03FFFF00
007FF800
ENDCHAR
STARTCHAR 035E
ENCODING 862
SWIDTH 0 0
DWIDTH 0 0
BBX 24 2 -12 24
BITMAP
FFFFFF
FFFFFF
ENDCHAR
ENDFONT
